# Blender v2.79 (sub 0) OBJ File: 'ShortCannon.blend'
# www.blender.org
mtllib ShortCannon.mtl
o ShortCannon_Cube.000
v 0.166242 -0.145639 -0.039936
v 0.165148 -0.143375 0.051165
v 0.165695 -0.144507 0.005615
v 0.284500 0.102765 0.000895
v -0.115800 -0.065359 -0.000192
v -0.310194 -0.001236 -0.049521
v -0.104299 0.067551 -0.002897
v -0.311179 0.001133 0.041578
v -0.116293 -0.064174 0.045357
v -0.212887 0.105271 -0.005138
v -0.115308 -0.066543 -0.045742
v -0.310687 -0.000051 -0.003971
v 0.000643 -0.065434 -0.044396
v -0.034981 -0.056667 -0.045083
v -0.035966 -0.054298 0.046016
v -0.000353 -0.063087 0.046704
v -0.024092 0.095950 -0.002640
v 0.056316 0.096286 -0.001683
v 0.000145 -0.064261 0.001154
v -0.035474 -0.055483 0.000466
v -0.105365 -0.083834 0.045995
v -0.104873 -0.085019 0.000445
v -0.104381 -0.086204 -0.045105
v -0.043027 -0.076962 0.000927
v -0.042535 -0.078147 -0.044623
v -0.043519 -0.075778 0.046476
v 0.267379 0.064862 -0.043953
v 0.284594 0.102569 -0.006969
v 0.279739 0.091137 -0.033411
v 0.284405 0.102960 0.008760
v 0.266285 0.067124 0.047147
v 0.278911 0.092852 0.035613
v -0.212793 0.105076 -0.013002
v -0.238920 0.075517 -0.050371
v -0.220258 0.096030 -0.039557
v -0.108012 0.031935 0.043401
v -0.104393 0.067746 0.004967
v -0.105640 0.057645 0.031834
v -0.240005 0.077787 0.040729
v -0.212982 0.105467 0.002726
v -0.221084 0.097747 0.029467
v -0.104204 0.067355 -0.010761
v -0.106946 0.029671 -0.047699
v -0.104820 0.055930 -0.037190
v 0.056410 0.096090 -0.009547
v 0.044037 0.058517 -0.046586
v 0.052973 0.084697 -0.036006
v -0.026308 0.058223 -0.047440
v -0.023997 0.095754 -0.010504
v -0.024487 0.084374 -0.036932
v 0.042953 0.060780 0.044515
v 0.056220 0.096481 0.006181
v 0.052145 0.086413 0.033019
v -0.024186 0.096145 0.005224
v -0.027377 0.060486 0.043661
v -0.025308 0.086089 0.032092
v -0.494064 0.058075 0.043495
v -0.906084 0.055263 0.038618
v -0.493885 0.037688 0.040144
v -0.905905 0.034876 0.035268
v -0.493641 0.020213 0.029591
v -0.905661 0.017401 0.024714
v -0.493368 0.008310 0.013441
v -0.905389 0.005498 0.008565
v -0.493109 0.003792 -0.005846
v -0.905129 0.000980 -0.010722
v -0.492903 0.007347 -0.025334
v -0.904923 0.004534 -0.030210
v -0.492780 0.018432 -0.042057
v -0.904801 0.015620 -0.046933
v -0.492761 0.035362 -0.053468
v -0.904781 0.032549 -0.058344
v -0.492847 0.055557 -0.057830
v -0.904867 0.052745 -0.062707
v -0.493026 0.075944 -0.054480
v -0.905046 0.073132 -0.059356
v -0.493270 0.093419 -0.043926
v -0.905291 0.090607 -0.048803
v -0.493543 0.105322 -0.027777
v -0.905563 0.102510 -0.032653
v -0.493802 0.109840 -0.008490
v -0.905822 0.107028 -0.013366
v -0.494008 0.106286 0.010999
v -0.906028 0.103473 0.006122
v -0.494130 0.095200 0.027721
v -0.906151 0.092388 0.022845
v -0.494150 0.078271 0.039132
v -0.906170 0.075458 0.034256
v -0.905768 0.041003 0.020112
v -0.905889 0.054860 0.022389
v -0.905602 0.029126 0.012939
v -0.905416 0.021036 0.001963
v -0.905240 0.017965 -0.011146
v -0.905100 0.020381 -0.024391
v -0.905017 0.027916 -0.035757
v -0.905004 0.039422 -0.043513
v -0.905062 0.053148 -0.046478
v -0.905184 0.067004 -0.044200
v -0.905350 0.078882 -0.037028
v -0.905535 0.086971 -0.026051
v -0.905711 0.090042 -0.012943
v -0.905851 0.087626 0.000303
v -0.905934 0.080092 0.011669
v -0.905948 0.068586 0.019425
v -0.807860 0.041671 0.021271
v -0.807982 0.055528 0.023548
v -0.807694 0.029794 0.014098
v -0.807509 0.021704 0.003122
v -0.807333 0.018634 -0.009987
v -0.807193 0.021050 -0.023232
v -0.807109 0.028584 -0.034598
v -0.807096 0.040090 -0.042354
v -0.807155 0.053816 -0.045319
v -0.807276 0.067673 -0.043042
v -0.807442 0.079550 -0.035869
v -0.807627 0.087640 -0.024893
v -0.807804 0.090711 -0.011784
v -0.807944 0.088295 0.001462
v -0.808027 0.080760 0.012828
v -0.808040 0.069254 0.020583
v -0.902973 0.091711 -0.043971
v -0.903387 0.098934 -0.013136
v -0.903717 0.093252 0.018021
v -0.865107 0.091969 -0.043522
v -0.865522 0.099193 -0.012687
v -0.865852 0.093510 0.018469
v -0.903743 0.153379 -0.014493
v -0.903329 0.146156 -0.045328
v -0.904073 0.147697 0.016664
v -0.865877 0.153637 -0.014045
v -0.865463 0.146414 -0.044880
v -0.866207 0.147955 0.017112
v -0.242902 -0.133490 0.038609
v -0.241986 -0.135385 -0.037680
v -0.234481 -0.151901 0.039168
v -0.233566 -0.153797 -0.037121
v -0.349632 -0.136120 -0.038954
v -0.350548 -0.134224 0.037335
v -0.356941 -0.154639 -0.038581
v -0.357856 -0.152743 0.037707
v -0.372638 -0.121880 -0.039584
v -0.373554 -0.119984 0.036705
v -0.389851 -0.133071 -0.039512
v -0.390767 -0.131175 0.036776
v -0.382933 -0.029528 -0.042003
v -0.383849 -0.027632 0.034286
v -0.401922 -0.038468 -0.042008
v -0.402838 -0.036572 0.034280
v -0.316270 -0.043317 0.004942
v -0.316039 -0.043797 -0.014370
v -0.283605 -0.043094 0.005329
v -0.283373 -0.043574 -0.013983
v -0.307675 -0.110414 0.006713
v -0.307443 -0.110894 -0.012599
v -0.298982 -0.122432 0.007116
v -0.298751 -0.122911 -0.012196
v -0.304467 -0.087643 0.006185
v -0.306956 -0.067917 0.005665
v -0.306725 -0.068397 -0.013646
v -0.304235 -0.088122 -0.013126
v -0.284103 -0.086425 0.006400
v -0.288035 -0.100950 0.006713
v -0.287804 -0.101430 -0.012598
v -0.283871 -0.086905 -0.012912
v -0.215575 -0.107159 0.038283
v -0.214659 -0.109055 -0.038006
v -0.197683 -0.116640 0.038733
v -0.196767 -0.118536 -0.037556
v -0.204367 -0.038319 0.036706
v -0.203451 -0.040215 -0.039582
v -0.186475 -0.047800 0.037157
v -0.185559 -0.049696 -0.039132
v -0.653613 0.042086 -0.070107
v -0.166854 0.079277 -0.065188
v -0.616309 -0.060641 -0.067107
v -0.383764 0.043928 -0.066914
v -0.383091 -0.059049 -0.064346
v -0.597166 0.042471 -0.069439
v -0.596494 -0.060506 -0.066872
v -0.134607 0.030011 -0.063577
v -0.653319 -0.002942 -0.068985
v -0.383469 -0.001100 -0.065791
v -0.596872 -0.002556 -0.068317
v -0.383585 -0.000861 -0.056195
v -0.383879 0.044167 -0.057317
v -0.596987 -0.002318 -0.058720
v -0.597281 0.042710 -0.059843
v -0.128327 -0.014673 -0.062391
v -0.158803 -0.057519 -0.061692
v -0.178436 0.085443 -0.065481
v -0.268652 0.134360 -0.019419
v -0.241988 0.119535 -0.052926
v -0.654771 0.131725 -0.023988
v -0.653875 0.082198 -0.071107
v -0.654268 0.116721 -0.057806
v -0.384026 0.084040 -0.067914
v -0.384921 0.133567 -0.020795
v -0.384419 0.118563 -0.054612
v -0.598324 0.132110 -0.023320
v -0.597428 0.082583 -0.070439
v -0.597821 0.117106 -0.057138
v -0.655082 0.045127 0.052229
v -0.168323 0.082318 0.057148
v -0.268806 0.134679 -0.006574
v -0.654925 0.132044 -0.011144
v -0.654348 0.043606 -0.008939
v -0.167588 0.080797 -0.004020
v -0.617777 -0.057601 0.055230
v -0.617043 -0.059121 -0.005938
v -0.385232 0.046968 0.055423
v -0.385075 0.133886 -0.007950
v -0.384560 -0.056009 0.057990
v -0.598635 0.045512 0.052897
v -0.598478 0.132429 -0.010476
v -0.597962 -0.057466 0.055465
v -0.135342 0.031531 -0.002408
v -0.136076 0.033052 0.058760
v -0.654788 0.000099 0.053352
v -0.654053 -0.001421 -0.007817
v -0.384938 0.001941 0.056545
v -0.598341 0.000484 0.054020
v -0.597228 -0.058986 -0.005704
v -0.383825 -0.057529 -0.003178
v -0.384823 0.001702 0.046949
v -0.385117 0.046730 0.045826
v -0.598225 0.000246 0.044423
v -0.598520 0.045273 0.043301
v -0.129796 -0.011633 0.059946
v -0.160272 -0.054478 0.060645
v -0.159538 -0.055998 -0.000524
v -0.129061 -0.013153 -0.001223
v -0.179905 0.088483 0.056856
v -0.268960 0.134999 0.006270
v -0.243117 0.121872 0.041103
v -0.655079 0.132363 0.001701
v -0.655344 0.085238 0.051229
v -0.655397 0.119058 0.036224
v -0.385494 0.087080 0.054423
v -0.385230 0.134205 0.004894
v -0.385547 0.120900 0.039417
v -0.598632 0.132748 0.002369
v -0.598897 0.085623 0.051897
v -0.598950 0.119443 0.036892
v 0.155873 -0.152222 -0.047285
v 0.154602 -0.149591 0.058581
v 0.182576 -0.160439 -0.046760
v 0.181305 -0.157808 0.059106
v 0.276445 0.112487 -0.014974
v 0.262851 0.079619 -0.051762
v 0.272650 0.102475 -0.041246
v 0.261580 0.082250 0.054103
v 0.276073 0.113259 0.016064
v 0.271642 0.104562 0.042703
v 0.286473 0.064396 -0.051100
v 0.300068 0.097264 -0.014312
v 0.296272 0.087252 -0.040584
v 0.299695 0.098036 0.016726
v 0.285203 0.067027 0.054765
v 0.295264 0.089338 0.043365
vn 0.0120 -0.0248 -0.9996
vn 0.0105 0.1707 -0.9853
vn 0.0116 0.0397 -0.9991
vn 0.0065 -0.9997 0.0249
vn -0.8418 -0.5398 0.0033
vn -0.9999 -0.0068 -0.0118
vn 0.4702 0.8824 -0.0163
vn -0.0041 0.9756 -0.2195
vn -0.0065 0.9997 -0.0249
vn 0.8368 0.5476 -0.0036
vn 0.9360 0.3520 0.0025
vn 0.9999 0.0068 0.0118
vn 0.8148 -0.5792 0.0242
vn 0.9902 0.1394 0.0084
vn -0.0036 0.9680 -0.2511
vn -0.0014 0.9141 -0.4056
vn 0.0086 0.3596 -0.9331
vn -0.0120 0.0248 0.9996
vn -0.0130 0.2194 0.9755
vn -0.0124 0.0893 0.9959
vn -0.0087 0.9853 0.1706
vn -0.0106 0.9331 0.3595
vn -0.0091 0.9792 0.2026
vn -0.0136 0.4055 0.9140
vn -0.0087 -0.3459 0.9382
vn -0.0041 -0.6739 0.7388
vn 0.0012 -0.9079 0.4193
vn 0.0108 -0.9276 -0.3735
vn 0.0132 -0.7098 -0.7043
vn 0.0136 -0.3920 -0.9198
vn 0.0087 0.3459 -0.9382
vn 0.0041 0.6739 -0.7388
vn -0.0012 0.9079 -0.4193
vn -0.0108 0.9276 0.3735
vn -0.0132 0.7098 0.7043
vn -0.0136 0.3920 0.9198
vn 0.0088 -0.9837 -0.1793
vn 0.0039 -0.9736 0.2281
vn -0.0088 0.9838 0.1793
vn -0.0039 0.9736 -0.2281
vn -0.9919 -0.1268 -0.0088
vn -0.5484 -0.8361 0.0142
vn 0.5265 0.8500 -0.0148
vn 0.9938 0.1110 0.0092
vn -0.9352 -0.3541 -0.0024
vn -0.9704 -0.2415 -0.0056
vn 0.9999 -0.0112 0.0123
vn 0.9904 -0.1371 0.0153
vn 0.9331 -0.3592 0.0201
vn 0.8909 -0.4536 0.0220
vn 0.9330 -0.3592 0.0201
vn -0.8103 -0.5860 0.0048
vn -0.9999 0.0069 -0.0122
vn -0.9902 0.1391 -0.0153
vn -0.6938 0.7197 -0.0262
vn 0.6918 -0.7216 0.0262
vn 0.9869 -0.1603 0.0158
vn -0.9869 0.1603 -0.0158
vn 0.5354 0.8225 -0.1919
vn 0.5312 0.8313 0.1636
vn 0.5304 0.8305 0.1702
vn 0.5348 0.8213 -0.1984
vn 0.9085 -0.4174 0.0213
vn 0.1123 0.2165 0.9698
vn 0.0916 0.1847 0.9785
vn -0.2944 -0.9555 0.0202
vn 0.1357 0.1681 -0.9764
vn 0.1151 0.1359 -0.9840
vn 0.5021 0.7940 0.3427
vn 0.2114 0.3674 0.9057
vn 0.5106 0.7763 -0.3696
vn 0.2333 0.3221 -0.9175
vn -0.9087 0.4169 -0.0213
vn -0.0197 0.2840 0.9586
vn -0.0152 0.2220 0.9749
vn -0.0132 0.0231 0.9996
vn -0.0136 0.0244 0.9996
vn -0.4365 -0.8995 0.0178
vn -0.3399 -0.9402 0.0203
vn -0.3396 -0.9403 0.0203
vn -0.4364 -0.8996 0.0178
vn -0.0160 0.9996 -0.0250
vn -0.0139 0.9768 -0.2138
vn -0.1619 0.9647 -0.2079
vn -0.1711 0.9849 -0.0265
vn -0.3257 0.9217 -0.2108
vn -0.3336 0.9423 -0.0274
vn 0.9433 -0.3313 0.0188
vn -0.3402 -0.9401 0.0202
vn -0.4366 -0.8995 0.0178
vn -0.0255 0.9793 -0.2010
vn -0.0281 0.9993 -0.0252
vn 0.3284 0.9443 -0.0195
vn 0.3247 0.9222 -0.2103
vn 0.3245 0.9214 -0.2140
vn 0.9013 -0.4326 0.0216
vn -0.3180 -0.9478 0.0212
vn 0.3201 0.9316 0.1724
vn 0.3198 0.9310 0.1760
vn 0.0132 0.1361 -0.9906
vn 0.0114 -0.0229 -0.9997
vn 0.0123 -0.0219 -0.9997
vn 0.0624 0.1226 -0.9905
vn -0.0185 0.9861 0.1649
vn -0.0298 0.9880 0.1517
vn -0.1662 0.9736 0.1563
vn -0.3301 0.9307 0.1574
vn -0.8741 -0.4857 0.0032
vn -0.0117 0.0226 0.9997
vn -0.0567 0.2442 0.9681
vn -0.0098 0.1791 0.9838
vn -0.0114 0.0229 0.9997
vn 0.0380 0.1662 0.9854
vn -0.0123 0.0219 0.9997
vn -0.0339 0.2017 -0.9789
vn 0.0117 -0.0226 -0.9997
vn 0.0098 0.1767 -0.9842
vn 0.0132 -0.0231 -0.9996
vn -0.2396 -0.9706 0.0225
vn -0.2395 -0.9706 0.0225
vn -0.2398 -0.9706 0.0225
vn 0.1289 -0.9913 0.0272
vn 0.0113 -0.0257 -0.9996
vn -0.0113 0.0257 0.9996
vn 0.3013 0.8879 0.3477
vn -0.0213 0.4121 0.9109
vn 0.1199 0.3986 0.9093
vn 0.3101 0.8700 -0.3834
vn 0.1429 0.3573 -0.9230
vn 0.0002 0.3713 -0.9285
vn -0.1733 0.9247 0.3389
vn -0.0184 0.9371 0.3487
vn -0.0185 0.4153 0.9095
vn -0.0708 0.4156 0.9068
vn -0.0494 0.3752 -0.9256
vn 0.0039 0.3729 -0.9279
vn -0.0094 0.9188 -0.3945
vn -0.1646 0.9070 -0.3876
vn -0.0216 0.9192 -0.3932
vn 0.0002 0.3735 -0.9276
vn 0.0050 0.2378 -0.9713
vn -0.3088 0.8756 -0.3713
vn -0.3170 0.8925 0.3208
vn -0.0306 0.9374 0.3468
vn -0.0224 0.4169 0.9087
vn 0.0136 -0.0244 -0.9996
usemtl Grey
s 1
f 181//1 183//1 179//1 175//1
f 176//1 178//1 200//2 196//2
f 194//2 200//2 178//1 173//1
f 190//3 174//1 176//1 196//2
f 175//4 179//4 222//4 209//4
f 219//5 181//5 175//5 209//5
f 223//4 177//4 189//4 230//4
f 205//6 193//6 195//6 194//6 173//6 206//6
f 204//7 207//7 174//7 190//7 192//7 191//7
f 199//8 214//9 211//9 197//8
f 178//4 176//4 185//4 187//4
f 174//1 180//1 182//1 176//1
f 207//10 216//11 180//11 174//10
f 206//6 173//6 181//6 219//6
f 205//9 214//9 199//8 193//8
f 177//1 179//1 183//1 182//1
f 178//1 183//1 181//1 173//1
f 179//4 177//4 223//4 222//4
f 180//1 188//1 189//1 177//1 182//1
f 182//9 183//9 186//9 184//9
f 183//12 178//12 187//12 186//12
f 176//6 182//6 184//6 185//6
f 230//13 189//13 188//13 231//13
f 216//11 231//14 188//14 180//11
f 197//8 191//15 192//16 198//16
f 198//17 192//17 190//3 196//2
f 193//8 199//8 201//16 195//16
f 195//17 201//17 200//2 194//2
f 199//8 197//8 198//16 201//16
f 201//17 198//17 196//2 200//2
f 204//9 191//15 197//8 211//9
f 218//18 208//18 215//18 221//18
f 210//18 238//19 242//19 213//18
f 236//19 202//18 213//18 242//19
f 232//20 238//19 210//18 203//18
f 208//4 209//4 222//4 215//4
f 219//5 209//5 208//5 218//5
f 223//4 230//4 229//4 212//4
f 205//6 206//6 202//6 236//6 237//6 235//6
f 204//7 233//7 234//7 232//7 203//7 207//7
f 241//21 239//21 211//9 214//9
f 213//4 227//4 225//4 210//4
f 203//18 210//18 220//18 217//18
f 207//10 203//10 217//11 216//11
f 206//6 219//6 218//6 202//6
f 205//9 235//21 241//21 214//9
f 212//18 220//18 221//18 215//18
f 213//18 202//18 218//18 221//18
f 215//4 222//4 223//4 212//4
f 217//18 220//18 212//18 229//18 228//18
f 220//9 224//9 226//9 221//9
f 221//12 226//12 227//12 213//12
f 210//6 225//6 224//6 220//6
f 230//13 231//13 228//13 229//13
f 216//11 217//11 228//14 231//14
f 239//21 240//22 234//22 233//23
f 240//24 238//19 232//20 234//24
f 235//21 237//22 243//22 241//21
f 237//24 236//19 242//19 243//24
f 241//21 243//22 240//22 239//21
f 243//24 242//19 238//19 240//24
f 204//9 211//9 239//21 233//23
usemtl DarkGrey
f 57//18 58//18 60//25 59//25
f 59//25 60//25 62//26 61//26
f 61//26 62//26 64//27 63//27
f 63//27 64//27 66//4 65//4
f 65//4 66//4 68//28 67//28
f 67//28 68//28 70//29 69//29
f 69//29 70//29 72//30 71//30
f 71//30 72//30 74//1 73//1
f 73//1 74//1 76//31 75//31
f 75//31 76//31 78//32 77//32
f 77//32 78//32 80//33 79//33
f 79//33 80//33 82//9 81//9
f 81//9 82//9 84//34 83//34
f 83//34 84//34 86//35 85//35
f 70//6 68//6 94//6 95//6
f 85//35 86//35 88//36 87//36
f 87//36 88//36 58//18 57//18
f 98//25 97//18 113//18 114//25
f 80//6 78//6 99//6 100//6
f 58//6 88//6 104//6 90//6
f 66//6 64//6 92//6 93//6
f 76//6 74//6 97//6 98//6
f 86//6 84//6 102//6 103//6
f 62//6 60//6 89//6 91//6
f 72//6 70//6 95//6 96//6
f 82//6 80//6 100//6 101//6
f 68//6 66//6 93//6 94//6
f 78//6 76//6 98//6 99//6
f 88//6 86//6 103//6 104//6
f 64//6 62//6 91//6 92//6
f 74//6 72//6 96//6 97//6
f 84//6 82//6 101//6 102//6
f 60//6 58//6 90//6 89//6
f 105//6 106//6 120//6 119//6 118//6 117//6 116//6 115//6 114//6 113//6 112//6 111//6 110//6 109//6 108//6 107//6
f 91//32 89//31 105//31 107//32
f 99//26 98//25 114//25 115//26
f 92//33 91//32 107//32 108//33
f 100//27 99//26 115//26 116//27
f 93//9 92//33 108//33 109//9
f 101//4 100//27 116//27 117//4
f 94//34 93//9 109//9 110//34
f 102//28 101//4 117//4 118//28
f 95//35 94//34 110//34 111//35
f 103//29 102//28 118//28 119//29
f 96//36 95//35 111//35 112//36
f 104//30 103//29 119//29 120//30
f 97//18 96//36 112//36 113//18
f 89//31 90//1 106//1 105//31
f 90//1 104//30 120//30 106//1
f 122//4 125//4 126//37 123//37
f 121//38 124//38 125//4 122//4
f 127//9 129//39 132//39 130//9
f 128//40 127//9 130//9 131//40
f 122//6 123//6 129//6 127//6
f 124//1 121//1 128//1 131//1
f 125//12 124//12 131//12 130//12
f 121//6 122//6 127//6 128//6
f 123//18 126//18 132//18 129//18
f 126//12 125//12 130//12 132//12
f 137//1 139//1 143//1 141//1
f 133//9 134//9 137//9 138//9
f 134//1 136//1 139//1 137//1
f 136//4 135//4 140//4 139//4
f 135//18 133//18 138//18 140//18
f 143//41 144//41 148//41 147//41
f 139//42 140//42 144//42 143//42
f 140//18 138//18 142//18 144//18
f 138//43 137//43 141//43 142//43
f 144//18 142//18 146//18 148//18
f 142//44 141//44 145//44 146//44
f 141//1 143//1 147//1 145//1
f 149//45 150//45 159//46 158//46
f 157//18 153//18 155//18 162//18
f 151//47 161//48 164//48 152//47
f 162//49 155//50 156//50 163//51
f 149//18 158//18 161//18 151//18
f 152//1 164//1 159//1 150//1
f 163//1 156//1 154//1 160//1
f 153//52 154//52 156//52 155//52
f 160//53 157//53 158//46 159//46
f 164//48 161//48 162//49 163//51
f 161//18 158//18 157//18 162//18
f 159//1 164//1 163//1 160//1
f 157//53 160//53 154//54 153//54
f 133//18 135//18 167//18 165//18
f 134//55 133//55 165//55 166//55
f 136//1 134//1 166//1 168//1
f 135//56 136//56 168//56 167//56
f 168//1 166//1 170//1 172//1
f 167//57 168//57 172//57 171//57
f 165//18 167//18 171//18 169//18
f 166//58 165//58 169//58 170//58
f 187//1 185//1 184//1 186//1
f 227//18 226//18 224//18 225//18
f 248//59 252//60 257//61 255//62
f 254//63 256//63 255//63 257//63 259//63 258//63 247//63 246//63
f 251//64 245//18 247//18 258//65
f 245//66 244//66 246//66 247//66
f 244//1 249//67 254//68 246//1
f 257//61 252//60 253//69 259//69
f 259//70 253//70 251//64 258//65
f 248//59 255//62 256//71 250//71
f 250//72 256//72 254//68 249//67
f 248//73 250//73 249//73 244//73 245//73 251//73 253//73 252//73
usemtl Wood
f 31//74 51//75 16//76 2//77
f 3//78 19//79 13//80 1//81
f 18//82 45//83 49//84 17//85
f 17//85 49//84 42//86 7//87
f 20//88 15//88 26//88 24//88
f 16//89 19//79 3//78 2//90
f 28//91 45//83 18//82 4//92
f 7//93 42//94 33//95 10//93
f 4//96 30//96 32//96 31//96 2//96 3//96
f 5//97 9//97 8//97 12//97
f 37//98 7//93 10//93 40//99
f 43//100 11//101 6//102 34//103
f 4//92 18//82 52//104 30//105
f 54//106 17//85 7//87 37//107
f 9//108 5//108 22//108 21//108
f 11//97 5//97 12//97 6//97
f 15//109 55//110 36//111 9//112
f 9//112 36//111 39//113 8//114
f 48//115 14//116 11//101 43//100
f 46//117 13//118 14//116 48//115
f 52//104 18//82 17//85 54//106
f 55//110 15//109 16//76 51//75
f 20//119 14//120 13//80 19//79
f 15//121 20//119 19//79 16//89
f 27//96 29//96 28//96 4//96 3//96 1//96
f 25//122 24//122 22//122 23//122
f 24//122 26//122 21//122 22//122
f 14//88 20//88 24//88 25//88
f 11//101 14//116 25//123 23//123
f 5//108 11//108 23//108 22//108
f 15//109 9//112 21//124 26//124
f 37//98 40//99 41//125 38//125
f 38//126 41//127 39//113 36//111
f 33//95 42//94 44//128 35//128
f 35//129 44//130 43//100 34//103
f 52//104 54//106 56//131 53//132
f 53//133 56//134 55//110 51//75
f 46//117 48//115 50//135 47//136
f 47//137 50//138 49//84 45//83
f 45//83 28//91 29//139 47//137
f 47//136 29//140 27//141 46//117
f 42//86 49//84 50//138 44//142
f 44//130 50//135 48//115 43//100
f 54//106 37//107 38//143 56//131
f 56//134 38//126 36//111 55//110
f 30//105 52//104 53//132 32//144
f 32//145 53//133 51//75 31//74
f 1//146 13//118 46//117 27//141
