# Blender v2.79 (sub 0) OBJ File: 'Barrier_Single.blend'
# www.blender.org
mtllib Barrier_Single.mtl
o Barrier_Single_Cube.046
v -0.934834 -0.003499 0.284246
v -0.934834 0.228973 0.284246
v -0.920514 -0.003499 -0.328834
v -0.920514 0.624587 -0.328834
v 0.941089 -0.003499 0.328064
v 0.941089 0.228973 0.328064
v 0.955409 -0.003499 -0.285017
v 0.955409 0.624587 -0.285017
v -0.930037 -0.003499 0.078875
v -0.930037 0.624587 0.078875
v 0.945886 -0.003499 0.122693
v 0.945886 0.624587 0.122693
v 0.875798 -0.003499 -0.286876
v -0.840903 -0.003499 -0.326975
v -0.840903 0.624587 -0.326975
v 0.875798 0.624587 -0.286876
v -0.855223 -0.003499 0.286106
v 0.861478 -0.003499 0.326205
v 0.861478 0.228973 0.326205
v -0.855223 0.228973 0.286106
v -0.850426 0.624587 0.080734
v 0.866275 -0.003499 0.120833
v -0.850426 -0.003499 0.080734
v 0.661210 -0.003499 -0.291888
v 0.446623 -0.003499 -0.296901
v 0.232035 -0.003499 -0.301913
v 0.017448 -0.003499 -0.306925
v -0.197140 -0.003499 -0.311938
v -0.411728 -0.003499 -0.316950
v -0.626315 -0.003499 -0.321963
v -0.626315 0.624587 -0.321963
v -0.411728 0.624587 -0.316950
v -0.197140 0.624587 -0.311938
v 0.017448 0.624587 -0.306925
v 0.232035 0.624587 -0.301913
v 0.446623 0.624587 -0.296901
v 0.661210 0.624587 -0.291888
v -0.640635 -0.003499 0.291118
v -0.426048 -0.003499 0.296130
v -0.211460 -0.003499 0.301143
v 0.003127 -0.003499 0.306155
v 0.217715 -0.003499 0.311167
v 0.432303 -0.003499 0.316180
v 0.646890 -0.003499 0.321192
v 0.646890 0.228973 0.321192
v 0.003127 0.228973 0.306155
v -0.211460 0.228973 0.301143
v -0.426048 0.228973 0.296130
v -0.640635 0.228973 0.291118
v -0.206663 0.624587 0.095771
v 0.007924 0.624587 0.100784
v 0.222512 0.624587 0.105796
v 0.437100 0.624587 0.110808
v 0.651687 -0.003499 0.115821
v 0.437100 -0.003499 0.110808
v 0.222512 -0.003499 0.105796
v 0.007924 -0.003499 0.100784
v -0.206663 -0.003499 0.095771
v -0.421251 -0.003499 0.090759
v -0.635838 -0.003499 0.085747
v -0.931024 -0.003499 0.121105
v 0.944899 0.543238 0.164923
v -0.931024 0.543238 0.121105
v 0.944899 -0.003499 0.164923
v 0.865288 0.543238 0.163063
v -0.851412 0.543238 0.122964
v -0.851412 -0.003499 0.122964
v 0.865288 -0.003499 0.163063
v -0.636825 -0.003499 0.127977
v -0.422237 -0.003499 0.132989
v -0.207650 -0.003499 0.138001
v 0.006938 -0.003499 0.143014
v 0.221525 -0.003499 0.148026
v 0.436113 -0.003499 0.153039
v 0.650701 -0.003499 0.158051
v 0.650701 0.543238 0.158051
v 0.436113 0.543238 0.153039
v 0.221525 0.543238 0.148026
v 0.006938 0.543238 0.143014
v -0.207650 0.543238 0.138001
v -0.422237 0.543238 0.132989
v -0.636825 0.543238 0.127977
v -0.933850 -0.003499 0.242101
v 0.942073 0.310160 0.285918
v 0.862462 0.310160 0.284059
v -0.854239 0.310160 0.243960
v -0.854239 -0.003499 0.243960
v 0.862462 -0.003499 0.284059
v -0.639651 -0.003499 0.248972
v -0.425064 -0.003499 0.253985
v -0.210476 -0.003499 0.258997
v 0.004112 -0.003499 0.264009
v 0.218699 -0.003499 0.269022
v 0.433287 -0.003499 0.274034
v 0.647874 -0.003499 0.279047
v 0.647874 0.310160 0.279047
v 0.433287 0.310160 0.274034
v 0.218699 0.310160 0.269022
v 0.004112 0.310160 0.264009
v -0.210476 0.310160 0.258997
v -0.425064 0.310160 0.253985
v -0.639651 0.310160 0.248972
v -0.933850 0.310160 0.242101
v 0.942073 -0.003499 0.285918
v -0.636183 0.596141 0.100514
v -0.632018 0.624587 -0.077811
v -0.420502 0.624587 0.058714
v -0.421596 0.596141 0.105526
v 0.432490 0.244479 0.308131
v 0.432302 0.211502 0.316180
v 0.467639 0.228973 0.317005
v 0.217715 0.211502 0.311167
v 0.218279 0.275515 0.287007
v 0.866620 0.624587 0.106054
v 0.866116 0.611467 0.127644
v 0.651179 0.582645 0.137594
v 0.652032 0.624587 0.101041
v 0.561283 0.624587 0.113709
vn -0.9997 0.0000 -0.0234
vn 0.0234 0.0000 -0.9997
vn 0.9997 0.0000 0.0234
vn -0.0234 0.0000 0.9997
vn 0.0000 -1.0000 0.0000
vn -0.0207 0.4608 0.8872
vn 0.0000 1.0000 0.0000
vn 0.0263 0.9990 0.0362
vn -0.0033 0.5610 0.8278
vn -0.0181 0.4063 0.9135
vn -0.0461 0.3828 0.9227
vn -0.0397 0.2372 0.9707
vn -0.0475 0.1221 0.9914
vn -0.0180 0.4506 0.8925
vn 0.0015 0.4973 0.8676
vn 0.0039 0.9980 0.0634
vn -0.0346 0.9940 0.1041
vn 0.0147 0.9790 0.2031
vn -0.0894 0.8521 0.5157
vn -0.0805 0.9668 0.2424
vn -0.0146 0.3338 0.9425
vn -0.0731 0.7900 0.6088
vn -0.0718 0.7875 0.6121
vn -0.1080 0.8507 0.5144
vn 0.0296 0.6930 0.7203
usemtl Grey
s 1
f 9//1 10//1 4//1 3//1
f 13//2 16//2 8//2 7//2
f 104//3 84//3 6//3 5//3
f 17//4 20//4 2//4 1//4
f 88//5 104//5 5//5 18//5
f 86//6 103//6 2//6 20//6
f 15//7 4//7 10//7 21//8
f 13//5 7//5 11//5 22//5
f 7//3 8//3 12//3 11//3
f 61//1 63//1 10//1 9//1
f 3//5 14//5 23//5 9//5
f 24//5 13//5 22//5 54//5
f 115//6 116//9 76//6 65//6
f 108//6 105//6 82//6 81//6
f 84//6 85//6 19//6 6//6
f 102//6 86//6 20//6 49//6
f 83//5 87//5 17//5 1//5
f 95//5 88//5 18//5 44//5
f 5//4 6//4 19//4 18//4
f 38//4 49//4 20//4 17//4
f 3//2 4//2 15//2 14//2
f 24//2 37//2 16//2 13//2
f 14//2 15//2 31//2 30//2
f 30//2 31//2 32//2 29//2
f 29//2 32//2 33//2 28//2
f 28//2 33//2 34//2 27//2
f 27//2 34//2 35//2 26//2
f 26//2 35//2 36//2 25//2
f 25//2 36//2 37//2 24//2
f 18//4 19//4 45//4 44//4
f 97//6 98//6 113//10 109//11
f 44//4 45//4 111//12 110//13 43//4
f 41//4 46//4 47//4 40//4
f 40//4 47//4 48//4 39//4
f 39//4 48//4 49//4 38//4
f 87//5 89//5 38//5 17//5
f 89//5 90//5 39//5 38//5
f 90//5 91//5 40//5 39//5
f 91//5 92//5 41//5 40//5
f 92//5 93//5 42//5 41//5
f 93//5 94//5 43//5 42//5
f 94//5 95//5 44//5 43//5
f 85//6 96//6 45//6 19//6
f 43//4 110//13 112//4 42//4
f 98//6 99//6 46//14 113//10
f 42//4 112//4 46//4 41//4
f 99//6 100//6 47//6 46//14
f 100//6 101//6 48//6 47//6
f 101//6 102//6 49//6 48//6
f 116//9 118//15 53//6 77//6 76//6
f 36//7 35//7 52//7 53//7
f 35//7 34//7 51//7 52//7
f 34//7 33//7 50//7 51//7
f 31//7 15//7 21//8 106//16
f 14//5 30//5 60//5 23//5
f 30//5 29//5 59//5 60//5
f 29//5 28//5 58//5 59//5
f 28//5 27//5 57//5 58//5
f 27//5 26//5 56//5 57//5
f 26//5 25//5 55//5 56//5
f 25//5 24//5 54//5 55//5
f 50//6 108//6 81//6 80//6
f 33//7 32//7 107//17 50//7
f 51//6 50//6 80//6 79//6
f 52//6 51//6 79//6 78//6
f 53//6 52//6 78//6 77//6
f 37//7 36//7 53//7 118//7 117//7
f 16//7 37//7 117//7 114//7
f 55//5 54//5 75//5 74//5
f 56//5 55//5 74//5 73//5
f 57//5 56//5 73//5 72//5
f 58//5 57//5 72//5 71//5
f 59//5 58//5 71//5 70//5
f 60//5 59//5 70//5 69//5
f 23//5 60//5 69//5 67//5
f 54//5 22//5 68//5 75//5
f 9//5 23//5 67//5 61//5
f 32//7 31//7 106//16 107//17
f 8//7 16//7 114//7 12//7
f 83//1 103//1 63//1 61//1
f 21//6 10//6 63//6 66//6
f 22//5 11//5 64//5 68//5
f 11//3 12//3 62//3 64//3
f 1//1 2//1 103//1 83//1
f 74//5 75//5 95//5 94//5
f 73//5 74//5 94//5 93//5
f 72//5 73//5 93//5 92//5
f 71//5 72//5 92//5 91//5
f 70//5 71//5 91//5 90//5
f 69//5 70//5 90//5 89//5
f 67//5 69//5 89//5 87//5
f 75//5 68//5 88//5 95//5
f 61//5 67//5 87//5 83//5
f 62//6 65//6 85//6 84//6
f 66//6 63//6 103//6 86//6
f 68//5 64//5 104//5 88//5
f 64//3 62//3 84//3 104//3
f 105//6 21//6 66//6 82//6
f 96//6 97//6 109//11 111//12 45//6
f 12//6 115//6 65//6 62//6
usemtl DarkGrey
f 102//6 101//6 82//6 66//6
f 100//6 99//6 80//6 81//6
f 98//6 97//6 78//6 79//6
f 96//6 85//6 76//6 77//6
usemtl Yellow
f 101//6 100//6 81//6 82//6
f 99//6 98//6 79//6 80//6
f 97//6 96//6 77//6 78//6
f 76//6 85//6 65//6
f 66//6 86//6 102//6
usemtl White
f 105//18 106//16 21//8
f 107//19 108//19 50//19
f 105//18 108//20 107//17 106//16
f 109//11 110//13 111//12
f 112//21 113//10 46//14
f 109//11 113//10 112//21 110//13
f 114//22 115//23 12//24
f 116//9 117//25 118//15
f 116//9 115//23 114//22 117//25
