# Blender v2.79 (sub 0) OBJ File: 'BrickWall_1.blend'
# www.blender.org
mtllib BrickWall_1.mtl
o BrickWall_1_Cube.045
v -0.869909 -0.006757 0.101858
v -0.869909 0.157445 0.101858
v -0.882378 -0.006757 -0.070719
v -0.882378 0.157445 -0.070719
v -0.438916 -0.006757 0.070719
v -0.438916 0.157445 0.070719
v -0.451385 -0.006757 -0.101858
v -0.451385 0.157445 -0.101858
v -0.422983 -0.006757 0.086513
v -0.422983 0.157445 0.086513
v -0.422983 -0.006757 -0.086513
v -0.422983 0.157445 -0.086513
v 0.009134 -0.006757 0.086513
v 0.009134 0.157445 0.086513
v 0.009134 -0.006757 -0.086513
v 0.009134 0.157445 -0.086513
v 0.024678 -0.006757 0.069486
v 0.024678 0.157445 0.069486
v 0.038105 -0.006757 -0.103019
v 0.038105 0.157445 -0.103019
v 0.455491 -0.006757 0.103019
v 0.455491 0.157445 0.103019
v 0.468918 -0.006757 -0.069486
v 0.468918 0.157445 -0.069486
v 0.491258 -0.006757 0.101858
v 0.491258 0.157445 0.101858
v 0.478789 -0.006757 -0.070719
v 0.478789 0.157445 -0.070719
v 0.922251 -0.006757 0.070719
v 0.922251 0.157445 0.070719
v 0.909782 -0.006757 -0.101858
v 0.909782 0.157445 -0.101858
v -1.107111 0.168234 0.086513
v -1.107111 0.332437 0.086513
v -1.107111 0.168234 -0.086513
v -1.107111 0.332437 -0.086513
v -0.674994 0.168234 0.086513
v -0.674994 0.332437 0.086513
v -0.674994 0.168234 -0.086513
v -0.674994 0.332437 -0.086513
v -0.659450 0.168234 0.069486
v -0.659450 0.332437 0.069486
v -0.646023 0.168234 -0.103019
v -0.646023 0.332437 -0.103019
v -0.228637 0.168234 0.103019
v -0.228637 0.332437 0.103019
v -0.215210 0.168234 -0.069486
v -0.215210 0.332437 -0.069486
v -0.199666 0.168234 0.086513
v -0.199666 0.332437 0.086513
v -0.199666 0.168234 -0.086513
v -0.199666 0.332437 -0.086513
v 0.232450 0.168234 0.086513
v 0.232450 0.332437 0.086513
v 0.232450 0.168234 -0.086513
v 0.232450 0.332437 -0.086513
v 0.250848 0.168234 0.078026
v 0.250848 0.332437 0.078026
v 0.257592 0.168234 -0.094870
v 0.257592 0.332437 -0.094870
v 0.682636 0.168234 0.094870
v 0.682636 0.332437 0.094870
v 0.689380 0.168234 -0.078025
v 0.689380 0.332437 -0.078025
v 0.698221 0.168234 0.086513
v 0.698221 0.332437 0.086513
v 0.698221 0.168234 -0.086513
v 0.698221 0.332437 -0.086513
v 1.130338 0.168234 0.086513
v 1.130338 0.332437 0.086513
v 1.130338 0.168234 -0.086513
v 1.130338 0.332437 -0.086513
vn -0.9974 0.0000 0.0721
vn -0.0721 0.0000 -0.9974
vn 0.9974 0.0000 -0.0721
vn 0.0721 0.0000 0.9974
vn 0.0000 -1.0000 0.0000
vn 0.0000 1.0000 0.0000
vn -1.0000 0.0000 0.0000
vn 0.0000 0.0000 -1.0000
vn 1.0000 0.0000 0.0000
vn 0.0000 0.0000 1.0000
vn -0.9970 0.0000 -0.0776
vn 0.0776 0.0000 -0.9970
vn 0.9970 0.0000 0.0776
vn -0.0776 0.0000 0.9970
vn -0.9992 0.0000 -0.0390
vn 0.0390 0.0000 -0.9992
vn 0.9992 0.0000 0.0390
vn -0.0390 0.0000 0.9992
usemtl Brick
s off
f 1//1 2//1 4//1 3//1
f 3//2 4//2 8//2 7//2
f 7//3 8//3 6//3 5//3
f 5//4 6//4 2//4 1//4
f 3//5 7//5 5//5 1//5
f 8//6 4//6 2//6 6//6
f 9//7 10//7 12//7 11//7
f 11//8 12//8 16//8 15//8
f 15//9 16//9 14//9 13//9
f 13//10 14//10 10//10 9//10
f 11//5 15//5 13//5 9//5
f 16//6 12//6 10//6 14//6
f 17//11 18//11 20//11 19//11
f 19//12 20//12 24//12 23//12
f 23//13 24//13 22//13 21//13
f 21//14 22//14 18//14 17//14
f 19//5 23//5 21//5 17//5
f 24//6 20//6 18//6 22//6
f 25//1 26//1 28//1 27//1
f 27//2 28//2 32//2 31//2
f 31//3 32//3 30//3 29//3
f 29//4 30//4 26//4 25//4
f 27//5 31//5 29//5 25//5
f 32//6 28//6 26//6 30//6
f 33//7 34//7 36//7 35//7
f 35//8 36//8 40//8 39//8
f 39//9 40//9 38//9 37//9
f 37//10 38//10 34//10 33//10
f 35//5 39//5 37//5 33//5
f 40//6 36//6 34//6 38//6
f 41//11 42//11 44//11 43//11
f 43//12 44//12 48//12 47//12
f 47//13 48//13 46//13 45//13
f 45//14 46//14 42//14 41//14
f 43//5 47//5 45//5 41//5
f 48//6 44//6 42//6 46//6
f 49//7 50//7 52//7 51//7
f 51//8 52//8 56//8 55//8
f 55//9 56//9 54//9 53//9
f 53//10 54//10 50//10 49//10
f 51//5 55//5 53//5 49//5
f 56//6 52//6 50//6 54//6
f 57//15 58//15 60//15 59//15
f 59//16 60//16 64//16 63//16
f 63//17 64//17 62//17 61//17
f 61//18 62//18 58//18 57//18
f 59//5 63//5 61//5 57//5
f 64//6 60//6 58//6 62//6
f 65//7 66//7 68//7 67//7
f 67//8 68//8 72//8 71//8
f 71//9 72//9 70//9 69//9
f 69//10 70//10 66//10 65//10
f 67//5 71//5 69//5 65//5
f 72//6 68//6 66//6 70//6
