# Blender v2.79 (sub 0) OBJ File: 'CardboardBoxes_4.blend'
# www.blender.org
mtllib CardboardBoxes_4.mtl
o CardboardBoxes_4_Cube.054
v 0.558197 0.969360 0.450743
v 0.558197 1.478709 0.450744
v 0.573180 0.969360 -0.351629
v 0.573180 1.478710 -0.351628
v 0.268701 1.478709 0.445338
v 0.268701 0.969360 0.445337
v 0.283684 1.478710 -0.357034
v 0.283684 0.969360 -0.357035
v 0.558197 1.315121 0.450744
v 0.573180 1.315122 -0.351628
v 0.283684 1.315122 -0.357034
v 0.268701 1.315121 0.445338
v 0.571482 1.174979 -0.260674
v 0.571482 1.045865 -0.260674
v 0.566781 1.315122 -0.008941
v 0.277285 0.969360 -0.014347
v 0.566781 1.478710 -0.008940
v 0.566781 0.969360 -0.008941
v 0.566781 1.045865 -0.008941
v 0.566781 1.174978 -0.008941
v 0.277285 1.478709 -0.014346
v -0.140390 0.969359 0.437698
v -0.140390 1.478709 0.437699
v -0.125407 0.969360 -0.364674
v -0.125407 1.478709 -0.364674
v 0.149106 1.478709 0.443105
v 0.149106 0.969360 0.443104
v 0.164089 1.478710 -0.359268
v 0.164089 0.969360 -0.359268
v -0.140390 1.315121 0.437698
v -0.125407 1.315122 -0.364674
v 0.164089 1.315122 -0.359268
v 0.149106 1.315121 0.443104
v -0.127105 1.174978 -0.273720
v -0.127105 1.045865 -0.273720
v -0.131806 1.315121 -0.021986
v 0.157690 0.969360 -0.016580
v -0.131806 1.478709 -0.021986
v -0.131806 0.969360 -0.021986
v -0.131806 1.045865 -0.021986
v -0.131806 1.174978 -0.021986
v 0.157690 1.478709 -0.016580
v 0.544389 0.969360 -0.141603
v 0.275498 0.969360 -0.146625
v 0.544389 1.315122 -0.141603
v 0.544389 1.045865 -0.141603
v 0.544389 1.174979 -0.141603
v 0.544389 1.478710 -0.141603
v 0.275498 1.478709 -0.146624
v -0.104477 0.969360 -0.153720
v 0.164414 0.969360 -0.148699
v -0.104477 1.315121 -0.153720
v -0.104477 1.045865 -0.153720
v -0.104477 1.174978 -0.153720
v -0.104477 1.478709 -0.153720
v 0.164414 1.478709 -0.148699
v -0.679087 1.765808 0.349354
v -0.169738 1.765808 0.349354
v -0.679087 0.963296 0.349354
v -0.169737 0.963296 0.349354
v -0.169738 1.765808 0.059808
v -0.679087 1.765808 0.059808
v -0.169738 0.963296 0.059808
v -0.679087 0.963296 0.059808
v -0.333326 1.765808 0.349354
v -0.333325 0.963296 0.349354
v -0.333325 0.963296 0.059808
v -0.333326 1.765808 0.059808
v -0.473468 1.054266 0.349354
v -0.602582 1.054266 0.349354
v -0.333325 1.306043 0.349354
v -0.679087 1.306043 0.059808
v -0.169738 1.306043 0.349354
v -0.679087 1.306043 0.349354
v -0.602582 1.306043 0.349354
v -0.473468 1.306043 0.349354
v -0.169738 1.306043 0.059808
v -0.679087 1.765808 -0.349354
v -0.169738 1.765808 -0.349354
v -0.679087 0.963296 -0.349354
v -0.169738 0.963296 -0.349354
v -0.169738 1.765808 -0.059808
v -0.679087 1.765808 -0.059808
v -0.169738 0.963296 -0.059808
v -0.679087 0.963296 -0.059808
v -0.333326 1.765808 -0.349354
v -0.333325 0.963296 -0.349354
v -0.333325 0.963296 -0.059808
v -0.333326 1.765808 -0.059808
v -0.473469 1.054266 -0.349354
v -0.602582 1.054266 -0.349354
v -0.333326 1.306043 -0.349354
v -0.679087 1.306043 -0.059808
v -0.169738 1.306043 -0.349354
v -0.679087 1.306043 -0.349354
v -0.602582 1.306043 -0.349354
v -0.473469 1.306043 -0.349354
v -0.169738 1.306043 -0.059808
v -0.679087 1.173822 0.324490
v -0.679087 1.173822 0.055551
v -0.333325 1.173822 0.324490
v -0.602582 1.173822 0.324490
v -0.473468 1.173822 0.324490
v -0.169738 1.173822 0.324489
v -0.169738 1.173822 0.055551
v -0.679087 1.173822 -0.324490
v -0.679087 1.173822 -0.055551
v -0.333326 1.173822 -0.324490
v -0.602582 1.173822 -0.324490
v -0.473469 1.173822 -0.324490
v -0.169738 1.173822 -0.324490
v -0.169738 1.173822 -0.055551
v -0.567174 0.018784 -0.469242
v -0.567174 0.966111 -0.469242
v -0.581799 0.018784 0.506187
v -0.581799 0.966111 0.506187
v -0.266125 0.966111 -0.464728
v -0.266125 0.018783 -0.464728
v -0.280751 0.966111 0.510701
v -0.280751 0.018783 0.510701
v -0.567174 0.802523 -0.469242
v -0.581799 0.802523 0.506187
v -0.280751 0.802523 0.510701
v -0.266125 0.802523 -0.464728
v -0.580435 0.224402 0.415227
v -0.580435 0.095289 0.415227
v -0.576661 0.802523 0.163478
v -0.275612 0.018783 0.167992
v -0.576661 0.966111 0.163478
v -0.576661 0.018784 0.163478
v -0.576661 0.095289 0.163478
v -0.576661 0.224402 0.163478
v -0.275612 0.966111 0.167992
v 0.159292 0.018783 -0.458349
v 0.159292 0.966111 -0.458349
v 0.144666 0.018783 0.517080
v 0.144666 0.966111 0.517080
v -0.141757 0.966111 -0.462863
v -0.141757 0.018784 -0.462863
v -0.156383 0.966111 0.512566
v -0.156383 0.018783 0.512566
v 0.159292 0.802523 -0.458349
v 0.144666 0.802523 0.517080
v -0.156383 0.802523 0.512566
v -0.141757 0.802523 -0.462863
v 0.146030 0.224402 0.426120
v 0.146030 0.095289 0.426120
v 0.149804 0.802523 0.174371
v -0.151244 0.018783 0.169857
v 0.149804 0.966111 0.174371
v 0.149804 0.018783 0.174371
v 0.149804 0.095289 0.174371
v 0.149804 0.224402 0.174371
v -0.151244 0.966111 0.169857
v -0.552791 0.018784 0.296072
v -0.273169 0.018783 0.300265
v -0.552791 0.802523 0.296072
v -0.552791 0.095289 0.296072
v -0.552791 0.224402 0.296072
v -0.552791 0.966111 0.296072
v -0.273169 0.966111 0.300265
v 0.121970 0.018784 0.306190
v -0.157652 0.018783 0.301997
v 0.121970 0.802523 0.306190
v 0.121970 0.095289 0.306190
v 0.121970 0.224402 0.306190
v 0.121970 0.966111 0.306190
v -0.157652 0.966111 0.301997
v 0.226639 0.956611 0.363273
v 0.735988 0.956611 0.363273
v 0.226639 0.022405 0.363273
v 0.735988 0.022405 0.363273
v 0.735988 0.956611 0.062191
v 0.226639 0.956611 0.062191
v 0.735988 0.022405 0.062191
v 0.226639 0.022405 0.062191
v 0.572400 0.956611 0.363273
v 0.572400 0.022405 0.363273
v 0.572400 0.022405 0.062191
v 0.572400 0.956611 0.062191
v 0.432257 0.113375 0.363273
v 0.303144 0.113375 0.363273
v 0.572400 0.365152 0.363273
v 0.226639 0.365152 0.062191
v 0.735988 0.365152 0.363273
v 0.226639 0.365152 0.363273
v 0.303144 0.365152 0.363273
v 0.432257 0.365152 0.363273
v 0.735988 0.365152 0.062191
v 0.226638 0.956611 -0.363274
v 0.735988 0.956611 -0.363274
v 0.226639 0.022405 -0.363274
v 0.735988 0.022405 -0.363274
v 0.735988 0.956611 -0.062191
v 0.226639 0.956611 -0.062191
v 0.735988 0.022405 -0.062191
v 0.226639 0.022405 -0.062191
v 0.572400 0.956611 -0.363274
v 0.572400 0.022405 -0.363274
v 0.572400 0.022405 -0.062191
v 0.572400 0.956611 -0.062191
v 0.432257 0.113375 -0.363274
v 0.303144 0.113375 -0.363274
v 0.572400 0.365152 -0.363274
v 0.226639 0.365152 -0.062191
v 0.735988 0.365152 -0.363274
v 0.226639 0.365152 -0.363274
v 0.303144 0.365152 -0.363274
v 0.432257 0.365152 -0.363274
v 0.735988 0.365152 -0.062191
v 0.226639 0.232931 0.337418
v 0.226639 0.232931 0.057764
v 0.572400 0.232931 0.337418
v 0.303144 0.232931 0.337418
v 0.432257 0.232931 0.337418
v 0.735988 0.232931 0.337418
v 0.735988 0.232931 0.057764
v 0.226639 0.232931 -0.337418
v 0.226639 0.232931 -0.057765
v 0.572400 0.232931 -0.337418
v 0.303144 0.232931 -0.337418
v 0.432257 0.232931 -0.337418
v 0.735988 0.232931 -0.337418
v 0.735988 0.232931 -0.057765
vn 0.0187 0.0000 -0.9998
vn -0.0187 -0.0000 0.9998
vn -0.0000 1.0000 0.0000
vn 0.0000 -1.0000 0.0000
vn 0.9998 0.0000 0.0187
vn 0.9820 -0.0882 0.1668
vn 0.9861 0.0000 -0.1664
vn -0.9998 -0.0000 -0.0187
vn -0.9876 -0.0882 0.1300
vn -0.9792 -0.0000 -0.2031
vn -0.9951 -0.0000 0.0987
vn -0.9903 0.0483 0.1303
vn 0.9907 0.0000 0.1358
vn 0.9847 0.0483 0.1672
vn 1.0000 0.0000 -0.0000
vn -1.0000 0.0000 0.0000
vn 0.0000 0.0000 1.0000
vn -0.0882 0.1484 0.9850
vn 0.0000 -0.1848 0.9828
vn -0.0000 -0.0000 -1.0000
vn -0.0882 0.1484 -0.9850
vn 0.0000 -0.1848 -0.9828
vn -0.0000 0.1173 -0.9931
vn 0.0483 0.1488 -0.9877
vn 0.0000 0.1173 0.9931
vn 0.0483 0.1488 0.9877
vn -0.0150 0.0000 0.9999
vn 0.0150 -0.0000 -0.9999
vn -0.9999 0.0000 -0.0150
vn -0.9814 -0.0916 -0.1689
vn -0.9842 0.0000 0.1772
vn 0.9999 0.0000 0.0150
vn 0.9860 -0.0916 -0.1394
vn 0.9784 -0.0000 0.2066
vn 0.9943 -0.0000 -0.1070
vn 0.9901 0.0122 -0.1399
vn -0.9906 -0.0000 -0.1368
vn -0.9854 0.0122 -0.1696
vn -0.0916 0.1541 0.9838
vn 0.0000 -0.1919 0.9814
vn -0.0916 0.1541 -0.9838
vn 0.0000 -0.1919 -0.9814
vn 0.0000 0.1219 -0.9925
vn 0.0502 0.1546 -0.9867
vn -0.0000 0.1219 0.9925
vn 0.0502 0.1546 0.9867
vn -0.9827 -0.0000 0.1853
vn 0.9751 0.0000 0.2219
vn -0.0000 0.2036 -0.9791
vn -0.0000 0.2036 0.9791
vn 0.9805 -0.0000 -0.1967
vn -0.9741 -0.0000 -0.2260
vn -0.0000 0.2114 -0.9774
vn 0.0000 0.2114 0.9774
usemtl Cardboard
s off
f 11//1 10//1 3//1 8//1
f 33//2 27//2 6//2 12//2
f 17//3 21//3 5//3 2//3
f 43//4 44//4 8//4 3//4
f 51//4 29//4 8//4 44//4
f 9//2 12//2 6//2 1//2
f 2//2 5//2 12//2 9//2
f 17//5 2//5 9//5 15//5
f 7//1 4//1 10//1 11//1
f 20//5 9//5 1//5 19//5
f 1//5 18//5 19//5
f 3//5 10//5 13//5 14//5
f 43//6 3//6 14//6 46//6
f 45//7 15//7 20//7 47//7
f 48//3 49//3 21//3 17//3
f 1//4 6//4 16//4 18//4
f 48//7 17//7 15//7 45//7
f 15//5 9//5 20//5
f 8//1 29//1 32//1 11//1
f 32//1 29//1 24//1 31//1
f 38//3 23//3 26//3 42//3
f 50//4 24//4 29//4 51//4
f 30//2 22//2 27//2 33//2
f 23//2 30//2 33//2 26//2
f 38//8 36//8 30//8 23//8
f 28//1 32//1 31//1 25//1
f 41//8 40//8 22//8 30//8
f 22//8 40//8 39//8
f 24//8 35//8 34//8 31//8
f 50//9 53//9 35//9 24//9
f 52//10 54//10 41//10 36//10
f 55//3 38//3 42//3 56//3
f 22//4 39//4 37//4 27//4
f 55//10 52//10 36//10 38//10
f 36//8 41//8 30//8
f 16//4 37//4 51//4 44//4
f 25//11 31//11 52//11 55//11
f 25//3 55//3 56//3 28//3
f 31//12 34//12 54//12 52//12
f 39//10 40//10 53//10 50//10
f 39//4 50//4 51//4 37//4
f 4//13 48//13 45//13 10//13
f 4//3 7//3 49//3 48//3
f 10//14 45//14 47//14 13//14
f 18//7 43//7 46//7 19//7
f 18//4 16//4 44//4 43//4
f 27//4 37//4 16//4 6//4
f 67//4 66//4 59//4 64//4
f 89//3 83//3 62//3 68//3
f 73//15 77//15 61//15 58//15
f 99//16 100//16 64//16 59//16
f 107//16 85//16 64//16 100//16
f 65//3 68//3 62//3 57//3
f 58//3 61//3 68//3 65//3
f 73//17 58//17 65//17 71//17
f 63//4 60//4 66//4 67//4
f 76//17 65//17 57//17 75//17
f 57//17 74//17 75//17
f 59//17 66//17 69//17 70//17
f 99//18 59//18 70//18 102//18
f 101//19 71//19 76//19 103//19
f 104//15 105//15 77//15 73//15
f 57//16 62//16 72//16 74//16
f 104//19 73//19 71//19 101//19
f 71//17 65//17 76//17
f 64//4 85//4 88//4 67//4
f 88//4 85//4 80//4 87//4
f 94//15 79//15 82//15 98//15
f 106//16 80//16 85//16 107//16
f 86//3 78//3 83//3 89//3
f 79//3 86//3 89//3 82//3
f 94//20 92//20 86//20 79//20
f 84//4 88//4 87//4 81//4
f 97//20 96//20 78//20 86//20
f 78//20 96//20 95//20
f 80//20 91//20 90//20 87//20
f 106//21 109//21 91//21 80//21
f 108//22 110//22 97//22 92//22
f 111//15 94//15 98//15 112//15
f 78//16 95//16 93//16 83//16
f 111//22 108//22 92//22 94//22
f 92//20 97//20 86//20
f 72//16 93//16 107//16 100//16
f 81//23 87//23 108//23 111//23
f 81//15 111//15 112//15 84//15
f 87//24 90//24 110//24 108//24
f 95//22 96//22 109//22 106//22
f 95//16 106//16 107//16 93//16
f 60//25 104//25 101//25 66//25
f 60//15 63//15 105//15 104//15
f 66//26 101//26 103//26 69//26
f 74//19 99//19 102//19 75//19
f 74//16 72//16 100//16 99//16
f 83//16 93//16 72//16 62//16
f 123//27 122//27 115//27 120//27
f 145//28 139//28 118//28 124//28
f 129//3 133//3 117//3 114//3
f 155//4 156//4 120//4 115//4
f 163//4 141//4 120//4 156//4
f 121//28 124//28 118//28 113//28
f 114//28 117//28 124//28 121//28
f 129//29 114//29 121//29 127//29
f 119//27 116//27 122//27 123//27
f 132//29 121//29 113//29 131//29
f 113//29 130//29 131//29
f 115//29 122//29 125//29 126//29
f 155//30 115//30 126//30 158//30
f 157//31 127//31 132//31 159//31
f 160//3 161//3 133//3 129//3
f 113//4 118//4 128//4 130//4
f 160//31 129//31 127//31 157//31
f 127//29 121//29 132//29
f 120//27 141//27 144//27 123//27
f 144//27 141//27 136//27 143//27
f 150//3 135//3 138//3 154//3
f 162//4 136//4 141//4 163//4
f 142//28 134//28 139//28 145//28
f 135//28 142//28 145//28 138//28
f 150//32 148//32 142//32 135//32
f 140//27 144//27 143//27 137//27
f 153//32 152//32 134//32 142//32
f 134//32 152//32 151//32
f 136//32 147//32 146//32 143//32
f 162//33 165//33 147//33 136//33
f 164//34 166//34 153//34 148//34
f 167//3 150//3 154//3 168//3
f 134//4 151//4 149//4 139//4
f 167//34 164//34 148//34 150//34
f 148//32 153//32 142//32
f 128//4 149//4 163//4 156//4
f 137//35 143//35 164//35 167//35
f 137//3 167//3 168//3 140//3
f 143//36 146//36 166//36 164//36
f 151//34 152//34 165//34 162//34
f 151//4 162//4 163//4 149//4
f 116//37 160//37 157//37 122//37
f 116//3 119//3 161//3 160//3
f 122//38 157//38 159//38 125//38
f 130//31 155//31 158//31 131//31
f 130//4 128//4 156//4 155//4
f 139//4 149//4 128//4 118//4
f 179//4 178//4 171//4 176//4
f 201//3 195//3 174//3 180//3
f 185//15 189//15 173//15 170//15
f 211//16 212//16 176//16 171//16
f 219//16 197//16 176//16 212//16
f 177//3 180//3 174//3 169//3
f 170//3 173//3 180//3 177//3
f 185//17 170//17 177//17 183//17
f 175//4 172//4 178//4 179//4
f 188//17 177//17 169//17 187//17
f 169//17 186//17 187//17
f 171//17 178//17 181//17 182//17
f 211//39 171//39 182//39 214//39
f 213//40 183//40 188//40 215//40
f 216//15 217//15 189//15 185//15
f 169//16 174//16 184//16 186//16
f 216//40 185//40 183//40 213//40
f 183//17 177//17 188//17
f 176//4 197//4 200//4 179//4
f 200//4 197//4 192//4 199//4
f 206//15 191//15 194//15 210//15
f 218//16 192//16 197//16 219//16
f 198//3 190//3 195//3 201//3
f 191//3 198//3 201//3 194//3
f 206//20 204//20 198//20 191//20
f 196//4 200//4 199//4 193//4
f 209//20 208//20 190//20 198//20
f 190//20 208//20 207//20
f 192//20 203//20 202//20 199//20
f 218//41 221//41 203//41 192//41
f 220//42 222//42 209//42 204//42
f 223//15 206//15 210//15 224//15
f 190//16 207//16 205//16 195//16
f 223//42 220//42 204//42 206//42
f 204//20 209//20 198//20
f 184//16 205//16 219//16 212//16
f 193//43 199//43 220//43 223//43
f 193//15 223//15 224//15 196//15
f 199//44 202//44 222//44 220//44
f 207//42 208//42 221//42 218//42
f 207//16 218//16 219//16 205//16
f 172//45 216//45 213//45 178//45
f 172//15 175//15 217//15 216//15
f 178//46 213//46 215//46 181//46
f 186//40 211//40 214//40 187//40
f 186//16 184//16 212//16 211//16
f 195//16 205//16 184//16 174//16
usemtl Tape
f 26//2 33//2 12//2 5//2
f 47//7 20//7 19//7 46//7
f 11//1 32//1 28//1 7//1
f 56//3 42//3 21//3 49//3
f 42//3 26//3 5//3 21//3
f 7//3 28//3 56//3 49//3
f 54//10 53//10 40//10 41//10
f 34//47 35//47 53//47 54//47
f 13//48 47//48 46//48 14//48
f 82//3 89//3 68//3 61//3
f 103//19 76//19 75//19 102//19
f 67//4 88//4 84//4 63//4
f 112//15 98//15 77//15 105//15
f 98//15 82//15 61//15 77//15
f 63//15 84//15 112//15 105//15
f 110//22 109//22 96//22 97//22
f 90//49 91//49 109//49 110//49
f 69//50 103//50 102//50 70//50
f 138//28 145//28 124//28 117//28
f 159//31 132//31 131//31 158//31
f 123//27 144//27 140//27 119//27
f 168//3 154//3 133//3 161//3
f 154//3 138//3 117//3 133//3
f 119//3 140//3 168//3 161//3
f 166//34 165//34 152//34 153//34
f 146//51 147//51 165//51 166//51
f 125//52 159//52 158//52 126//52
f 194//3 201//3 180//3 173//3
f 215//40 188//40 187//40 214//40
f 179//4 200//4 196//4 175//4
f 224//15 210//15 189//15 217//15
f 210//15 194//15 173//15 189//15
f 175//15 196//15 224//15 217//15
f 222//42 221//42 208//42 209//42
f 202//53 203//53 221//53 222//53
f 181//54 215//54 214//54 182//54
