# Blender v2.79 (sub 0) OBJ File: 'CardboardBoxes_1.blend'
# www.blender.org
mtllib CardboardBoxes_1.mtl
o CardboardBoxes_1_Cube.056
v -0.487769 0.000000 0.363273
v -0.487769 0.509349 0.363273
v 0.487769 0.000000 0.363273
v 0.487769 0.509349 0.363273
v -0.487769 0.509349 0.062191
v -0.487769 0.000000 0.062191
v 0.487769 0.509349 0.062191
v 0.487769 0.000000 0.062191
v -0.487769 0.345762 0.363273
v 0.487769 0.345762 0.363273
v 0.487769 0.345762 0.062191
v -0.487769 0.345762 0.062191
v 0.396799 0.205618 0.363273
v 0.396799 0.076505 0.363273
v 0.145022 0.345762 0.363273
v 0.145022 0.000000 0.062191
v 0.145022 0.509349 0.363273
v 0.145022 0.000000 0.363273
v 0.145022 0.076505 0.363273
v 0.145022 0.205618 0.363273
v 0.145022 0.509349 0.062191
v -0.487769 0.000000 -0.363273
v -0.487769 0.509349 -0.363273
v 0.487769 0.000000 -0.363273
v 0.487769 0.509349 -0.363273
v -0.487769 0.509349 -0.062191
v -0.487769 0.000000 -0.062191
v 0.487769 0.509349 -0.062191
v 0.487769 0.000000 -0.062191
v -0.487769 0.345762 -0.363273
v 0.487769 0.345762 -0.363273
v 0.487769 0.345762 -0.062191
v -0.487769 0.345762 -0.062191
v 0.396799 0.205618 -0.363273
v 0.396799 0.076505 -0.363273
v 0.145022 0.345762 -0.363273
v 0.145022 0.000000 -0.062191
v 0.145022 0.509349 -0.363273
v 0.145022 0.000000 -0.363273
v 0.145022 0.076505 -0.363273
v 0.145022 0.205618 -0.363273
v 0.145022 0.509349 -0.062191
v 0.277243 0.000000 0.337418
v 0.277243 0.000000 0.057765
v 0.277243 0.345762 0.337418
v 0.277243 0.076505 0.337418
v 0.277243 0.205618 0.337418
v 0.277243 0.509349 0.337418
v 0.277243 0.509349 0.057765
v 0.277243 0.000000 -0.337418
v 0.277243 0.000000 -0.057765
v 0.277243 0.345762 -0.337418
v 0.277243 0.076505 -0.337418
v 0.277243 0.205618 -0.337418
v 0.277243 0.509349 -0.337418
v 0.277243 0.509349 -0.057765
vn 1.0000 0.0000 0.0000
vn -1.0000 0.0000 0.0000
vn 0.0000 1.0000 0.0000
vn 0.0000 -1.0000 0.0000
vn 0.0000 0.0000 1.0000
vn -0.1541 -0.0916 0.9838
vn 0.1919 0.0000 0.9814
vn 0.0000 0.0000 -1.0000
vn -0.1541 -0.0916 -0.9838
vn 0.1919 0.0000 -0.9814
vn -0.1219 0.0000 -0.9925
vn -0.1546 0.0502 -0.9867
vn -0.1219 0.0000 0.9925
vn -0.1546 0.0502 0.9867
vn -0.2114 0.0000 -0.9774
vn -0.2114 0.0000 0.9774
usemtl Cardboard
s off
f 11//1 10//1 3//1 8//1
f 33//2 27//2 6//2 12//2
f 17//3 21//3 5//3 2//3
f 43//4 44//4 8//4 3//4
f 51//4 29//4 8//4 44//4
f 9//2 12//2 6//2 1//2
f 2//2 5//2 12//2 9//2
f 17//5 2//5 9//5 15//5
f 7//1 4//1 10//1 11//1
f 20//5 9//5 1//5 19//5
f 1//5 18//5 19//5
f 3//5 10//5 13//5 14//5
f 43//6 3//6 14//6 46//6
f 45//7 15//7 20//7 47//7
f 48//3 49//3 21//3 17//3
f 1//4 6//4 16//4 18//4
f 48//7 17//7 15//7 45//7
f 15//5 9//5 20//5
f 8//1 29//1 32//1 11//1
f 32//1 29//1 24//1 31//1
f 38//3 23//3 26//3 42//3
f 50//4 24//4 29//4 51//4
f 30//2 22//2 27//2 33//2
f 23//2 30//2 33//2 26//2
f 38//8 36//8 30//8 23//8
f 28//1 32//1 31//1 25//1
f 41//8 40//8 22//8 30//8
f 22//8 40//8 39//8
f 24//8 35//8 34//8 31//8
f 50//9 53//9 35//9 24//9
f 52//10 54//10 41//10 36//10
f 55//3 38//3 42//3 56//3
f 22//4 39//4 37//4 27//4
f 55//10 52//10 36//10 38//10
f 36//8 41//8 30//8
f 16//4 37//4 51//4 44//4
f 25//11 31//11 52//11 55//11
f 25//3 55//3 56//3 28//3
f 31//12 34//12 54//12 52//12
f 39//10 40//10 53//10 50//10
f 39//4 50//4 51//4 37//4
f 4//13 48//13 45//13 10//13
f 4//3 7//3 49//3 48//3
f 10//14 45//14 47//14 13//14
f 18//7 43//7 46//7 19//7
f 18//4 16//4 44//4 43//4
f 27//4 37//4 16//4 6//4
usemtl Tape
f 26//2 33//2 12//2 5//2
f 47//7 20//7 19//7 46//7
f 11//1 32//1 28//1 7//1
f 56//3 42//3 21//3 49//3
f 42//3 26//3 5//3 21//3
f 7//3 28//3 56//3 49//3
f 54//10 53//10 40//10 41//10
f 34//15 35//15 53//15 54//15
f 13//16 47//16 46//16 14//16
