# Blender v2.79 (sub 0) OBJ File: 'CardboardBoxes_3.blend'
# www.blender.org
mtllib CardboardBoxes_3.mtl
o CardboardBoxes_3_Cube.063
v -0.487769 0.000000 0.363273
v -0.487769 0.509349 0.363273
v 0.487769 0.000000 0.363273
v 0.487769 0.509349 0.363273
v -0.487769 0.509349 0.062191
v -0.487769 0.000000 0.062191
v 0.487769 0.509349 0.062191
v 0.487769 0.000000 0.062191
v -0.487769 0.345762 0.363273
v 0.487769 0.345762 0.363273
v 0.487769 0.345762 0.062191
v -0.487769 0.345762 0.062191
v 0.396799 0.205618 0.363273
v 0.396799 0.076505 0.363273
v 0.145022 0.345762 0.363273
v 0.145022 0.000000 0.062191
v 0.145022 0.509349 0.363273
v 0.145022 0.000000 0.363273
v 0.145022 0.076505 0.363273
v 0.145022 0.205618 0.363273
v 0.145022 0.509349 0.062191
v -0.487769 0.000000 -0.363273
v -0.487769 0.509349 -0.363273
v 0.487769 0.000000 -0.363273
v 0.487769 0.509349 -0.363273
v -0.487769 0.509349 -0.062191
v -0.487769 0.000000 -0.062191
v 0.487769 0.509349 -0.062191
v 0.487769 0.000000 -0.062191
v -0.487769 0.345762 -0.363273
v 0.487769 0.345762 -0.363273
v 0.487769 0.345762 -0.062191
v -0.487769 0.345762 -0.062191
v 0.396799 0.205618 -0.363273
v 0.396799 0.076505 -0.363273
v 0.145022 0.345762 -0.363273
v 0.145022 0.000000 -0.062191
v 0.145022 0.509349 -0.363273
v 0.145022 0.000000 -0.363273
v 0.145022 0.076505 -0.363273
v 0.145022 0.205618 -0.363273
v 0.145022 0.509349 -0.062191
v 0.277243 0.000000 0.337418
v 0.277243 0.000000 0.057765
v 0.277243 0.345762 0.337418
v 0.277243 0.076505 0.337418
v 0.277243 0.205618 0.337418
v 0.277243 0.509349 0.337418
v 0.277243 0.509349 0.057765
v 0.277243 0.000000 -0.337418
v 0.277243 0.000000 -0.057765
v 0.277243 0.345762 -0.337418
v 0.277243 0.076505 -0.337418
v 0.277243 0.205618 -0.337418
v 0.277243 0.509349 -0.337418
v 0.277243 0.509349 -0.057765
v -0.570972 0.507882 -0.209469
v -0.570972 1.455210 -0.209469
v -0.037141 0.507882 0.607048
v -0.037141 1.455210 0.607048
v -0.318968 1.455210 -0.374226
v -0.318968 0.507882 -0.374226
v 0.214862 1.455210 0.442290
v 0.214862 0.507882 0.442290
v -0.570972 1.291622 -0.209469
v -0.037141 1.291622 0.607048
v 0.214862 1.291622 0.442290
v -0.318968 1.291622 -0.374226
v -0.086921 0.713501 0.530906
v -0.086921 0.584387 0.530906
v -0.224698 1.291622 0.320171
v 0.027305 0.507882 0.155414
v -0.224698 1.455210 0.320171
v -0.224698 0.507882 0.320171
v -0.224698 0.584387 0.320171
v -0.224698 0.713501 0.320171
v 0.027305 1.455210 0.155414
v 0.037141 0.507882 -0.607048
v 0.037141 1.455210 -0.607048
v 0.570972 0.507882 0.209469
v 0.570972 1.455210 0.209469
v -0.214862 1.455210 -0.442290
v -0.214862 0.507882 -0.442290
v 0.318969 1.455210 0.374226
v 0.318969 0.507882 0.374226
v 0.037141 1.291622 -0.607048
v 0.570972 1.291622 0.209469
v 0.318969 1.291622 0.374226
v -0.214862 1.291622 -0.442290
v 0.521192 0.713501 0.133328
v 0.521192 0.584387 0.133328
v 0.383415 1.291622 -0.077408
v 0.131412 0.507882 0.087350
v 0.383415 1.455210 -0.077408
v 0.383415 0.507882 -0.077408
v 0.383415 0.584387 -0.077408
v 0.383415 0.713501 -0.077408
v 0.131412 1.455210 0.087350
v -0.130704 0.507882 0.416691
v 0.103364 0.507882 0.263660
v -0.130704 1.291622 0.416691
v -0.130704 0.584387 0.416691
v -0.130704 0.713501 0.416691
v -0.130704 1.455210 0.416691
v 0.103364 1.455210 0.263660
v 0.434128 0.507882 0.047409
v 0.200061 0.507882 0.200440
v 0.434128 1.291622 0.047409
v 0.434128 0.584387 0.047409
v 0.434128 0.713501 0.047409
v 0.434128 1.455210 0.047409
v 0.200061 1.455210 0.200440
v -0.582645 2.254907 0.349354
v -0.073296 2.254907 0.349354
v -0.582645 1.452394 0.349354
v -0.073295 1.452395 0.349354
v -0.073296 2.254907 0.059808
v -0.582645 2.254907 0.059808
v -0.073295 1.452395 0.059808
v -0.582645 1.452394 0.059808
v -0.236884 2.254907 0.349354
v -0.236883 1.452395 0.349354
v -0.236883 1.452395 0.059808
v -0.236884 2.254907 0.059808
v -0.377026 1.543365 0.349354
v -0.506140 1.543365 0.349354
v -0.236883 1.795142 0.349354
v -0.582645 1.795142 0.059808
v -0.073296 1.795142 0.349354
v -0.582645 1.795142 0.349354
v -0.506140 1.795142 0.349354
v -0.377026 1.795142 0.349354
v -0.073296 1.795142 0.059808
v -0.582645 2.254907 -0.349354
v -0.073296 2.254907 -0.349354
v -0.582645 1.452394 -0.349354
v -0.073296 1.452395 -0.349354
v -0.073296 2.254907 -0.059808
v -0.582645 2.254907 -0.059808
v -0.073295 1.452395 -0.059808
v -0.582645 1.452394 -0.059808
v -0.236884 2.254907 -0.349354
v -0.236883 1.452395 -0.349354
v -0.236883 1.452395 -0.059808
v -0.236884 2.254907 -0.059808
v -0.377026 1.543365 -0.349354
v -0.506140 1.543365 -0.349354
v -0.236883 1.795142 -0.349354
v -0.582645 1.795142 -0.059808
v -0.073296 1.795142 -0.349354
v -0.582645 1.795142 -0.349354
v -0.506140 1.795142 -0.349354
v -0.377027 1.795142 -0.349354
v -0.073296 1.795142 -0.059808
v -0.582645 1.662921 0.324490
v -0.582645 1.662921 0.055551
v -0.236883 1.662921 0.324490
v -0.506140 1.662921 0.324490
v -0.377026 1.662921 0.324490
v -0.073295 1.662921 0.324490
v -0.073296 1.662921 0.055551
v -0.582645 1.662921 -0.324490
v -0.582645 1.662921 -0.055551
v -0.236883 1.662921 -0.324490
v -0.506140 1.662921 -0.324490
v -0.377027 1.662921 -0.324490
v -0.073296 1.662921 -0.324490
v -0.073296 1.662921 -0.055551
v -0.025993 1.963419 0.450744
v -0.025992 1.454069 0.450744
v -0.040976 1.963418 -0.351628
v -0.040976 1.454069 -0.351628
v 0.263503 1.454069 0.445338
v 0.263503 1.963419 0.445338
v 0.248520 1.454069 -0.357034
v 0.248520 1.963418 -0.357034
v -0.025993 1.617657 0.450744
v -0.040976 1.617657 -0.351628
v 0.248520 1.617657 -0.357034
v 0.263503 1.617657 0.445338
v -0.039278 1.757800 -0.260674
v -0.039278 1.886913 -0.260674
v -0.034577 1.617657 -0.008941
v 0.254919 1.963419 -0.014347
v -0.034577 1.454069 -0.008940
v -0.034577 1.963418 -0.008941
v -0.034577 1.886913 -0.008941
v -0.034577 1.757800 -0.008941
v 0.254919 1.454069 -0.014347
v 0.672594 1.963419 0.437698
v 0.672594 1.454069 0.437699
v 0.657611 1.963419 -0.364674
v 0.657611 1.454069 -0.364674
v 0.383099 1.454069 0.443105
v 0.383098 1.963419 0.443104
v 0.368115 1.454069 -0.359268
v 0.368115 1.963418 -0.359268
v 0.672594 1.617657 0.437698
v 0.657611 1.617657 -0.364674
v 0.368115 1.617657 -0.359268
v 0.383099 1.617657 0.443105
v 0.659309 1.757800 -0.273719
v 0.659309 1.886913 -0.273719
v 0.664010 1.617657 -0.021986
v 0.374514 1.963419 -0.016580
v 0.664010 1.454069 -0.021986
v 0.664010 1.963419 -0.021986
v 0.664010 1.886914 -0.021986
v 0.664010 1.757800 -0.021986
v 0.374514 1.454069 -0.016580
v -0.012185 1.963418 -0.141603
v 0.256706 1.963418 -0.146625
v -0.012185 1.617657 -0.141603
v -0.012185 1.886913 -0.141603
v -0.012185 1.757800 -0.141603
v -0.012185 1.454069 -0.141603
v 0.256707 1.454069 -0.146624
v 0.636681 1.963419 -0.153720
v 0.367790 1.963419 -0.148699
v 0.636681 1.617657 -0.153720
v 0.636681 1.886913 -0.153720
v 0.636681 1.757800 -0.153720
v 0.636681 1.454069 -0.153720
v 0.367790 1.454069 -0.148699
vn 1.0000 0.0000 0.0000
vn -1.0000 0.0000 0.0000
vn 0.0000 1.0000 0.0000
vn 0.0000 -1.0000 0.0000
vn 0.0000 0.0000 1.0000
vn -0.1541 -0.0916 0.9838
vn 0.1919 0.0000 0.9814
vn 0.0000 0.0000 -1.0000
vn -0.1541 -0.0916 -0.9838
vn 0.1919 0.0000 -0.9814
vn -0.1219 0.0000 -0.9925
vn -0.1546 0.0502 -0.9867
vn -0.1219 0.0000 0.9925
vn -0.1546 0.0502 0.9867
vn 0.5472 0.0000 0.8370
vn -0.5472 0.0000 -0.8370
vn -0.8370 0.0000 0.5472
vn -0.9078 -0.0916 0.4094
vn -0.7164 0.0000 0.6977
vn 0.8370 0.0000 -0.5472
vn 0.7391 -0.0916 -0.6673
vn 0.9265 0.0000 -0.3764
vn 0.7640 0.0000 -0.6452
vn 0.7422 0.0122 -0.6701
vn -0.8975 0.0000 0.4411
vn -0.9115 0.0122 0.4110
vn -0.0882 0.1484 0.9850
vn 0.0000 -0.1848 0.9828
vn -0.0882 0.1484 -0.9850
vn -0.0000 -0.1848 -0.9828
vn -0.0000 0.1173 -0.9931
vn 0.0483 0.1488 -0.9877
vn 0.0000 0.1173 0.9931
vn 0.0483 0.1488 0.9877
vn -0.0187 -0.0000 -0.9998
vn 0.0187 0.0000 0.9998
vn -0.9998 -0.0000 0.0187
vn -0.9820 0.0882 0.1668
vn -0.9861 -0.0000 -0.1664
vn 0.9998 -0.0000 -0.0187
vn 0.9876 0.0882 0.1300
vn 0.9792 0.0000 -0.2031
vn 0.9951 0.0000 0.0987
vn 0.9903 -0.0483 0.1303
vn -0.9907 -0.0000 0.1358
vn -0.9847 -0.0483 0.1672
vn -0.2114 0.0000 -0.9774
vn -0.2114 0.0000 0.9774
vn 0.7024 0.0000 -0.7118
vn -0.9337 0.0000 0.3579
vn -0.0000 0.2036 -0.9791
vn 0.0000 0.2036 0.9791
vn 0.9827 0.0000 0.1853
vn -0.9751 -0.0000 0.2219
usemtl Cardboard
s off
f 11//1 10//1 3//1 8//1
f 33//2 27//2 6//2 12//2
f 17//3 21//3 5//3 2//3
f 43//4 44//4 8//4 3//4
f 51//4 29//4 8//4 44//4
f 9//2 12//2 6//2 1//2
f 2//2 5//2 12//2 9//2
f 17//5 2//5 9//5 15//5
f 7//1 4//1 10//1 11//1
f 20//5 9//5 1//5 19//5
f 1//5 18//5 19//5
f 3//5 10//5 13//5 14//5
f 43//6 3//6 14//6 46//6
f 45//7 15//7 20//7 47//7
f 48//3 49//3 21//3 17//3
f 1//4 6//4 16//4 18//4
f 48//7 17//7 15//7 45//7
f 15//5 9//5 20//5
f 8//1 29//1 32//1 11//1
f 32//1 29//1 24//1 31//1
f 38//3 23//3 26//3 42//3
f 50//4 24//4 29//4 51//4
f 30//2 22//2 27//2 33//2
f 23//2 30//2 33//2 26//2
f 38//8 36//8 30//8 23//8
f 28//1 32//1 31//1 25//1
f 41//8 40//8 22//8 30//8
f 22//8 40//8 39//8
f 24//8 35//8 34//8 31//8
f 50//9 53//9 35//9 24//9
f 52//10 54//10 41//10 36//10
f 55//3 38//3 42//3 56//3
f 22//4 39//4 37//4 27//4
f 55//10 52//10 36//10 38//10
f 36//8 41//8 30//8
f 16//4 37//4 51//4 44//4
f 25//11 31//11 52//11 55//11
f 25//3 55//3 56//3 28//3
f 31//12 34//12 54//12 52//12
f 39//10 40//10 53//10 50//10
f 39//4 50//4 51//4 37//4
f 4//13 48//13 45//13 10//13
f 4//3 7//3 49//3 48//3
f 10//14 45//14 47//14 13//14
f 18//7 43//7 46//7 19//7
f 18//4 16//4 44//4 43//4
f 27//4 37//4 16//4 6//4
f 67//15 66//15 59//15 64//15
f 89//16 83//16 62//16 68//16
f 73//3 77//3 61//3 58//3
f 99//4 100//4 64//4 59//4
f 107//4 85//4 64//4 100//4
f 65//16 68//16 62//16 57//16
f 58//16 61//16 68//16 65//16
f 73//17 58//17 65//17 71//17
f 63//15 60//15 66//15 67//15
f 76//17 65//17 57//17 75//17
f 57//17 74//17 75//17
f 59//17 66//17 69//17 70//17
f 99//18 59//18 70//18 102//18
f 101//19 71//19 76//19 103//19
f 104//3 105//3 77//3 73//3
f 57//4 62//4 72//4 74//4
f 104//19 73//19 71//19 101//19
f 71//17 65//17 76//17
f 64//15 85//15 88//15 67//15
f 88//15 85//15 80//15 87//15
f 94//3 79//3 82//3 98//3
f 106//4 80//4 85//4 107//4
f 86//16 78//16 83//16 89//16
f 79//16 86//16 89//16 82//16
f 94//20 92//20 86//20 79//20
f 84//15 88//15 87//15 81//15
f 97//20 96//20 78//20 86//20
f 78//20 96//20 95//20
f 80//20 91//20 90//20 87//20
f 106//21 109//21 91//21 80//21
f 108//22 110//22 97//22 92//22
f 111//3 94//3 98//3 112//3
f 78//4 95//4 93//4 83//4
f 111//22 108//22 92//22 94//22
f 92//20 97//20 86//20
f 72//4 93//4 107//4 100//4
f 81//23 87//23 108//23 111//23
f 81//3 111//3 112//3 84//3
f 87//24 90//24 110//24 108//24
f 95//22 96//22 109//22 106//22
f 95//4 106//4 107//4 93//4
f 60//25 104//25 101//25 66//25
f 60//3 63//3 105//3 104//3
f 66//26 101//26 103//26 69//26
f 74//19 99//19 102//19 75//19
f 74//4 72//4 100//4 99//4
f 83//4 93//4 72//4 62//4
f 123//4 122//4 115//4 120//4
f 145//3 139//3 118//3 124//3
f 129//1 133//1 117//1 114//1
f 155//2 156//2 120//2 115//2
f 163//2 141//2 120//2 156//2
f 121//3 124//3 118//3 113//3
f 114//3 117//3 124//3 121//3
f 129//5 114//5 121//5 127//5
f 119//4 116//4 122//4 123//4
f 132//5 121//5 113//5 131//5
f 113//5 130//5 131//5
f 115//5 122//5 125//5 126//5
f 155//27 115//27 126//27 158//27
f 157//28 127//28 132//28 159//28
f 160//1 161//1 133//1 129//1
f 113//2 118//2 128//2 130//2
f 160//28 129//28 127//28 157//28
f 127//5 121//5 132//5
f 120//4 141//4 144//4 123//4
f 144//4 141//4 136//4 143//4
f 150//1 135//1 138//1 154//1
f 162//2 136//2 141//2 163//2
f 142//3 134//3 139//3 145//3
f 135//3 142//3 145//3 138//3
f 150//8 148//8 142//8 135//8
f 140//4 144//4 143//4 137//4
f 153//8 152//8 134//8 142//8
f 134//8 152//8 151//8
f 136//8 147//8 146//8 143//8
f 162//29 165//29 147//29 136//29
f 164//30 166//30 153//30 148//30
f 167//1 150//1 154//1 168//1
f 134//2 151//2 149//2 139//2
f 167//30 164//30 148//30 150//30
f 148//8 153//8 142//8
f 128//2 149//2 163//2 156//2
f 137//31 143//31 164//31 167//31
f 137//1 167//1 168//1 140//1
f 143//32 146//32 166//32 164//32
f 151//30 152//30 165//30 162//30
f 151//2 162//2 163//2 149//2
f 116//33 160//33 157//33 122//33
f 116//1 119//1 161//1 160//1
f 122//34 157//34 159//34 125//34
f 130//28 155//28 158//28 131//28
f 130//2 128//2 156//2 155//2
f 139//2 149//2 128//2 118//2
f 179//35 178//35 171//35 176//35
f 201//36 195//36 174//36 180//36
f 185//4 189//4 173//4 170//4
f 211//3 212//3 176//3 171//3
f 219//3 197//3 176//3 212//3
f 177//36 180//36 174//36 169//36
f 170//36 173//36 180//36 177//36
f 185//37 170//37 177//37 183//37
f 175//35 172//35 178//35 179//35
f 188//37 177//37 169//37 187//37
f 169//37 186//37 187//37
f 171//37 178//37 181//37 182//37
f 211//38 171//38 182//38 214//38
f 213//39 183//39 188//39 215//39
f 216//4 217//4 189//4 185//4
f 169//3 174//3 184//3 186//3
f 216//39 185//39 183//39 213//39
f 183//37 177//37 188//37
f 176//35 197//35 200//35 179//35
f 200//35 197//35 192//35 199//35
f 206//4 191//4 194//4 210//4
f 218//3 192//3 197//3 219//3
f 198//36 190//36 195//36 201//36
f 191//36 198//36 201//36 194//36
f 206//40 204//40 198//40 191//40
f 196//35 200//35 199//35 193//35
f 209//40 208//40 190//40 198//40
f 190//40 208//40 207//40
f 192//40 203//40 202//40 199//40
f 218//41 221//41 203//41 192//41
f 220//42 222//42 209//42 204//42
f 223//4 206//4 210//4 224//4
f 190//3 207//3 205//3 195//3
f 223//42 220//42 204//42 206//42
f 204//40 209//40 198//40
f 184//3 205//3 219//3 212//3
f 193//43 199//43 220//43 223//43
f 193//4 223//4 224//4 196//4
f 199//44 202//44 222//44 220//44
f 207//42 208//42 221//42 218//42
f 207//3 218//3 219//3 205//3
f 172//45 216//45 213//45 178//45
f 172//4 175//4 217//4 216//4
f 178//46 213//46 215//46 181//46
f 186//39 211//39 214//39 187//39
f 186//3 184//3 212//3 211//3
f 195//3 205//3 184//3 174//3
usemtl Tape
f 26//2 33//2 12//2 5//2
f 47//7 20//7 19//7 46//7
f 11//1 32//1 28//1 7//1
f 56//3 42//3 21//3 49//3
f 42//3 26//3 5//3 21//3
f 7//3 28//3 56//3 49//3
f 54//10 53//10 40//10 41//10
f 34//47 35//47 53//47 54//47
f 13//48 47//48 46//48 14//48
f 82//16 89//16 68//16 61//16
f 103//19 76//19 75//19 102//19
f 67//15 88//15 84//15 63//15
f 112//3 98//3 77//3 105//3
f 98//3 82//3 61//3 77//3
f 63//3 84//3 112//3 105//3
f 110//22 109//22 96//22 97//22
f 90//49 91//49 109//49 110//49
f 69//50 103//50 102//50 70//50
f 138//3 145//3 124//3 117//3
f 159//28 132//28 131//28 158//28
f 123//4 144//4 140//4 119//4
f 168//1 154//1 133//1 161//1
f 154//1 138//1 117//1 133//1
f 119//1 140//1 168//1 161//1
f 166//30 165//30 152//30 153//30
f 146//51 147//51 165//51 166//51
f 125//52 159//52 158//52 126//52
f 194//36 201//36 180//36 173//36
f 215//39 188//39 187//39 214//39
f 179//35 200//35 196//35 175//35
f 224//4 210//4 189//4 217//4
f 210//4 194//4 173//4 189//4
f 175//4 196//4 224//4 217//4
f 222//42 221//42 208//42 209//42
f 202//53 203//53 221//53 222//53
f 181//54 215//54 214//54 182//54
