# Blender v2.79 (sub 0) OBJ File: 'Debris_Pile.blend'
# www.blender.org
mtllib Debris_Pile.mtl
o Debris_Pile_Cube.319
v -0.672852 0.091221 -0.264750
v -0.817473 0.090277 -0.196983
v -0.673025 0.059029 -0.265997
v -0.817646 0.058085 -0.198231
v -0.370266 0.086353 0.461399
v -0.356662 0.071369 0.454258
v -0.170626 0.077686 0.920131
v -0.180603 0.063026 0.894787
v -0.194207 0.078010 0.901927
v -0.351315 0.076404 0.974091
v -0.527374 0.084747 0.533562
v -0.180798 0.045958 0.893870
v -0.356857 0.054301 0.453342
v -0.527742 0.052555 0.531832
v -0.351683 0.044212 0.972361
v -0.712854 0.093537 0.069458
v -0.541969 0.095283 -0.009033
v -0.163557 0.067506 1.443894
v 0.007328 0.069253 1.365402
v -0.542337 0.063091 -0.010763
v -0.713222 0.061345 0.067728
v 0.006960 0.037060 1.363673
v -0.163925 0.035314 1.442164
v -1.012260 0.097653 -0.686568
v -0.841621 0.099399 -0.765668
v -0.841795 0.067207 -0.766916
v -1.012433 0.065461 -0.687815
v -0.670600 0.013392 -0.286464
v -0.049574 0.013392 -0.459043
v 0.162157 0.013392 -0.517882
v -0.330481 0.013392 -0.380981
v -0.118749 0.013392 -0.439820
v -0.611387 0.013392 -0.302919
v -0.399655 0.013392 -0.361758
v 0.138656 0.049398 -0.511352
v -0.025753 0.049398 -0.465663
v -0.142090 0.049398 -0.433334
v -0.306500 0.049398 -0.387645
v -0.422836 0.049398 -0.355316
v -0.587246 0.049398 -0.309628
v -0.694261 0.049398 -0.279889
v -0.867246 0.049398 -0.231817
v 0.201281 0.013392 -0.528755
v 0.452136 0.013391 -0.598466
v 0.240405 0.013392 -0.539627
v 0.733043 0.013391 -0.676528
v 0.521311 0.013391 -0.617689
v 0.263906 0.049398 -0.546158
v 0.428315 0.049398 -0.591846
v 0.544652 0.049398 -0.624175
v 0.709062 0.049398 -0.669864
v -0.300070 0.013392 1.046885
v 0.320955 0.013392 0.874306
v 0.532687 0.013392 0.815467
v 0.040049 0.013392 0.952368
v 0.251781 0.013392 0.893529
v -0.240858 0.013392 1.030430
v -0.029126 0.013392 0.971591
v 0.509186 0.049398 0.821997
v 0.344777 0.049398 0.867686
v 0.228440 0.049398 0.900015
v 0.064030 0.049398 0.945704
v -0.052307 0.049398 0.978033
v -0.216716 0.049398 1.023722
v -0.323732 0.049398 1.053460
v -0.496716 0.049398 1.101532
v 0.571811 0.013392 0.804595
v 0.822666 0.013392 0.734883
v 0.610934 0.013392 0.793722
v 1.103573 0.013392 0.656821
v 0.891841 0.013392 0.715660
v 0.634436 0.049398 0.787192
v 0.798845 0.049398 0.741503
v 0.915182 0.049398 0.709174
v 1.079592 0.049398 0.663485
v 0.404274 0.074706 0.151832
v 0.591833 0.067581 0.150797
v 0.593053 0.099758 0.151019
v 0.405493 0.106882 0.152055
v 0.391162 0.059873 -1.161710
v 0.578722 0.052759 -1.163122
v 0.397609 0.061609 -0.313894
v 0.585169 0.054496 -0.315305
v 0.579942 0.084945 -1.163197
v 0.392382 0.092059 -1.161786
v 0.586389 0.086681 -0.315380
v 0.398829 0.093795 -0.313969
v 0.357504 0.069349 -1.133672
v 0.169876 0.072946 -1.129924
v 0.170493 0.105149 -1.129924
v 0.358122 0.101552 -1.133672
v 0.389990 0.068726 0.122468
v 0.202362 0.072323 0.125136
v 0.350637 0.069480 -0.291642
v 0.186806 0.072621 -0.282250
v 0.202979 0.104526 0.125136
v 0.390607 0.100929 0.122468
v 0.187423 0.104824 -0.282250
v 0.351254 0.101683 -0.291642
v 0.393366 0.060466 -0.871914
v 0.395432 0.061023 -0.600175
v 0.582992 0.053909 -0.601587
v 0.580926 0.053353 -0.873325
v 0.396652 0.093209 -0.600250
v 0.394586 0.092652 -0.871989
v 0.567025 0.086112 -0.873287
v 0.581573 0.070417 -0.873365
v 0.582031 0.085508 -0.888533
v 0.583639 0.070973 -0.601626
v 0.569091 0.086669 -0.601548
v 0.368807 0.069132 -0.567741
v 0.363131 0.069241 -0.851930
v 0.175503 0.072838 -0.848181
v 0.181179 0.072729 -0.563992
v 0.363748 0.101444 -0.851930
v 0.369424 0.101335 -0.567741
v 0.196816 0.104644 -0.564292
v 0.181508 0.089909 -0.563992
v 0.175832 0.090018 -0.848181
v 0.191141 0.104753 -0.848481
v 0.175821 0.105046 -0.863204
v 0.400981 0.070210 -0.150061
v 0.560189 0.063613 -0.150578
v 0.402201 0.102387 -0.149839
v 0.561408 0.095790 -0.150355
v 0.614507 0.065252 -1.181103
v 0.802121 0.059789 -1.179857
v 0.803059 0.091969 -1.180547
v 0.615445 0.097432 -1.181794
v 0.600610 0.069433 0.132509
v 0.788224 0.063987 0.134131
v 0.607632 0.058881 -0.715240
v 0.795246 0.053435 -0.713618
v 0.789161 0.096180 0.133738
v 0.601548 0.101626 0.132116
v 0.796184 0.085627 -0.714011
v 0.608570 0.091073 -0.715633
v 0.603010 0.065826 -0.157265
v 0.605261 0.062444 -0.428982
v 0.792875 0.056998 -0.427359
v 0.790624 0.060380 -0.155643
v 0.606199 0.094637 -0.429374
v 0.603948 0.098019 -0.157658
v 0.776436 0.093012 -0.156166
v 0.791121 0.077448 -0.155851
v 0.791437 0.092761 -0.140905
v 0.793372 0.074066 -0.427568
v 0.778687 0.089630 -0.427883
v 0.611043 0.065124 -0.879178
v 0.770302 0.059933 -0.878475
v 0.611981 0.097304 -0.879869
v 0.771240 0.092113 -0.879165
v 0.171761 0.108246 -0.148111
v 0.172287 0.104622 -0.052721
v 0.172174 0.120987 -0.052101
v 0.171647 0.124610 -0.147491
v 0.839810 0.100702 -0.154780
v 0.840528 0.097084 -0.059389
v 0.408622 0.101585 -0.151501
v 0.409340 0.097967 -0.056111
v 0.840567 0.113453 -0.058769
v 0.839849 0.117071 -0.154159
v 0.409379 0.114336 -0.055490
v 0.408661 0.117954 -0.150881
v 0.692424 0.101003 -0.153659
v 0.554221 0.101286 -0.152608
v 0.554939 0.097669 -0.057218
v 0.693142 0.097386 -0.058269
v 0.554259 0.117656 -0.151988
v 0.692462 0.117373 -0.153039
v 0.693122 0.114047 -0.065339
v 0.693162 0.106064 -0.057940
v 0.700876 0.113739 -0.057707
v 0.554959 0.106347 -0.056889
v 0.554919 0.114330 -0.064288
v 0.325299 0.105959 -0.149786
v 0.325562 0.102604 -0.068815
v 0.325186 0.122324 -0.149166
v 0.325449 0.118969 -0.068195
v 0.171761 0.108246 -0.920970
v 0.172287 0.104622 -0.825580
v 0.172174 0.120987 -0.824960
v 0.171647 0.124610 -0.920350
v 0.839810 0.100702 -0.927639
v 0.840528 0.097084 -0.832248
v 0.408622 0.101585 -0.924360
v 0.409340 0.097967 -0.828970
v 0.840567 0.113453 -0.831628
v 0.839849 0.117071 -0.927018
v 0.409379 0.114336 -0.828349
v 0.408661 0.117954 -0.923739
v 0.692424 0.101004 -0.926518
v 0.554221 0.101287 -0.925467
v 0.554939 0.097669 -0.830077
v 0.693142 0.097386 -0.831127
v 0.554259 0.117656 -0.924846
v 0.692462 0.117373 -0.925897
v 0.693122 0.114047 -0.838198
v 0.693162 0.106064 -0.830799
v 0.700876 0.113739 -0.830565
v 0.554959 0.106347 -0.829748
v 0.554919 0.114330 -0.837147
v 0.325299 0.105959 -0.922645
v 0.325562 0.102604 -0.841674
v 0.325186 0.122324 -0.922025
v 0.325449 0.118969 -0.841054
v 0.295997 0.140911 -0.318293
v 0.291167 0.144657 -0.505890
v 0.290153 0.176843 -0.505220
v 0.294984 0.173097 -0.317624
v -0.919585 0.101532 -0.278343
v -0.923370 0.105310 -0.465946
v -0.519030 0.115103 -0.320155
v -0.529170 0.118185 -0.483922
v -0.924384 0.137496 -0.465277
v -0.920599 0.133718 -0.277674
v -0.530184 0.150371 -0.483254
v -0.520043 0.147289 -0.319486
v -0.251683 0.123238 -0.303627
v 0.023341 0.132113 -0.310992
v 0.018510 0.135858 -0.498588
v -0.256514 0.126983 -0.491224
v 0.022327 0.164299 -0.310323
v -0.252697 0.155424 -0.302959
v -0.257141 0.158870 -0.475538
v -0.257055 0.144154 -0.490867
v 0.017969 0.153029 -0.498231
v 0.017883 0.167744 -0.482902
v 0.032034 0.168513 -0.498309
v 0.192600 0.088566 -0.725190
v 0.181489 0.088566 0.083141
v 0.186514 0.088566 -0.282489
v 0.182726 0.088566 -0.006898
v 0.191540 0.088566 -0.648119
v 0.187752 0.088566 -0.372527
v 0.183144 0.123677 -0.037279
v 0.186085 0.123677 -0.251275
v 0.188167 0.123677 -0.402700
v 0.191108 0.123677 -0.616697
v -0.482059 0.088567 -0.734464
v -0.488593 0.123677 -0.259101
v -0.493183 0.088567 0.074799
v -0.488170 0.088567 -0.289899
v -0.491958 0.088567 -0.014307
v -0.483157 0.088567 -0.654597
v -0.486945 0.088567 -0.379005
v -0.491534 0.123677 -0.045105
v -0.483580 0.123677 -0.623799
v -0.486522 0.123677 -0.409803
v 0.193023 0.123677 -0.755988
v -0.473452 0.123677 -1.159213
v 0.043132 0.123677 -0.809167
v -0.481636 0.123677 -0.765262
v -0.017301 0.088566 -0.728076
v -0.027183 0.088566 -0.009203
v -0.022161 0.088566 -0.374543
v -0.026763 0.123677 -0.039713
v -0.021744 0.123677 -0.404910
v -0.023822 0.123677 -0.253710
v -0.028416 0.088566 0.080546
v -0.023395 0.088566 -0.284794
v -0.018373 0.088566 -0.650134
v -0.018802 0.123677 -0.618906
v -0.016878 0.123677 -0.758873
v -0.013783 0.123677 -0.984031
vn -0.0013 0.9998 0.0194
vn 0.4172 -0.0535 0.9072
vn -0.9307 -0.0091 0.3656
vn -0.0010 0.9999 0.0161
vn -0.9286 -0.0093 0.3709
vn 0.9286 0.0093 -0.3709
vn 0.0013 -0.9998 -0.0194
vn 0.6640 0.7119 -0.2288
vn -0.4206 0.0374 -0.9065
vn 0.4519 0.6835 -0.5733
vn 0.8900 0.0136 -0.4558
vn 0.6553 0.7133 -0.2484
vn -0.0124 0.9999 -0.0084
vn 0.0124 -0.9999 0.0084
vn -0.9292 -0.0093 0.3695
vn 0.9477 0.0073 -0.3192
vn 0.0010 -0.9999 -0.0161
vn -0.0392 -0.9979 0.0512
vn 0.0392 0.9979 -0.0511
vn -0.9992 0.0378 0.0103
vn 0.0053 -0.0071 1.0000
vn 0.9877 -0.0378 0.1517
vn 0.0379 0.9993 -0.0023
vn -0.0379 -0.9993 0.0023
vn -0.0076 -0.0021 -1.0000
vn 0.9993 -0.0379 -0.0075
vn 0.9977 -0.0191 0.0657
vn -0.0192 -0.9998 -0.0000
vn -0.0200 0.0004 -0.9998
vn 0.0192 0.9998 0.0000
vn 0.9953 -0.0191 -0.0946
vn 0.0142 -0.0003 0.9999
vn -0.9991 0.0192 0.0382
vn -0.9993 0.0379 0.0075
vn 0.6032 0.5562 0.5716
vn 0.7326 0.6792 -0.0443
vn 0.7334 0.6798 -0.0070
vn -0.9996 0.0192 0.0200
vn 0.9996 -0.0192 -0.0200
vn -0.6935 0.7200 -0.0236
vn -0.5545 0.5881 0.5888
vn -0.6933 0.7205 0.0141
vn 0.9939 -0.0370 -0.1039
vn -0.9991 0.0378 0.0186
vn 0.0395 0.9991 -0.0163
vn -0.0395 -0.9991 0.0163
vn -0.0304 -0.9989 -0.0367
vn 0.0304 0.9989 0.0366
vn -0.9995 0.0289 -0.0115
vn 0.0060 -0.0216 -0.9997
vn 0.9881 -0.0313 -0.1506
vn 0.0291 0.9995 -0.0122
vn -0.0291 -0.9995 0.0122
vn -0.0083 0.0124 0.9999
vn 0.9995 -0.0290 0.0086
vn -0.9995 0.0290 -0.0086
vn 0.5987 0.5531 -0.5793
vn 0.7266 0.6862 0.0348
vn 0.7274 0.6862 -0.0025
vn 0.9941 -0.0267 0.1050
vn -0.9994 0.0288 -0.0197
vn 0.0307 0.9995 0.0018
vn -0.0307 -0.9995 -0.0018
vn -0.0512 -0.9979 -0.0392
vn 0.0511 0.9979 0.0392
vn -0.0103 0.0378 -0.9992
vn -1.0000 -0.0071 0.0053
vn -0.1517 -0.0378 0.9877
vn 0.0023 0.9993 0.0379
vn -0.0023 -0.9993 -0.0379
vn 1.0000 -0.0020 -0.0076
vn 0.0075 -0.0379 0.9993
vn -0.0075 0.0379 -0.9993
vn -0.5716 0.5562 0.6032
vn 0.0443 0.6793 0.7326
vn 0.0070 0.6798 0.7334
vn 0.1039 -0.0370 0.9939
vn -0.0186 0.0378 -0.9991
vn 0.0163 0.9991 0.0395
vn -0.0163 -0.9991 -0.0395
vn 0.0443 0.6792 0.7326
vn -0.0610 -0.0227 0.9979
vn 0.0317 -0.9993 -0.0208
vn 0.9992 0.0320 -0.0251
vn -0.0317 0.9993 0.0208
vn 0.1044 -0.0174 0.9944
vn -0.9993 -0.0319 0.0195
vn -0.0462 0.0193 -0.9987
vn -0.0274 0.0199 -0.9994
vn 0.0274 -0.0199 0.9994
vn -0.0029 0.7214 -0.6925
vn -0.6226 0.5628 -0.5437
vn -0.0418 0.7207 -0.6920
vn 0.7960 0.5635 -0.2212
vn -0.0000 1.0000 -0.0000
vn -0.7908 0.5712 0.2198
vn 0.7994 0.5582 -0.2221
vn -0.7943 0.5661 0.2207
vn 0.7977 0.5609 -0.2217
vn 0.8011 0.5556 -0.2226
vn 0.7926 0.5686 -0.2202
vn -0.7994 0.5582 0.2221
vn 0.7943 0.5661 -0.2207
vn -0.7977 0.5609 0.2217
vn -0.7926 0.5686 0.2202
vn -0.0085 0.6552 0.7554
vn -0.0076 0.6530 0.7573
vn 0.0085 0.6612 -0.7502
vn 0.0075 0.6620 -0.7494
vn -0.0103 0.6595 0.7517
vn 0.0075 0.6658 -0.7461
vn 0.0084 0.6637 -0.7480
vn -0.0076 0.6568 0.7540
vn -0.0085 0.6577 0.7532
usemtl Wood
s off
f 18//1 19//1 7//1 9//1 10//1
f 23//2 22//2 19//2 18//2
f 21//3 16//3 2//3 4//3
f 24//4 2//4 1//4 25//4
f 21//5 14//5 11//5 16//5
f 13//6 20//6 17//6 6//6
f 13//7 12//7 15//7 14//7
f 6//8 17//8 5//8
f 15//5 23//5 18//5 10//5
f 27//9 24//9 25//9 26//9
f 9//10 7//10 8//10
f 22//6 12//6 8//6 7//6 19//6
f 23//7 15//7 12//7 22//7
f 11//1 5//1 17//1 16//1
f 6//6 8//6 12//6 13//6
f 3//11 1//11 17//11 20//11
f 9//12 8//12 6//12 5//12
f 2//13 16//13 17//13 1//13
f 14//7 21//7 20//7 13//7
f 4//14 3//14 20//14 21//14
f 4//15 2//15 24//15 27//15
f 26//16 25//16 1//16 3//16
f 10//5 11//5 14//5 15//5
f 11//1 10//1 9//1 5//1
f 27//17 26//17 3//17 4//17
f 122//18 82//18 83//18 123//18
f 124//19 125//19 86//19 87//19
f 122//20 76//20 79//20 124//20
f 76//21 77//21 78//21 79//21
f 123//22 83//22 86//22 125//22
f 104//23 87//23 86//23 110//23
f 101//24 102//24 83//24 82//24
f 80//25 85//25 84//25 81//25
f 102//26 109//26 86//26 83//26
f 94//27 111//27 116//27 99//27
f 111//28 94//28 95//28 114//28
f 88//29 89//29 90//29 91//29
f 91//30 90//30 121//30 120//30 115//30
f 92//28 93//28 95//28 94//28
f 97//30 99//30 98//30 96//30
f 94//31 99//31 97//31 92//31
f 92//32 97//32 96//32 93//32
f 93//33 96//33 98//33 95//33
f 109//26 102//26 103//26 107//26
f 100//34 105//34 85//34 80//34
f 82//34 87//34 104//34 101//34
f 81//26 84//26 108//26 107//26 103//26
f 105//34 100//34 101//34 104//34
f 85//23 105//23 106//23 108//23 84//23
f 102//24 101//24 100//24 103//24
f 80//24 81//24 103//24 100//24
f 106//35 107//35 108//35
f 109//36 110//36 86//36
f 106//37 110//37 109//37 107//37
f 104//23 110//23 106//23 105//23
f 89//38 113//38 119//38 121//38 90//38
f 114//38 95//38 98//38 118//38
f 112//39 88//39 91//39 115//39
f 117//30 116//30 115//30 120//30
f 112//39 115//39 116//39 111//39
f 116//30 117//30 98//30 99//30
f 111//28 114//28 113//28 112//28
f 88//28 112//28 113//28 89//28
f 117//40 118//40 98//40
f 119//41 120//41 121//41
f 117//42 120//42 119//42 118//42
f 114//38 118//38 119//38 113//38
f 77//43 123//43 125//43 78//43
f 82//44 122//44 124//44 87//44
f 79//45 78//45 125//45 124//45
f 76//46 122//46 123//46 77//46
f 149//47 150//47 133//47 132//47
f 151//48 137//48 136//48 152//48
f 149//49 151//49 129//49 126//49
f 126//50 129//50 128//50 127//50
f 150//51 152//51 136//51 133//51
f 142//52 148//52 136//52 137//52
f 139//53 132//53 133//53 140//53
f 130//54 131//54 134//54 135//54
f 140//55 133//55 136//55 147//55
f 147//55 145//55 141//55 140//55
f 138//56 130//56 135//56 143//56
f 132//56 139//56 142//56 137//56
f 131//55 141//55 145//55 146//55 134//55
f 143//56 142//56 139//56 138//56
f 135//52 134//52 146//52 144//52 143//52
f 140//53 141//53 138//53 139//53
f 130//53 138//53 141//53 131//53
f 144//57 146//57 145//57
f 147//58 136//58 148//58
f 144//59 145//59 147//59 148//59
f 142//52 143//52 144//52 148//52
f 127//60 128//60 152//60 150//60
f 132//61 137//61 151//61 149//61
f 129//62 151//62 152//62 128//62
f 126//63 127//63 150//63 149//63
f 176//64 159//64 160//64 177//64
f 178//65 179//65 163//65 164//65
f 176//66 153//66 156//66 178//66
f 153//67 154//67 155//67 156//67
f 177//68 160//68 163//68 179//68
f 169//69 164//69 163//69 175//69
f 166//70 167//70 160//70 159//70
f 157//71 162//71 161//71 158//71
f 167//72 174//72 163//72 160//72
f 174//72 167//72 168//72 172//72
f 165//73 170//73 162//73 157//73
f 159//73 164//73 169//73 166//73
f 158//72 161//72 173//72 172//72 168//72
f 170//73 165//73 166//73 169//73
f 162//69 170//69 171//69 173//69 161//69
f 167//70 166//70 165//70 168//70
f 157//70 158//70 168//70 165//70
f 171//74 172//74 173//74
f 174//75 175//75 163//75
f 171//76 175//76 174//76 172//76
f 169//69 175//69 171//69 170//69
f 154//77 177//77 179//77 155//77
f 159//78 176//78 178//78 164//78
f 156//79 155//79 179//79 178//79
f 153//80 176//80 177//80 154//80
f 203//64 186//64 187//64 204//64
f 205//65 206//65 190//65 191//65
f 203//66 180//66 183//66 205//66
f 180//67 181//67 182//67 183//67
f 204//68 187//68 190//68 206//68
f 196//69 191//69 190//69 202//69
f 193//70 194//70 187//70 186//70
f 184//71 189//71 188//71 185//71
f 194//72 201//72 190//72 187//72
f 201//72 194//72 195//72 199//72
f 192//73 197//73 189//73 184//73
f 186//73 191//73 196//73 193//73
f 185//72 188//72 200//72 199//72 195//72
f 197//73 192//73 193//73 196//73
f 189//69 197//69 198//69 200//69 188//69
f 194//70 193//70 192//70 195//70
f 184//70 185//70 195//70 192//70
f 198//74 199//74 200//74
f 201//81 202//81 190//81
f 198//76 202//76 201//76 199//76
f 196//69 202//69 198//69 197//69
f 181//77 204//77 206//77 182//77
f 186//78 203//78 205//78 191//78
f 183//79 182//79 206//79 205//79
f 180//80 203//80 204//80 181//80
f 213//82 219//82 224//82 218//82
f 219//83 213//83 214//83 222//83
f 207//84 208//84 209//84 210//84
f 210//85 209//85 229//85 228//85 223//85
f 211//83 212//83 214//83 213//83
f 216//85 218//85 217//85 215//85
f 213//86 218//86 216//86 211//86
f 211//87 216//87 215//87 212//87
f 212//88 215//88 217//88 214//88
f 208//89 221//89 227//89 229//89 209//89
f 222//89 214//89 217//89 226//89
f 220//90 207//90 210//90 223//90
f 225//85 224//85 223//85 228//85
f 220//90 223//90 224//90 219//90
f 224//85 225//85 217//85 218//85
f 219//83 222//83 221//83 220//83
f 207//83 220//83 221//83 208//83
f 225//91 226//91 217//91
f 227//92 228//92 229//92
f 225//93 228//93 227//93 226//93
f 222//89 226//89 227//89 221//89
usemtl Grey
f 52//94 28//94 41//94 65//94
f 34//95 58//95 55//95 31//95
f 30//95 54//95 67//95 43//95
f 57//96 64//96 40//96 33//96
f 37//97 61//97 56//97 32//97
f 64//95 63//95 39//95 40//95
f 53//98 60//98 36//98 29//98
f 35//99 59//99 54//99 30//99
f 39//100 63//100 58//100 34//100
f 62//95 61//95 37//95 38//95
f 60//95 59//95 35//95 36//95
f 28//95 52//95 57//95 33//95
f 32//95 56//95 53//95 29//95
f 65//95 41//95 42//95 66//95
f 70//101 46//101 51//101 75//101
f 43//95 67//95 69//95 45//95
f 47//102 71//102 74//102 50//102
f 68//103 44//103 49//103 73//103
f 45//104 69//104 72//104 48//104
f 75//95 51//95 50//95 74//95
f 73//95 49//95 48//95 72//95
f 44//95 68//95 71//95 47//95
f 55//105 62//105 38//105 31//105
usemtl Red
f 261//95 232//95 235//95 256//95
f 260//95 231//95 233//95 255//95
f 255//106 233//106 236//106 257//106
f 262//95 234//95 230//95 254//95
f 256//107 235//107 238//107 258//107
f 261//108 243//108 241//108 259//108
f 263//95 248//95 249//95 258//95
f 259//95 241//95 247//95 257//95
f 262//109 245//109 248//109 263//109
f 254//110 264//110 253//110 240//110
f 264//95 265//95 251//95 253//95
f 250//95 252//95 264//95
f 230//110 250//110 264//110 254//110
f 234//111 262//111 263//111 239//111
f 237//95 259//95 257//95 236//95
f 239//95 263//95 258//95 238//95
f 232//112 261//112 259//112 237//112
f 246//113 256//113 258//113 249//113
f 245//95 262//95 254//95 240//95
f 244//114 255//114 257//114 247//114
f 242//95 260//95 255//95 244//95
f 243//95 261//95 256//95 246//95
f 264//95 252//95 265//95
