# Blender v2.79 (sub 0) OBJ File: 'Key.blend'
# www.blender.org
mtllib Key.mtl
o Key_Cube.268
v 0.100325 0.042605 0.042443
v -0.042605 0.100325 0.042443
v 0.042605 0.100325 -0.042443
v -0.100325 0.042605 -0.042443
v -0.100325 -0.042605 0.042443
v 0.043026 -0.100325 0.042443
v 0.100325 -0.042605 -0.042443
v -0.042183 -0.100325 -0.042443
v 0.029598 0.069698 0.000000
v 0.069698 -0.029598 0.000000
v -0.029306 -0.069698 0.000000
v -0.069698 0.029598 0.000000
v -0.055611 0.130952 0.000000
v 0.056161 -0.130952 0.000000
v 0.130952 0.055611 0.000000
v -0.130952 0.055611 0.000000
v 0.130952 -0.055611 -0.000000
v 0.069698 0.029598 0.000000
v 0.100325 0.042605 -0.042443
v 0.100325 -0.042605 0.042443
v -0.130952 -0.055611 0.000000
v -0.069698 -0.029598 0.000000
v -0.100325 0.042605 0.042443
v -0.100325 -0.042605 -0.042443
v 0.055611 0.130952 -0.000000
v -0.029598 0.069698 0.000000
v -0.042605 0.100325 -0.042443
v 0.042605 0.100325 0.042443
v -0.055061 -0.130952 -0.000000
v 0.029891 -0.069698 0.000000
v 0.043026 -0.100325 -0.042443
v -0.042183 -0.100325 0.042443
v 0.398564 -0.001376 -0.041410
v 0.398564 -0.043653 0.000000
v 0.398564 -0.001376 0.041410
v 0.398564 0.040901 0.000000
v 0.413997 -0.001376 0.000000
v 0.241831 0.040901 0.000000
v 0.241831 -0.001376 0.041410
v 0.241831 -0.043653 0.000000
v 0.241831 -0.001376 -0.041410
v 0.351852 -0.127676 -0.031849
v 0.319336 -0.127676 0.000000
v 0.351852 -0.127676 0.031849
v 0.384368 -0.127676 0.000000
v 0.351852 -0.141295 0.000000
v 0.384368 -0.053326 0.000000
v 0.351852 -0.053326 0.031849
v 0.319336 -0.053326 0.000000
v 0.351852 -0.053326 -0.031849
v 0.263388 -0.105388 -0.031849
v 0.230872 -0.105388 0.000000
v 0.263388 -0.105388 0.031849
v 0.295904 -0.105388 0.000000
v 0.263388 -0.119007 0.000000
v 0.295904 -0.042182 0.000000
v 0.263388 -0.042182 0.031849
v 0.230872 -0.042182 0.000000
v 0.263388 -0.042182 -0.031849
v -0.123295 0.052359 0.031832
v -0.123295 -0.052359 -0.031832
v -0.051842 -0.123295 -0.031832
v 0.052359 0.123295 -0.031832
v 0.123295 -0.052359 -0.031832
v 0.123295 -0.052359 0.031832
v 0.052877 -0.123295 0.031832
v -0.052359 0.123295 0.031832
v -0.077355 0.032850 0.031832
v -0.077355 -0.032850 -0.031832
v -0.032525 -0.077355 -0.031832
v 0.032850 0.077355 -0.031832
v 0.077355 -0.032850 -0.031832
v 0.077355 -0.032850 0.031832
v 0.033175 -0.077355 0.031832
v -0.032850 0.077355 0.031832
v -0.078337 0.078337 0.039246
v 0.078337 0.078337 0.039246
v 0.078442 -0.078337 0.039246
v 0.078337 0.078337 -0.039246
v -0.078337 0.078337 -0.039246
v -0.078232 -0.078337 -0.039246
v -0.078232 -0.078337 0.039246
v 0.078442 -0.078337 -0.039246
v -0.054422 0.054422 0.000000
v 0.054422 0.054422 0.000000
v 0.054495 -0.054422 0.000000
v -0.054349 -0.054422 0.000000
v -0.102114 -0.102252 0.000000
v -0.102252 0.102252 0.000000
v 0.102389 -0.102252 -0.000000
v 0.102252 0.102252 -0.000000
v 0.123295 0.052359 -0.031832
v 0.123295 0.052359 0.031832
v 0.077355 0.032850 -0.031832
v 0.077355 0.032850 0.031832
v 0.140818 0.000000 -0.000000
v 0.074948 0.000000 0.000000
v 0.107883 0.000000 -0.045640
v 0.107883 0.000000 0.045640
v -0.123295 -0.052359 0.031832
v -0.123295 0.052359 -0.031832
v -0.077355 -0.032850 0.031832
v -0.077355 0.032850 -0.031832
v -0.140818 0.000000 0.000000
v -0.074948 0.000000 0.000000
v -0.107883 0.000000 0.045640
v -0.107883 0.000000 -0.045640
v -0.052359 0.123295 -0.031832
v 0.052359 0.123295 0.031832
v -0.032850 0.077355 -0.031832
v 0.032850 0.077355 0.031832
v 0.000000 0.140818 -0.000000
v 0.000000 0.074948 0.000000
v 0.000000 0.107883 -0.045640
v 0.000000 0.107883 0.045640
v 0.052877 -0.123295 -0.031832
v -0.051842 -0.123295 0.031832
v 0.033175 -0.077355 -0.031832
v -0.032525 -0.077355 0.031832
v 0.000825 -0.140818 -0.000000
v 0.000439 -0.074948 0.000000
v 0.000632 -0.107883 -0.045640
v 0.000632 -0.107883 0.045640
v 0.100532 -0.043653 0.000000
v 0.100532 0.040901 0.000000
v 0.100532 -0.001376 -0.041410
v 0.100532 -0.001376 0.041410
v 0.410139 -0.033083 0.000000
v 0.410139 0.030332 0.000000
v 0.410139 -0.001376 -0.031057
v 0.410139 -0.001376 0.031057
v 0.241831 0.030332 -0.031057
v 0.398564 -0.033083 -0.031057
v 0.241831 -0.033083 0.031057
v 0.241831 0.030332 0.031057
v 0.398564 0.030332 -0.031057
v 0.241831 -0.033083 -0.031057
v 0.398564 -0.033083 0.031057
v 0.398564 0.030332 0.031057
v 0.351664 0.040901 0.000000
v 0.351664 -0.001376 0.041410
v 0.351664 -0.043653 0.000000
v 0.351664 -0.001376 -0.041410
v 0.327465 -0.137890 0.000000
v 0.376239 -0.137890 0.000000
v 0.351852 -0.137890 -0.023887
v 0.351852 -0.137890 0.023887
v 0.327465 -0.127676 -0.023887
v 0.376239 -0.053326 -0.023887
v 0.327465 -0.053326 0.023887
v 0.376239 -0.053326 0.023887
v 0.384368 0.007405 0.000000
v 0.351852 0.007405 0.031849
v 0.319336 0.007405 0.000000
v 0.351852 0.007405 -0.031849
v 0.327465 -0.053326 -0.023887
v 0.376239 -0.127676 -0.023887
v 0.327465 -0.127676 0.023887
v 0.376239 -0.127676 0.023887
v 0.384368 -0.102279 0.000000
v 0.351852 -0.102279 0.031849
v 0.319336 -0.102279 0.000000
v 0.351852 -0.102279 -0.031849
v 0.239001 -0.115602 0.000000
v 0.287775 -0.115602 0.000000
v 0.263388 -0.115602 -0.023887
v 0.263388 -0.115602 0.023887
v 0.239001 -0.105388 -0.023887
v 0.287775 -0.042182 -0.023887
v 0.239001 -0.042182 0.023887
v 0.287775 -0.042182 0.023887
v 0.295904 0.007405 0.000000
v 0.263388 0.007405 0.031849
v 0.230872 0.007405 0.000000
v 0.263388 0.007405 -0.031849
v 0.239001 -0.042182 -0.023887
v 0.287775 -0.105388 -0.023887
v 0.239001 -0.105388 0.023887
v 0.287775 -0.105388 0.023887
v 0.295904 -0.082777 0.000000
v 0.263388 -0.082777 0.031849
v 0.230872 -0.082777 0.000000
v 0.263388 -0.082777 -0.031849
v -0.096144 -0.096273 0.029434
v -0.096273 0.096273 0.029434
v -0.096144 -0.096273 -0.029434
v -0.096273 0.096273 -0.029434
v 0.096402 -0.096273 0.029434
v 0.096273 0.096273 0.029434
v 0.096402 -0.096273 -0.029434
v 0.096273 0.096273 -0.029434
v -0.060320 -0.060401 0.029434
v -0.060401 0.060401 0.029434
v -0.060401 0.060401 -0.029434
v -0.060320 -0.060401 -0.029434
v 0.060482 -0.060401 -0.029434
v 0.060401 0.060401 -0.029434
v 0.060401 0.060401 0.029434
v 0.060482 -0.060401 0.029434
v 0.132584 0.000000 -0.034230
v 0.132584 -0.000000 0.034230
v 0.083182 0.000000 -0.034230
v 0.083182 0.000000 0.034230
v -0.132584 0.000000 0.034230
v -0.132584 -0.000000 -0.034230
v -0.083182 0.000000 0.034230
v -0.083182 0.000000 -0.034230
v 0.000000 0.132584 -0.034230
v 0.000000 0.132584 0.034230
v 0.000000 0.083182 -0.034230
v 0.000000 0.083182 0.034230
v 0.000777 -0.132584 -0.034230
v 0.000777 -0.132584 0.034230
v 0.000487 -0.083182 -0.034230
v 0.000487 -0.083182 0.034230
v 0.100532 -0.033083 -0.031057
v 0.100532 -0.033083 0.031057
v 0.100532 0.030332 -0.031057
v 0.100532 0.030332 0.031057
v 0.407138 -0.024863 -0.023005
v 0.407138 -0.024863 0.023005
v 0.407138 0.022112 -0.023005
v 0.407138 0.022112 0.023005
v 0.351664 0.030332 -0.031057
v 0.351664 -0.033083 -0.031057
v 0.351664 -0.033083 0.031057
v 0.351664 0.030332 0.031057
v 0.333788 -0.135242 -0.017694
v 0.333788 -0.135242 0.017694
v 0.369916 -0.135242 -0.017694
v 0.369916 -0.135242 0.017694
v 0.376239 0.007405 -0.023887
v 0.327465 0.007405 -0.023887
v 0.327465 0.007405 0.023887
v 0.376239 0.007405 0.023887
v 0.327465 -0.102279 -0.023887
v 0.376239 -0.102279 -0.023887
v 0.327465 -0.102279 0.023887
v 0.376239 -0.102279 0.023887
v 0.245324 -0.112954 -0.017694
v 0.245324 -0.112954 0.017694
v 0.281453 -0.112954 -0.017694
v 0.281453 -0.112954 0.017694
v 0.287775 0.007405 -0.023887
v 0.239001 0.007405 -0.023887
v 0.239001 0.007405 0.023887
v 0.287775 0.007405 0.023887
v 0.239001 -0.082777 -0.023887
v 0.287775 -0.082777 -0.023887
v 0.239001 -0.082777 0.023887
v 0.287775 -0.082777 0.023887
vn 0.0201 0.0741 0.9970
vn 0.0335 -0.0000 0.9994
vn 0.3982 -0.0000 0.9173
vn 0.3440 0.1878 0.9200
vn 0.2704 0.2704 0.9240
vn 0.0479 0.0479 0.9977
vn -0.2560 -0.2560 0.9322
vn -0.3919 -0.0745 0.9170
vn -0.4182 0.0000 0.9084
vn -0.0741 0.0201 0.9970
vn 0.0000 0.0335 0.9994
vn 0.0000 0.3982 0.9173
vn -0.1878 0.3440 0.9200
vn -0.2704 0.2704 0.9240
vn -0.0479 0.0479 0.9977
vn 0.2560 -0.2560 0.9322
vn 0.0745 -0.3919 0.9170
vn 0.0000 -0.4182 0.9084
vn 0.0741 0.0201 -0.9970
vn -0.0000 0.0335 -0.9994
vn -0.0000 0.3982 -0.9173
vn 0.1878 0.3440 -0.9200
vn 0.2704 0.2704 -0.9240
vn 0.0479 0.0479 -0.9977
vn -0.2560 -0.2560 -0.9322
vn -0.0745 -0.3919 -0.9170
vn -0.0000 -0.4182 -0.9084
vn -0.0201 0.0741 -0.9970
vn -0.0335 -0.0000 -0.9994
vn -0.3982 -0.0000 -0.9173
vn -0.3440 0.1878 -0.9200
vn -0.2704 0.2704 -0.9240
vn -0.0479 0.0479 -0.9977
vn 0.2560 -0.2560 -0.9322
vn 0.3919 -0.0745 -0.9170
vn 0.4182 0.0000 -0.9084
vn -0.0203 -0.0742 0.9970
vn -0.0335 0.0000 0.9994
vn -0.3982 0.0000 0.9173
vn -0.3439 -0.1881 0.9200
vn -0.2697 -0.2715 0.9239
vn -0.0477 -0.0484 0.9977
vn 0.2553 0.2569 0.9321
vn 0.3918 0.0750 0.9170
vn 0.4182 0.0000 0.9084
vn 0.0745 -0.0201 0.9970
vn 0.0001 -0.0335 0.9994
vn 0.0009 -0.3982 0.9173
vn 0.1888 -0.3429 0.9202
vn 0.2712 -0.2694 0.9241
vn 0.0481 -0.0473 0.9977
vn -0.2566 0.2550 0.9323
vn -0.0748 0.3915 0.9171
vn -0.0000 0.4182 0.9084
vn 0.0199 -0.0740 -0.9971
vn 0.0335 0.0000 -0.9994
vn 0.3982 0.0000 -0.9173
vn 0.3441 -0.1875 -0.9200
vn 0.2712 -0.2694 -0.9241
vn 0.0481 -0.0473 -0.9977
vn -0.2566 0.2550 -0.9323
vn -0.3921 0.0740 -0.9169
vn -0.4182 0.0000 -0.9084
vn -0.0737 -0.0201 -0.9971
vn 0.0001 -0.0335 -0.9994
vn 0.0009 -0.3982 -0.9173
vn -0.1869 -0.3451 -0.9198
vn -0.2697 -0.2715 -0.9239
vn -0.0477 -0.0484 -0.9977
vn 0.2553 0.2569 -0.9321
vn 0.0741 0.3923 -0.9168
vn -0.0000 0.4182 -0.9084
vn -0.3449 -0.9387 0.0000
vn -0.3278 -0.9104 0.2525
vn 0.0000 -0.9704 0.2414
vn 0.0000 -1.0000 0.0000
vn -0.0000 -0.9704 -0.2414
vn -0.3278 -0.9104 -0.2525
vn -0.6815 -0.6815 -0.2666
vn -0.7071 -0.7071 0.0000
vn -0.6815 -0.6815 0.2666
vn -0.9390 0.3438 0.0000
vn -0.9107 0.3269 0.2525
vn -0.9704 -0.0000 0.2414
vn -1.0000 0.0000 0.0000
vn -0.9704 0.0000 -0.2414
vn -0.9107 0.3269 -0.2525
vn -0.6835 0.6795 -0.2667
vn -0.7093 0.7049 -0.0000
vn -0.6835 0.6795 0.2667
vn 0.3427 0.9394 -0.0000
vn 0.3258 0.9112 0.2521
vn -0.0009 0.9704 0.2414
vn -0.0007 1.0000 -0.0000
vn -0.0009 0.9704 -0.2414
vn 0.3258 0.9112 -0.2521
vn 0.6796 0.6835 -0.2664
vn 0.7049 0.7093 -0.0000
vn 0.6796 0.6835 0.2664
vn 0.9387 -0.3449 0.0000
vn 0.9104 -0.3278 0.2525
vn 0.9704 0.0000 0.2414
vn 1.0000 0.0000 0.0000
vn 0.9704 -0.0000 -0.2414
vn 0.9104 -0.3278 -0.2525
vn 0.6815 -0.6815 -0.2666
vn 0.7071 -0.7071 -0.0000
vn 0.6815 -0.6815 0.2666
vn -0.3616 0.9323 0.0000
vn -0.3431 0.9047 -0.2527
vn -0.6817 0.6817 -0.2658
vn -0.7071 0.7071 0.0000
vn -0.6817 0.6817 0.2658
vn -0.3431 0.9047 0.2527
vn 0.0000 0.9702 0.2421
vn 0.0000 1.0000 0.0000
vn 0.0000 0.9702 -0.2421
vn 0.3639 -0.9314 -0.0000
vn 0.3451 -0.9038 -0.2531
vn 0.6838 -0.6795 -0.2659
vn 0.7092 -0.7050 -0.0000
vn 0.6838 -0.6795 0.2659
vn 0.3451 -0.9038 0.2531
vn 0.0007 -0.9702 0.2421
vn 0.0010 -1.0000 0.0000
vn 0.0007 -0.9702 -0.2421
vn 0.9323 0.3616 0.0000
vn 0.9047 0.3431 -0.2527
vn 0.6817 0.6817 -0.2658
vn 0.7071 0.7071 -0.0000
vn 0.6817 0.6817 0.2658
vn 0.9047 0.3431 0.2527
vn 0.9702 -0.0000 0.2421
vn 0.9702 -0.0000 -0.2421
vn -0.9323 0.3616 0.0000
vn -0.9047 0.3431 0.2527
vn -0.9047 0.3431 -0.2527
vn -0.9702 -0.0000 -0.2421
vn -0.9702 -0.0000 0.2421
vn 0.9327 -0.3606 -0.0000
vn 0.9050 -0.3421 -0.2527
vn 0.9050 -0.3421 0.2527
vn -0.9387 -0.3449 0.0000
vn -0.9104 -0.3278 0.2525
vn -0.9104 -0.3278 -0.2525
vn 0.0201 0.0741 -0.9970
vn 0.3440 0.1878 -0.9200
vn -0.3919 -0.0745 -0.9170
vn 0.0199 -0.0740 0.9971
vn 0.3441 -0.1875 0.9200
vn -0.3921 0.0740 0.9169
vn -0.9320 -0.3625 0.0000
vn -0.7050 -0.7092 0.0000
vn -0.6796 -0.6838 0.2656
vn -0.9043 -0.3440 0.2527
vn -0.9043 -0.3440 -0.2527
vn -0.6796 -0.6838 -0.2656
vn 0.9383 0.3459 0.0000
vn 0.9101 0.3287 0.2525
vn 0.9101 0.3287 -0.2525
vn -0.0201 0.0741 0.9970
vn -0.3440 0.1878 0.9200
vn 0.3919 -0.0745 0.9170
vn -0.0203 -0.0742 -0.9970
vn -0.3439 -0.1881 -0.9200
vn 0.3918 0.0750 -0.9170
vn 0.3616 0.9323 -0.0000
vn 0.3431 0.9047 -0.2527
vn 0.3431 0.9047 0.2527
vn 0.3449 -0.9387 -0.0000
vn 0.3278 -0.9104 0.2525
vn 0.3278 -0.9104 -0.2525
vn -0.0741 0.0201 -0.9970
vn -0.1878 0.3440 -0.9200
vn 0.0745 -0.3919 -0.9170
vn 0.0741 0.0201 0.9970
vn 0.1878 0.3440 0.9200
vn -0.0745 -0.3919 0.9170
vn -0.3593 -0.9332 0.0000
vn -0.3410 -0.9055 -0.2524
vn -0.3410 -0.9055 0.2524
vn -0.3470 0.9379 -0.0000
vn -0.3298 0.9096 0.2528
vn -0.3298 0.9096 -0.2528
vn 0.0745 -0.0201 -0.9970
vn 0.1888 -0.3429 -0.9202
vn -0.0748 0.3915 -0.9171
vn -0.0737 -0.0201 0.9971
vn -0.1869 -0.3451 0.9198
vn 0.0741 0.3923 0.9168
vn 0.3737 0.0000 -0.9276
vn 0.0000 -0.0000 -1.0000
vn 0.0000 0.3104 -0.9506
vn 0.3642 0.6549 -0.6622
vn 0.8544 0.3632 -0.3715
vn 0.8819 0.0000 -0.4715
vn 0.8544 -0.3632 -0.3715
vn 0.3642 -0.6549 -0.6622
vn 0.0000 -0.3104 -0.9506
vn 0.3769 -0.9262 0.0000
vn 0.3642 -0.6549 0.6622
vn 0.0000 -0.9467 0.3222
vn 0.0000 -0.9467 -0.3222
vn 0.8842 -0.4671 0.0000
vn 0.8544 -0.3632 0.3715
vn 0.3737 0.0000 0.9276
vn 0.3642 0.6549 0.6622
vn -0.0000 0.3104 0.9506
vn -0.0000 -0.0000 1.0000
vn 0.0000 -0.3104 0.9506
vn 0.8819 -0.0000 0.4715
vn 0.8544 0.3632 0.3715
vn 0.3769 0.9262 0.0000
vn 0.0000 0.9467 0.3222
vn 0.8842 0.4671 -0.0000
vn 0.0000 0.9467 -0.3222
vn -0.0000 -0.3453 -0.9385
vn 0.3104 -0.0000 -0.9506
vn 0.6619 -0.3377 -0.6692
vn 0.3953 -0.8249 -0.4040
vn -0.0000 -0.8603 -0.5097
vn -0.3953 -0.8249 -0.4040
vn -0.6619 -0.3377 -0.6692
vn -0.3104 0.0000 -0.9506
vn -0.9372 -0.3488 0.0000
vn -0.6619 -0.3377 0.6692
vn -0.9467 -0.0000 0.3222
vn -0.9467 0.0000 -0.3222
vn -0.5053 -0.8629 0.0000
vn -0.3953 -0.8249 0.4040
vn -0.0000 -0.3453 0.9385
vn 0.6619 -0.3377 0.6692
vn 0.3104 -0.0000 0.9506
vn -0.3104 0.0000 0.9506
vn -0.0000 -0.8603 0.5097
vn 0.3953 -0.8249 0.4040
vn 0.9372 -0.3488 0.0000
vn 0.9467 -0.0000 0.3222
vn 0.5053 -0.8629 0.0000
vn 0.9467 -0.0000 -0.3222
usemtl Grey
s 1
f 1//1 99//2 201//3 93//4
f 1//1 93//4 189//5 77//6
f 1//1 77//6 198//7 95//8
f 1//1 95//8 203//9 99//2
f 2//10 115//11 209//12 67//13
f 2//10 67//13 185//14 76//15
f 2//10 76//15 193//16 75//17
f 2//10 75//17 211//18 115//11
f 3//19 114//20 208//21 63//22
f 3//19 63//22 191//23 79//24
f 3//19 79//24 197//25 71//26
f 3//19 71//26 210//27 114//20
f 4//28 107//29 205//30 101//31
f 4//28 101//31 187//32 80//33
f 4//28 80//33 194//34 103//35
f 4//28 103//35 207//36 107//29
f 5//37 106//38 204//39 100//40
f 5//37 100//40 184//41 82//42
f 5//37 82//42 192//43 102//44
f 5//37 102//44 206//45 106//38
f 6//46 123//47 213//48 66//49
f 6//46 66//49 188//50 78//51
f 6//46 78//51 199//52 74//53
f 6//46 74//53 215//54 123//47
f 7//55 98//56 200//57 64//58
f 7//55 64//58 190//59 83//60
f 7//55 83//60 196//61 72//62
f 7//55 72//62 202//63 98//56
f 8//64 122//65 212//66 62//67
f 8//64 62//67 186//68 81//69
f 8//64 81//69 195//70 70//71
f 8//64 70//71 214//72 122//65
f 9//73 111//74 211//75 113//76
f 9//73 113//76 210//77 71//78
f 9//73 71//78 197//79 85//80
f 9//73 85//80 198//81 111//74
f 10//82 73//83 203//84 97//85
f 10//82 97//85 202//86 72//87
f 10//82 72//87 196//88 86//89
f 10//82 86//89 199//90 73//83
f 11//91 119//92 215//93 121//94
f 11//91 121//94 214//95 70//96
f 11//91 70//96 195//97 87//98
f 11//91 87//98 192//99 119//92
f 12//100 68//101 206//102 105//103
f 12//100 105//103 207//104 103//105
f 12//100 103//105 194//106 84//107
f 12//100 84//107 193//108 68//101
f 13//109 108//110 187//111 89//112
f 13//109 89//112 185//113 67//114
f 13//109 67//114 209//115 112//116
f 13//109 112//116 208//117 108//110
f 14//118 116//119 190//120 90//121
f 14//118 90//121 188//122 66//123
f 14//118 66//123 213//124 120//125
f 14//118 120//125 212//126 116//119
f 15//127 92//128 191//129 91//130
f 15//127 91//130 189//131 93//132
f 15//127 93//132 201//133 96//103
f 15//127 96//103 200//134 92//128
f 16//135 60//136 185//113 89//112
f 16//135 89//112 187//111 101//137
f 16//135 101//137 205//138 104//85
f 16//135 104//85 204//139 60//136
f 17//140 90//121 190//120 64//141
f 17//140 64//141 200//134 96//103
f 17//140 96//103 201//133 65//142
f 17//140 65//142 188//122 90//121
f 18//143 95//144 198//81 85//80
f 18//143 85//80 197//79 94//145
f 18//143 94//145 202//86 97//85
f 18//143 97//85 203//84 95//144
f 19//146 79//24 191//23 92//147
f 19//146 92//147 200//57 98//56
f 19//146 98//56 202//63 94//148
f 19//146 94//148 197//25 79//24
f 20//149 78//51 188//50 65//150
f 20//149 65//150 201//3 99//2
f 20//149 99//2 203//9 73//151
f 20//149 73//151 199//52 78//51
f 21//152 88//153 184//154 100//155
f 21//152 100//155 204//139 104//85
f 21//152 104//85 205//138 61//156
f 21//152 61//156 186//157 88//153
f 22//158 102//159 192//99 87//98
f 22//158 87//98 195//97 69//160
f 22//158 69//160 207//104 105//103
f 22//158 105//103 206//102 102//159
f 23//161 76//15 185//14 60//162
f 23//161 60//162 204//39 106//38
f 23//161 106//38 206//45 68//163
f 23//161 68//163 193//16 76//15
f 24//164 81//69 186//68 61//165
f 24//164 61//165 205//30 107//29
f 24//164 107//29 207//36 69//166
f 24//164 69//166 195//70 81//69
f 25//167 91//130 191//129 63//168
f 25//167 63//168 208//117 112//116
f 25//167 112//116 209//115 109//169
f 25//167 109//169 189//131 91//130
f 26//170 75//171 193//108 84//107
f 26//170 84//107 194//106 110//172
f 26//170 110//172 210//77 113//76
f 26//170 113//76 211//75 75//171
f 27//173 80//33 187//32 108//174
f 27//173 108//174 208//21 114//20
f 27//173 114//20 210//27 110//175
f 27//173 110//175 194//34 80//33
f 28//176 77//6 189//5 109//177
f 28//176 109//177 209//12 115//11
f 28//176 115//11 211//18 111//178
f 28//176 111//178 198//7 77//6
f 29//179 88//153 186//157 62//180
f 29//179 62//180 212//126 120//125
f 29//179 120//125 213//124 117//181
f 29//179 117//181 184//154 88//153
f 30//182 74//183 199//90 86//89
f 30//182 86//89 196//88 118//184
f 30//182 118//184 214//95 121//94
f 30//182 121//94 215//93 74//183
f 31//185 83//60 190//59 116//186
f 31//185 116//186 212//66 122//65
f 31//185 122//65 214//72 118//187
f 31//185 118//187 196//61 83//60
f 32//188 82//42 184//41 117//189
f 32//188 117//189 213//48 123//47
f 32//188 123//47 215//54 119//190
f 32//188 119//190 192//43 82//42
f 33//191 143//192 224//193 136//194
f 33//191 136//194 222//195 130//196
f 33//191 130//196 220//197 133//198
f 33//191 133//198 225//199 143//192
f 34//200 138//201 226//202 142//76
f 34//200 142//76 225//203 133//198
f 34//200 133//198 220//197 128//204
f 34//200 128//204 221//205 138//201
f 35//206 139//207 227//208 141//209
f 35//206 141//209 226//210 138//201
f 35//206 138//201 221//205 131//211
f 35//206 131//211 223//212 139//207
f 36//213 140//116 227//214 139//207
f 36//213 139//207 223//212 129//215
f 36//213 129//215 222//195 136//194
f 36//213 136//194 224//216 140//116
f 37//103 131//211 221//205 128//204
f 37//103 128//204 220//197 130//196
f 37//103 130//196 222//195 129//215
f 37//103 129//215 223//212 131//211
f 38//116 125//116 219//214 135//214
f 38//116 135//214 227//214 140//116
f 38//116 140//116 224//216 132//216
f 38//116 132//216 218//216 125//116
f 39//209 135//208 219//208 127//209
f 39//209 127//209 217//210 134//210
f 39//209 134//210 226//210 141//209
f 39//209 141//209 227//208 135//208
f 40//76 134//202 217//202 124//76
f 40//76 124//76 216//203 137//203
f 40//76 137//203 225//203 142//76
f 40//76 142//76 226//202 134//202
f 41//192 126//192 218//193 132//193
f 41//192 132//193 224//193 143//192
f 41//192 143//192 225//199 137//199
f 41//192 137//199 216//199 126//192
f 42//217 163//192 237//218 157//219
f 42//217 157//219 230//220 146//221
f 42//217 146//221 228//222 148//223
f 42//217 148//223 236//224 163//192
f 43//225 158//226 238//227 162//85
f 43//225 162//85 236//228 148//223
f 43//225 148//223 228//222 144//229
f 43//225 144//229 229//230 158//226
f 44//231 159//232 239//233 161//209
f 44//231 161//209 238//234 158//226
f 44//231 158//226 229//230 147//235
f 44//231 147//235 231//236 159//232
f 45//237 160//103 239//238 159//232
f 45//237 159//232 231//236 145//239
f 45//237 145//239 230//220 157//219
f 45//237 157//219 237//240 160//103
f 46//76 147//235 229//230 144//229
f 46//76 144//229 228//222 146//221
f 46//76 146//221 230//220 145//239
f 46//76 145//239 231//236 147//235
f 47//103 152//103 235//238 151//238
f 47//103 151//238 239//238 160//103
f 47//103 160//103 237//240 149//240
f 47//103 149//240 232//240 152//103
f 48//209 151//233 235//233 153//209
f 48//209 153//209 234//234 150//234
f 48//209 150//234 238//234 161//209
f 48//209 161//209 239//233 151//233
f 49//85 150//227 234//227 154//85
f 49//85 154//85 233//228 156//228
f 49//85 156//228 236//228 162//85
f 49//85 162//85 238//227 150//227
f 50//192 155//192 232//218 149//218
f 50//192 149//218 237//218 163//192
f 50//192 163//192 236//224 156//224
f 50//192 156//224 233//224 155//192
f 51//217 183//192 249//218 177//219
f 51//217 177//219 242//220 166//221
f 51//217 166//221 240//222 168//223
f 51//217 168//223 248//224 183//192
f 52//225 178//226 250//227 182//85
f 52//225 182//85 248//228 168//223
f 52//225 168//223 240//222 164//229
f 52//225 164//229 241//230 178//226
f 53//231 179//232 251//233 181//209
f 53//231 181//209 250//234 178//226
f 53//231 178//226 241//230 167//235
f 53//231 167//235 243//236 179//232
f 54//237 180//103 251//238 179//232
f 54//237 179//232 243//236 165//239
f 54//237 165//239 242//220 177//219
f 54//237 177//219 249//240 180//103
f 55//76 167//235 241//230 164//229
f 55//76 164//229 240//222 166//221
f 55//76 166//221 242//220 165//239
f 55//76 165//239 243//236 167//235
f 56//103 172//103 247//238 171//238
f 56//103 171//238 251//238 180//103
f 56//103 180//103 249//240 169//240
f 56//103 169//240 244//240 172//103
f 57//209 171//233 247//233 173//209
f 57//209 173//209 246//234 170//234
f 57//209 170//234 250//234 181//209
f 57//209 181//209 251//233 171//233
f 58//85 170//227 246//227 174//85
f 58//85 174//85 245//228 176//228
f 58//85 176//228 248//228 182//85
f 58//85 182//85 250//227 170//227
f 59//192 175//192 244//218 169//218
f 59//192 169//218 249//218 183//192
f 59//192 183//192 248//224 176//224
f 59//192 176//224 245//224 175//192
