# Blender v2.79 (sub 0) OBJ File: 'Sign.blend'
# www.blender.org
mtllib Sign.mtl
o Sign_Cube.014
v -0.284803 0.024024 0.261230
v -0.284803 1.006309 0.082853
v -0.284803 0.016889 0.213686
v -0.284803 0.999174 0.035309
v 0.284803 0.024024 0.261230
v 0.284803 1.006309 0.082853
v 0.284803 0.016889 0.213686
v 0.284803 0.999174 0.035309
v -0.284803 1.049101 0.074675
v -0.284803 1.046644 0.027131
v 0.284803 1.046644 0.027131
v 0.284803 1.049101 0.074675
v -0.210888 0.999174 0.035309
v 0.210888 0.999174 0.035309
v 0.150977 0.016890 0.213686
v -0.150977 0.016890 0.213686
v 0.210888 1.006309 0.082853
v -0.210888 1.006309 0.082853
v -0.150977 0.024024 0.261230
v 0.150977 0.024024 0.261230
v -0.210888 1.046644 0.027131
v 0.210888 1.046644 0.027131
v 0.210888 1.049101 0.074675
v -0.210888 1.049101 0.074675
v -0.284803 0.156466 0.237179
v -0.284803 0.149332 0.189635
v 0.284803 0.149332 0.189635
v 0.284803 0.156466 0.237179
v 0.150977 0.156466 0.237179
v -0.150977 0.156466 0.237179
v -0.150977 0.149332 0.189635
v 0.150977 0.149332 0.189635
v -0.284803 0.449149 0.184030
v -0.284803 0.786092 0.122843
v -0.284803 0.778958 0.075299
v -0.284803 0.442015 0.136486
v 0.284803 0.778958 0.075299
v 0.284803 0.442015 0.136486
v 0.284803 0.786092 0.122843
v 0.284803 0.449149 0.184030
v 0.210888 0.786092 0.122843
v 0.210888 0.449149 0.184030
v -0.210888 0.449149 0.184030
v -0.210888 0.786092 0.122843
v -0.210888 0.778958 0.075299
v -0.210888 0.442015 0.136486
v 0.210888 0.442015 0.136486
v 0.210888 0.778958 0.075299
v -0.175248 0.477621 0.178859
v -0.175248 0.757620 0.128014
v 0.175248 0.757620 0.128014
v 0.175248 0.477621 0.178859
v -0.284803 0.863837 0.108725
v -0.284803 0.901466 0.101892
v -0.284803 0.894332 0.054348
v -0.284803 0.856703 0.061181
v -0.210888 0.863837 0.108725
v -0.210888 0.901466 0.101892
v -0.210888 0.894332 0.054348
v -0.210888 0.856703 0.061181
v 0.284803 0.894332 0.054348
v 0.284803 0.856703 0.061181
v 0.284803 0.901466 0.101892
v 0.284803 0.863837 0.108725
v 0.210888 0.856703 0.061181
v 0.210888 0.894332 0.054348
v 0.210888 0.901466 0.101892
v 0.210888 0.863837 0.108725
v -0.284803 0.024024 -0.261230
v -0.284803 1.006309 -0.082853
v -0.284803 0.016889 -0.213686
v -0.284803 0.999174 -0.035309
v 0.284803 0.024024 -0.261230
v 0.284803 1.006309 -0.082853
v 0.284803 0.016889 -0.213686
v 0.284803 0.999174 -0.035309
v -0.284803 1.049101 -0.074675
v -0.284803 1.046644 -0.027131
v 0.284803 1.046644 -0.027131
v 0.284803 1.049101 -0.074675
v -0.284803 0.999174 0.000000
v 0.284803 0.999174 0.000000
v -0.284803 1.046644 0.000000
v 0.284803 1.046644 0.000000
v -0.210888 0.999174 -0.035309
v 0.210888 0.999174 -0.035309
v 0.150977 0.016890 -0.213686
v -0.150977 0.016890 -0.213686
v 0.210888 1.006309 -0.082853
v -0.210888 1.006309 -0.082853
v -0.150977 0.024024 -0.261230
v 0.150977 0.024024 -0.261230
v -0.210888 1.046644 -0.027131
v 0.210888 1.046644 -0.027131
v 0.210888 1.049101 -0.074675
v -0.210888 1.049101 -0.074675
v -0.210888 0.999174 0.000000
v 0.210888 0.999174 0.000000
v -0.210888 1.046644 0.000000
v 0.210888 1.046644 0.000000
v -0.284803 0.156466 -0.237179
v -0.284803 0.149332 -0.189635
v 0.284803 0.149332 -0.189635
v 0.284803 0.156466 -0.237179
v 0.150977 0.156466 -0.237179
v -0.150977 0.156466 -0.237179
v -0.150977 0.149332 -0.189635
v 0.150977 0.149332 -0.189635
v -0.284803 0.449149 -0.184030
v -0.284803 0.786092 -0.122843
v -0.284803 0.778958 -0.075299
v -0.284803 0.442015 -0.136486
v 0.284803 0.778958 -0.075299
v 0.284803 0.442015 -0.136486
v 0.284803 0.786092 -0.122843
v 0.284803 0.449149 -0.184030
v 0.210888 0.786092 -0.122843
v 0.210888 0.449149 -0.184030
v -0.210888 0.449149 -0.184030
v -0.210888 0.786092 -0.122843
v -0.210888 0.778958 -0.075299
v -0.210888 0.442015 -0.136486
v 0.210888 0.442015 -0.136486
v 0.210888 0.778958 -0.075299
v -0.175248 0.477621 -0.178859
v -0.175248 0.757620 -0.128014
v 0.175248 0.757620 -0.128014
v 0.175248 0.477621 -0.178859
v -0.284803 0.863837 -0.108725
v -0.284803 0.901466 -0.101892
v -0.284803 0.894332 -0.054348
v -0.284803 0.856703 -0.061181
v -0.210888 0.863837 -0.108725
v -0.210888 0.901466 -0.101892
v -0.210888 0.894332 -0.054348
v -0.210888 0.856703 -0.061181
v 0.284803 0.894332 -0.054348
v 0.284803 0.856703 -0.061181
v 0.284803 0.901466 -0.101892
v 0.284803 0.863837 -0.108725
v 0.210888 0.856703 -0.061181
v 0.210888 0.894332 -0.054348
v 0.210888 0.901466 -0.101892
v 0.210888 0.863837 -0.108725
vn -1.0000 0.0000 0.0000
vn 0.0000 -0.1787 -0.9839
vn 1.0000 0.0000 0.0000
vn 0.0000 0.1787 0.9839
vn -0.0000 -0.9889 0.1484
vn 0.0000 0.9987 -0.0516
vn 0.0000 0.1877 0.9822
vn 0.0000 -1.0000 0.0000
vn 0.0000 1.0000 0.0000
vn 0.0000 -0.1787 0.9839
vn 0.0000 0.1787 -0.9839
vn -0.0000 -0.9889 -0.1484
vn 0.0000 0.9987 0.0516
vn 0.0000 0.1877 -0.9822
usemtl Yellow
s off
f 25//1 26//1 3//1 1//1
f 32//2 27//2 7//2 15//2
f 27//3 28//3 5//3 7//3
f 30//4 25//4 1//4 19//4
f 20//5 15//5 7//5 5//5
f 6//3 8//3 11//3 12//3
f 24//6 21//6 10//6 9//6
f 4//1 2//1 9//1 10//1
f 17//7 6//7 12//7 23//7
f 13//8 4//8 81//8 97//8
f 22//9 11//9 84//9 100//9
f 11//3 8//3 82//3 84//3
f 4//1 10//1 83//1 81//1
f 10//9 21//9 99//9 83//9
f 21//9 22//9 100//9 99//9
f 8//8 14//8 98//8 82//8
f 14//8 13//8 97//8 98//8
f 2//7 18//7 24//7 9//7
f 18//7 17//7 23//7 24//7
f 12//6 11//6 22//6 23//6
f 23//6 22//6 21//6 24//6
f 1//5 3//5 16//5 19//5
f 28//4 29//4 20//4 5//4
f 26//2 31//2 16//2 3//2
f 30//5 31//5 32//5 29//5
f 47//2 38//2 27//2 32//2
f 8//3 6//3 63//3 61//3
f 17//4 18//4 58//4 67//4
f 33//1 36//1 26//1 25//1
f 6//4 17//4 67//4 63//4
f 53//1 56//1 35//1 34//1
f 30//3 19//3 16//3 31//3
f 29//1 32//1 15//1 20//1
f 43//4 33//4 25//4 30//4
f 38//3 40//3 28//3 27//3
f 14//2 8//2 61//2 66//2
f 68//4 57//4 44//4 41//4
f 40//4 42//4 29//4 28//4
f 42//4 43//4 30//4 29//4
f 36//2 46//2 31//2 26//2
f 46//2 47//2 32//2 31//2
f 36//1 33//1 34//1 35//1
f 38//2 47//2 48//2 37//2
f 40//3 38//3 37//3 39//3
f 33//4 43//4 44//4 34//4
f 42//4 40//4 39//4 41//4
f 46//2 36//2 35//2 45//2
f 47//2 46//2 45//2 48//2
f 18//4 2//4 54//4 58//4
f 49//4 52//4 51//4 50//4
f 57//4 53//4 34//4 44//4
f 56//2 60//2 45//2 35//2
f 62//3 64//3 39//3 37//3
f 4//2 13//2 59//2 55//2
f 65//2 62//2 37//2 48//2
f 64//4 68//4 41//4 39//4
f 13//2 14//2 66//2 59//2
f 60//2 65//2 48//2 45//2
f 56//1 53//1 54//1 55//1
f 60//2 56//2 55//2 59//2
f 62//2 65//2 66//2 61//2
f 53//4 57//4 58//4 54//4
f 64//3 62//3 61//3 63//3
f 68//4 64//4 63//4 67//4
f 65//2 60//2 59//2 66//2
f 2//1 4//1 55//1 54//1
f 101//1 69//1 71//1 102//1
f 108//10 87//10 75//10 103//10
f 103//3 75//3 73//3 104//3
f 106//11 91//11 69//11 101//11
f 92//12 73//12 75//12 87//12
f 74//3 80//3 79//3 76//3
f 96//13 77//13 78//13 93//13
f 72//1 78//1 77//1 70//1
f 89//14 95//14 80//14 74//14
f 85//8 97//8 81//8 72//8
f 94//9 100//9 84//9 79//9
f 79//3 84//3 82//3 76//3
f 72//1 81//1 83//1 78//1
f 78//9 83//9 99//9 93//9
f 93//9 99//9 100//9 94//9
f 76//8 82//8 98//8 86//8
f 86//8 98//8 97//8 85//8
f 70//14 77//14 96//14 90//14
f 90//14 96//14 95//14 89//14
f 80//13 95//13 94//13 79//13
f 95//13 96//13 93//13 94//13
f 69//12 91//12 88//12 71//12
f 104//11 73//11 92//11 105//11
f 102//10 71//10 88//10 107//10
f 106//12 105//12 108//12 107//12
f 123//10 108//10 103//10 114//10
f 76//3 137//3 139//3 74//3
f 89//11 143//11 134//11 90//11
f 109//1 101//1 102//1 112//1
f 74//11 139//11 143//11 89//11
f 129//1 110//1 111//1 132//1
f 106//3 107//3 88//3 91//3
f 105//1 92//1 87//1 108//1
f 119//11 106//11 101//11 109//11
f 114//3 103//3 104//3 116//3
f 86//10 142//10 137//10 76//10
f 144//11 117//11 120//11 133//11
f 116//11 104//11 105//11 118//11
f 118//11 105//11 106//11 119//11
f 112//10 102//10 107//10 122//10
f 122//10 107//10 108//10 123//10
f 112//1 111//1 110//1 109//1
f 114//10 113//10 124//10 123//10
f 116//3 115//3 113//3 114//3
f 109//11 110//11 120//11 119//11
f 118//11 117//11 115//11 116//11
f 122//10 121//10 111//10 112//10
f 123//10 124//10 121//10 122//10
f 90//11 134//11 130//11 70//11
f 125//11 126//11 127//11 128//11
f 133//11 120//11 110//11 129//11
f 132//10 111//10 121//10 136//10
f 138//3 113//3 115//3 140//3
f 72//10 131//10 135//10 85//10
f 141//10 124//10 113//10 138//10
f 140//11 115//11 117//11 144//11
f 85//10 135//10 142//10 86//10
f 136//10 121//10 124//10 141//10
f 132//1 131//1 130//1 129//1
f 136//10 135//10 131//10 132//10
f 138//10 137//10 142//10 141//10
f 129//11 130//11 134//11 133//11
f 140//3 139//3 137//3 138//3
f 144//11 143//11 139//11 140//11
f 141//10 142//10 135//10 136//10
f 70//1 130//1 131//1 72//1
usemtl Brown
f 41//4 44//4 50//4 51//4
f 42//4 41//4 51//4 52//4
f 44//4 43//4 49//4 50//4
f 43//4 42//4 52//4 49//4
f 57//4 68//4 67//4 58//4
f 117//11 127//11 126//11 120//11
f 118//11 128//11 127//11 117//11
f 120//11 126//11 125//11 119//11
f 119//11 125//11 128//11 118//11
f 133//11 134//11 143//11 144//11
