# Blender v2.79 (sub 0) OBJ File: 'TrafficCone.blend'
# www.blender.org
mtllib TrafficCone.mtl
o TrafficCone_Cylinder.001
v -0.000000 0.029856 -0.257740
v 0.000000 0.638238 -0.092112
v 0.151496 0.029856 -0.208516
v 0.054142 0.638238 -0.074520
v 0.245126 0.029856 -0.079646
v 0.087604 0.638238 -0.028464
v 0.245126 0.029856 0.079646
v 0.087604 0.638238 0.028464
v 0.151496 0.029856 0.208516
v 0.054142 0.638238 0.074520
v -0.000000 0.029856 0.257740
v -0.000000 0.638238 0.092112
v -0.151496 0.029856 0.208516
v -0.054142 0.638238 0.074520
v -0.245126 0.029856 0.079646
v -0.087604 0.638238 0.028464
v -0.245126 0.029856 -0.079646
v -0.087604 0.638238 -0.028464
v -0.151496 0.029856 -0.208516
v -0.054142 0.638238 -0.074520
v -0.000000 0.029856 -0.200179
v 0.117662 0.029856 -0.161948
v 0.042051 0.638238 -0.057878
v 0.000000 0.638238 -0.071541
v 0.190381 0.029856 -0.061859
v 0.068039 0.638238 -0.022107
v 0.190381 0.029856 0.061859
v 0.068039 0.638238 0.022107
v 0.117662 0.029856 0.161948
v 0.042051 0.638238 0.057878
v -0.000000 0.029856 0.200179
v -0.000000 0.638238 0.071541
v -0.117662 0.029856 0.161948
v -0.042051 0.638238 0.057878
v -0.190381 0.029856 0.061859
v -0.068039 0.638238 0.022107
v -0.190381 0.029856 -0.061859
v -0.068039 0.638238 -0.022107
v -0.117662 0.029856 -0.161948
v -0.042051 0.638238 -0.057878
v 0.000000 0.277737 -0.190256
v 0.000000 0.187562 -0.214806
v 0.000000 0.480531 -0.135047
v 0.000000 0.390356 -0.159596
v 0.093808 0.390356 -0.129116
v 0.079379 0.480531 -0.109255
v 0.126260 0.187562 -0.173782
v 0.111830 0.277737 -0.153920
v 0.151785 0.390356 -0.049318
v 0.128437 0.480531 -0.041732
v 0.204292 0.187562 -0.066379
v 0.180944 0.277737 -0.058792
v 0.151785 0.390356 0.049318
v 0.128437 0.480531 0.041732
v 0.204292 0.187562 0.066379
v 0.180944 0.277737 0.058792
v 0.093808 0.390356 0.129116
v 0.079379 0.480531 0.109255
v 0.126260 0.187562 0.173782
v 0.111830 0.277737 0.153920
v -0.000000 0.390356 0.159597
v -0.000000 0.480531 0.135047
v -0.000000 0.187562 0.214806
v -0.000000 0.277737 0.190256
v -0.093808 0.390356 0.129116
v -0.079379 0.480531 0.109255
v -0.126260 0.187562 0.173782
v -0.111830 0.277737 0.153920
v -0.151785 0.390356 0.049318
v -0.128437 0.480531 0.041732
v -0.204292 0.187562 0.066379
v -0.180944 0.277737 0.058792
v -0.151785 0.390356 -0.049318
v -0.128437 0.480531 -0.041732
v -0.204292 0.187562 -0.066379
v -0.180944 0.277737 -0.058792
v -0.093808 0.390356 -0.129116
v -0.079378 0.480531 -0.109255
v -0.126260 0.187562 -0.173782
v -0.111830 0.277737 -0.153920
v -0.247527 0.001527 0.337284
v -0.337284 0.001527 0.247527
v -0.337284 0.041029 0.247527
v -0.247527 0.041029 0.337284
v -0.337284 0.001527 -0.247527
v -0.247527 0.001527 -0.337284
v -0.247527 0.041029 -0.337284
v -0.337284 0.041029 -0.247527
v 0.337284 0.001527 0.247527
v 0.247527 0.001527 0.337284
v 0.247527 0.041029 0.337284
v 0.337284 0.041029 0.247527
v 0.247527 0.001527 -0.337284
v 0.337284 0.001527 -0.247527
v 0.337284 0.041029 -0.247527
v 0.247527 0.041029 -0.337284
vn 0.5671 0.2627 -0.7806
vn 0.9177 0.2627 -0.2982
vn 0.9177 0.2627 0.2982
vn 0.5671 0.2627 0.7806
vn -0.0000 0.2627 0.9649
vn -0.5671 0.2627 0.7806
vn -0.9177 0.2627 0.2982
vn -0.9177 0.2627 -0.2982
vn -0.5671 0.2627 -0.7806
vn 0.0000 0.2627 -0.9649
vn -0.0000 -0.2069 0.9784
vn -0.5751 -0.2069 0.7915
vn -0.9305 -0.2069 0.3023
vn -0.9305 -0.2069 -0.3023
vn -0.5751 -0.2069 -0.7915
vn 0.0000 -0.2069 -0.9784
vn 0.5751 -0.2069 -0.7915
vn 0.9305 -0.2069 -0.3023
vn 0.9305 -0.2069 0.3023
vn 0.5751 -0.2069 0.7915
vn 0.0000 1.0000 0.0000
vn 0.0000 0.0000 1.0000
vn 1.0000 0.0000 0.0000
vn -1.0000 0.0000 0.0000
vn 0.0000 0.0000 -1.0000
vn -0.7071 0.0000 0.7071
vn -0.7071 0.0000 -0.7071
vn 0.7071 0.0000 -0.7071
vn 0.7071 0.0000 0.7071
vn 0.0000 -1.0000 -0.0000
usemtl Orange
s 1
f 46//1 4//1 6//2 50//2
f 48//1 45//1 49//2 52//2
f 52//2 49//2 53//3 56//3
f 56//3 53//3 57//4 60//4
f 60//4 57//4 61//5 64//5
f 64//5 61//5 65//6 68//6
f 68//6 65//6 69//7 72//7
f 72//7 69//7 73//8 76//8
f 76//8 73//8 77//9 80//9
f 43//10 2//10 4//1 46//1
f 21//11 22//12 23//12 24//11
f 22//12 25//13 26//13 23//12
f 25//13 27//14 28//14 26//13
f 27//14 29//15 30//15 28//14
f 29//15 31//16 32//16 30//15
f 31//16 33//17 34//17 32//16
f 33//17 35//18 36//18 34//17
f 35//18 37//19 38//19 36//18
f 37//19 39//20 40//20 38//19
f 39//20 21//11 24//11 40//20
f 10//21 30//21 32//21 12//21
f 20//21 40//21 24//21 2//21
f 6//21 26//21 28//21 8//21
f 16//21 36//21 38//21 18//21
f 2//21 24//21 23//21 4//21
f 12//21 32//21 34//21 14//21
f 8//21 28//21 30//21 10//21
f 18//21 38//21 40//21 20//21
f 4//21 23//21 26//21 6//21
f 14//21 34//21 36//21 16//21
f 41//10 44//10 45//1 48//1
f 78//9 20//9 2//10 43//10
f 17//8 75//8 79//9 19//9
f 74//8 18//8 20//9 78//9
f 15//7 71//7 75//8 17//8
f 70//7 16//7 18//8 74//8
f 13//6 67//6 71//7 15//7
f 66//6 14//6 16//7 70//7
f 11//5 63//5 67//6 13//6
f 62//5 12//5 14//6 66//6
f 9//4 59//4 63//5 11//5
f 58//4 10//4 12//5 62//5
f 7//3 55//3 59//4 9//4
f 54//3 8//3 10//4 58//4
f 5//2 51//2 55//3 7//3
f 50//2 6//2 8//3 54//3
f 3//1 47//1 51//2 5//2
f 19//9 79//9 42//10 1//10
f 80//9 77//9 44//10 41//10
f 1//10 42//10 47//1 3//1
f 90//22 91//22 84//22 81//22
f 94//23 95//23 92//23 89//23
f 95//21 96//21 87//21 88//21 83//21 84//21 91//21 92//21
f 82//24 83//24 88//24 85//24
f 86//25 87//25 96//25 93//25
f 81//26 84//26 83//26 82//26
f 87//27 86//27 85//27 88//27
f 95//28 94//28 93//28 96//28
f 91//29 90//29 89//29 92//29
f 85//30 86//30 93//30 94//30 89//30 90//30 81//30 82//30
usemtl White
f 80//9 41//10 42//10 79//9
f 78//9 43//10 44//10 77//9
f 76//8 80//9 79//9 75//8
f 74//8 78//9 77//9 73//8
f 72//7 76//8 75//8 71//7
f 70//7 74//8 73//8 69//7
f 68//6 72//7 71//7 67//6
f 66//6 70//7 69//7 65//6
f 64//5 68//6 67//6 63//5
f 62//5 66//6 65//6 61//5
f 60//4 64//5 63//5 59//4
f 58//4 62//5 61//5 57//4
f 56//3 60//4 59//4 55//3
f 54//3 58//4 57//4 53//3
f 52//2 56//3 55//3 51//2
f 50//2 54//3 53//3 49//2
f 48//1 52//2 51//2 47//1
f 46//1 50//2 49//2 45//1
f 41//10 48//1 47//1 42//10
f 43//10 46//1 45//1 44//10
