{
    "asset" : {
        "generator" : "Khronos glTF Blender I/O v1.7.33",
        "version" : "2.0"
    },
    "scene" : 0,
    "scenes" : [
        {
            "name" : "Scene",
            "nodes" : [
                0
            ]
        }
    ],
    "nodes" : [
        {
            "mesh" : 0,
            "name" : "FireGrenade",
            "scale" : [
                0.32810690999031067,
                0.32810690999031067,
                0.32810690999031067
            ]
        }
    ],
    "materials" : [
        {
            "doubleSided" : true,
            "name" : "Red",
            "pbrMetallicRoughness" : {
                "baseColorFactor" : [
                    0.3263714909553528,
                    0.047813333570957184,
                    0.044884875416755676,
                    1
                ],
                "metallicFactor" : 0,
                "roughnessFactor" : 0.5
            }
        },
        {
            "doubleSided" : true,
            "name" : "DarkRed",
            "pbrMetallicRoughness" : {}
        },
        {
            "doubleSided" : true,
            "name" : "Black",
            "pbrMetallicRoughness" : {
                "baseColorFactor" : [
                    0.02364896982908249,
                    0.02364896982908249,
                    0.02364896982908249,
                    1
                ],
                "metallicFactor" : 0,
                "roughnessFactor" : 0.5
            }
        },
        {
            "doubleSided" : true,
            "name" : "Grey",
            "pbrMetallicRoughness" : {
                "baseColorFactor" : [
                    0.2746773064136505,
                    0.28744083642959595,
                    0.35153263807296753,
                    1
                ],
                "metallicFactor" : 0,
                "roughnessFactor" : 0.5
            }
        }
    ],
    "meshes" : [
        {
            "name" : "Sphere.002",
            "primitives" : [
                {
                    "attributes" : {
                        "POSITION" : 0,
                        "NORMAL" : 1
                    },
                    "indices" : 2,
                    "material" : 0
                },
                {
                    "attributes" : {
                        "POSITION" : 3,
                        "NORMAL" : 4
                    },
                    "indices" : 5,
                    "material" : 1
                },
                {
                    "attributes" : {
                        "POSITION" : 6,
                        "NORMAL" : 7
                    },
                    "indices" : 8,
                    "material" : 2
                },
                {
                    "attributes" : {
                        "POSITION" : 9,
                        "NORMAL" : 10
                    },
                    "indices" : 11,
                    "material" : 3
                }
            ]
        }
    ],
    "accessors" : [
        {
            "bufferView" : 0,
            "componentType" : 5126,
            "count" : 289,
            "max" : [
                0.7171992659568787,
                0.5493924021720886,
                0.71719890832901
            ],
            "min" : [
                -0.7171992659568787,
                -1.5865954160690308,
                -0.7171996831893921
            ],
            "type" : "VEC3"
        },
        {
            "bufferView" : 1,
            "componentType" : 5126,
            "count" : 289,
            "type" : "VEC3"
        },
        {
            "bufferView" : 2,
            "componentType" : 5123,
            "count" : 1008,
            "type" : "SCALAR"
        },
        {
            "bufferView" : 3,
            "componentType" : 5126,
            "count" : 64,
            "max" : [
                0.6694439053535461,
                -0.26767265796661377,
                0.6694435477256775
            ],
            "min" : [
                -0.6694439053535461,
                -1.2313604354858398,
                -0.66944420337677
            ],
            "type" : "VEC3"
        },
        {
            "bufferView" : 4,
            "componentType" : 5126,
            "count" : 64,
            "type" : "VEC3"
        },
        {
            "bufferView" : 5,
            "componentType" : 5123,
            "count" : 192,
            "type" : "SCALAR"
        },
        {
            "bufferView" : 6,
            "componentType" : 5126,
            "count" : 362,
            "max" : [
                0.6650720238685608,
                1.0040699243545532,
                0.6650717258453369
            ],
            "min" : [
                -1.0185267925262451,
                -0.9100784659385681,
                -0.6650725603103638
            ],
            "type" : "VEC3"
        },
        {
            "bufferView" : 7,
            "componentType" : 5126,
            "count" : 362,
            "type" : "VEC3"
        },
        {
            "bufferView" : 8,
            "componentType" : 5123,
            "count" : 912,
            "type" : "SCALAR"
        },
        {
            "bufferView" : 9,
            "componentType" : 5126,
            "count" : 177,
            "max" : [
                0.6661649942398071,
                0.9602415561676025,
                0.6661646366119385
            ],
            "min" : [
                -0.6661649942398071,
                -1.0022107362747192,
                -0.6661654114723206
            ],
            "type" : "VEC3"
        },
        {
            "bufferView" : 10,
            "componentType" : 5126,
            "count" : 177,
            "type" : "VEC3"
        },
        {
            "bufferView" : 11,
            "componentType" : 5123,
            "count" : 636,
            "type" : "SCALAR"
        }
    ],
    "bufferViews" : [
        {
            "buffer" : 0,
            "byteLength" : 3468,
            "byteOffset" : 0
        },
        {
            "buffer" : 0,
            "byteLength" : 3468,
            "byteOffset" : 3468
        },
        {
            "buffer" : 0,
            "byteLength" : 2016,
            "byteOffset" : 6936
        },
        {
            "buffer" : 0,
            "byteLength" : 768,
            "byteOffset" : 8952
        },
        {
            "buffer" : 0,
            "byteLength" : 768,
            "byteOffset" : 9720
        },
        {
            "buffer" : 0,
            "byteLength" : 384,
            "byteOffset" : 10488
        },
        {
            "buffer" : 0,
            "byteLength" : 4344,
            "byteOffset" : 10872
        },
        {
            "buffer" : 0,
            "byteLength" : 4344,
            "byteOffset" : 15216
        },
        {
            "buffer" : 0,
            "byteLength" : 1824,
            "byteOffset" : 19560
        },
        {
            "buffer" : 0,
            "byteLength" : 2124,
            "byteOffset" : 21384
        },
        {
            "buffer" : 0,
            "byteLength" : 2124,
            "byteOffset" : 23508
        },
        {
            "buffer" : 0,
            "byteLength" : 1272,
            "byteOffset" : 25632
        }
    ],
    "buffers" : [
        {
            "byteLength" : 26904,
            "uri" : "data:application/octet-stream;base64,"
        }
    ]
}
