{
    "asset" : {
        "generator" : "Khronos glTF Blender I/O v1.7.33",
        "version" : "2.0"
    },
    "scene" : 0,
    "scenes" : [
        {
            "name" : "Scene",
            "nodes" : [
                0
            ]
        }
    ],
    "nodes" : [
        {
            "mesh" : 0,
            "name" : "GrenadeLauncher"
        }
    ],
    "materials" : [
        {
            "doubleSided" : true,
            "name" : "Grey",
            "pbrMetallicRoughness" : {
                "baseColorFactor" : [
                    0.2746773064136505,
                    0.28744083642959595,
                    0.35153263807296753,
                    1
                ],
                "metallicFactor" : 0,
                "roughnessFactor" : 0.5
            }
        },
        {
            "doubleSided" : true,
            "name" : "DarkGrey",
            "pbrMetallicRoughness" : {
                "baseColorFactor" : [
                    0.0666259378194809,
                    0.0666259378194809,
                    0.0666259378194809,
                    1
                ],
                "metallicFactor" : 0,
                "roughnessFactor" : 0.5
            }
        },
        {
            "doubleSided" : true,
            "name" : "Wood",
            "pbrMetallicRoughness" : {
                "baseColorFactor" : [
                    0.3757452964782715,
                    0.20292167365550995,
                    0.0587104856967926,
                    1
                ],
                "metallicFactor" : 0,
                "roughnessFactor" : 0.5
            }
        },
        {
            "doubleSided" : true,
            "name" : "Grey2",
            "pbrMetallicRoughness" : {
                "baseColorFactor" : [
                    0.14239658415317535,
                    0.14239658415317535,
                    0.14239658415317535,
                    1
                ],
                "metallicFactor" : 0,
                "roughnessFactor" : 0.5
            }
        }
    ],
    "meshes" : [
        {
            "name" : "Cylinder.019",
            "primitives" : [
                {
                    "attributes" : {
                        "POSITION" : 0,
                        "NORMAL" : 1,
                        "COLOR_0" : 2
                    },
                    "indices" : 3,
                    "material" : 0
                },
                {
                    "attributes" : {
                        "POSITION" : 4,
                        "NORMAL" : 5,
                        "COLOR_0" : 6
                    },
                    "indices" : 7,
                    "material" : 1
                },
                {
                    "attributes" : {
                        "POSITION" : 8,
                        "NORMAL" : 9,
                        "COLOR_0" : 10
                    },
                    "indices" : 11,
                    "material" : 2
                },
                {
                    "attributes" : {
                        "POSITION" : 12,
                        "NORMAL" : 13,
                        "COLOR_0" : 14
                    },
                    "indices" : 15,
                    "material" : 3
                }
            ]
        }
    ],
    "accessors" : [
        {
            "bufferView" : 0,
            "componentType" : 5126,
            "count" : 492,
            "max" : [
                0.4274468421936035,
                0.2733146548271179,
                0.23896558582782745
            ],
            "min" : [
                -0.6682217121124268,
                -0.23533526062965393,
                -0.23896552622318268
            ],
            "type" : "VEC3"
        },
        {
            "bufferView" : 1,
            "componentType" : 5126,
            "count" : 492,
            "type" : "VEC3"
        },
        {
            "bufferView" : 2,
            "componentType" : 5123,
            "count" : 492,
            "normalized" : true,
            "type" : "VEC4"
        },
        {
            "bufferView" : 3,
            "componentType" : 5123,
            "count" : 1305,
            "type" : "SCALAR"
        },
        {
            "bufferView" : 4,
            "componentType" : 5126,
            "count" : 457,
            "max" : [
                0.5146028995513916,
                0.17379431426525116,
                0.18893253803253174
            ],
            "min" : [
                -0.6901609897613525,
                -0.2817049026489258,
                -0.19137822091579437
            ],
            "type" : "VEC3"
        },
        {
            "bufferView" : 5,
            "componentType" : 5126,
            "count" : 457,
            "type" : "VEC3"
        },
        {
            "bufferView" : 6,
            "componentType" : 5123,
            "count" : 457,
            "normalized" : true,
            "type" : "VEC4"
        },
        {
            "bufferView" : 7,
            "componentType" : 5123,
            "count" : 1188,
            "type" : "SCALAR"
        },
        {
            "bufferView" : 8,
            "componentType" : 5126,
            "count" : 180,
            "max" : [
                0.5082257390022278,
                0.01634502038359642,
                0.03643154725432396
            ],
            "min" : [
                0.23954655230045319,
                -0.2561313211917877,
                -0.03643127530813217
            ],
            "type" : "VEC3"
        },
        {
            "bufferView" : 9,
            "componentType" : 5126,
            "count" : 180,
            "type" : "VEC3"
        },
        {
            "bufferView" : 10,
            "componentType" : 5123,
            "count" : 180,
            "normalized" : true,
            "type" : "VEC4"
        },
        {
            "bufferView" : 11,
            "componentType" : 5123,
            "count" : 540,
            "type" : "SCALAR"
        },
        {
            "bufferView" : 12,
            "componentType" : 5126,
            "count" : 266,
            "max" : [
                0.40510696172714233,
                0.21364499628543854,
                0.2136451154947281
            ],
            "min" : [
                -0.326322078704834,
                -0.21364521980285645,
                -0.2136451005935669
            ],
            "type" : "VEC3"
        },
        {
            "bufferView" : 13,
            "componentType" : 5126,
            "count" : 266,
            "type" : "VEC3"
        },
        {
            "bufferView" : 14,
            "componentType" : 5123,
            "count" : 266,
            "normalized" : true,
            "type" : "VEC4"
        },
        {
            "bufferView" : 15,
            "componentType" : 5123,
            "count" : 750,
            "type" : "SCALAR"
        }
    ],
    "bufferViews" : [
        {
            "buffer" : 0,
            "byteLength" : 5904,
            "byteOffset" : 0
        },
        {
            "buffer" : 0,
            "byteLength" : 5904,
            "byteOffset" : 5904
        },
        {
            "buffer" : 0,
            "byteLength" : 3936,
            "byteOffset" : 11808
        },
        {
            "buffer" : 0,
            "byteLength" : 2610,
            "byteOffset" : 15744
        },
        {
            "buffer" : 0,
            "byteLength" : 5484,
            "byteOffset" : 18356
        },
        {
            "buffer" : 0,
            "byteLength" : 5484,
            "byteOffset" : 23840
        },
        {
            "buffer" : 0,
            "byteLength" : 3656,
            "byteOffset" : 29324
        },
        {
            "buffer" : 0,
            "byteLength" : 2376,
            "byteOffset" : 32980
        },
        {
            "buffer" : 0,
            "byteLength" : 2160,
            "byteOffset" : 35356
        },
        {
            "buffer" : 0,
            "byteLength" : 2160,
            "byteOffset" : 37516
        },
        {
            "buffer" : 0,
            "byteLength" : 1440,
            "byteOffset" : 39676
        },
        {
            "buffer" : 0,
            "byteLength" : 1080,
            "byteOffset" : 41116
        },
        {
            "buffer" : 0,
            "byteLength" : 3192,
            "byteOffset" : 42196
        },
        {
            "buffer" : 0,
            "byteLength" : 3192,
            "byteOffset" : 45388
        },
        {
            "buffer" : 0,
            "byteLength" : 2128,
            "byteOffset" : 48580
        },
        {
            "buffer" : 0,
            "byteLength" : 1500,
            "byteOffset" : 50708
        }
    ],
    "buffers" : [
        {
            "byteLength" : 52208,
            "uri" : "data:application/octet-stream;base64,"
        }
    ]
}
