{
    "asset" : {
        "generator" : "Khronos glTF Blender I/O v1.7.33",
        "version" : "2.0"
    },
    "scene" : 0,
    "scenes" : [
        {
            "name" : "Scene",
            "nodes" : [
                0
            ]
        }
    ],
    "nodes" : [
        {
            "mesh" : 0,
            "name" : "Grenade",
            "scale" : [
                0.32810690999031067,
                0.32810690999031067,
                0.32810690999031067
            ]
        }
    ],
    "materials" : [
        {
            "doubleSided" : true,
            "name" : "Green",
            "pbrMetallicRoughness" : {
                "baseColorFactor" : [
                    0.08282432705163956,
                    0.1574288308620453,
                    0.01932036504149437,
                    1
                ],
                "metallicFactor" : 0,
                "roughnessFactor" : 0.5
            }
        },
        {
            "doubleSided" : true,
            "name" : "DarkGrey",
            "pbrMetallicRoughness" : {
                "baseColorFactor" : [
                    0.0666259378194809,
                    0.0666259378194809,
                    0.0666259378194809,
                    1
                ],
                "metallicFactor" : 0,
                "roughnessFactor" : 0.5
            }
        },
        {
            "doubleSided" : true,
            "name" : "DarkGreen",
            "pbrMetallicRoughness" : {}
        }
    ],
    "meshes" : [
        {
            "name" : "Sphere.001",
            "primitives" : [
                {
                    "attributes" : {
                        "POSITION" : 0,
                        "NORMAL" : 1
                    },
                    "indices" : 2,
                    "material" : 0
                },
                {
                    "attributes" : {
                        "POSITION" : 3,
                        "NORMAL" : 4
                    },
                    "indices" : 5,
                    "material" : 1
                },
                {
                    "attributes" : {
                        "POSITION" : 6,
                        "NORMAL" : 7
                    },
                    "indices" : 8,
                    "material" : 2
                }
            ]
        }
    ],
    "accessors" : [
        {
            "bufferView" : 0,
            "componentType" : 5126,
            "count" : 241,
            "max" : [
                0.699425220489502,
                0.526019811630249,
                0.6994249224662781
            ],
            "min" : [
                -0.699425220489502,
                -0.7098156213760376,
                -0.6994256377220154
            ],
            "type" : "VEC3"
        },
        {
            "bufferView" : 1,
            "componentType" : 5126,
            "count" : 241,
            "type" : "VEC3"
        },
        {
            "bufferView" : 2,
            "componentType" : 5123,
            "count" : 1104,
            "type" : "SCALAR"
        },
        {
            "bufferView" : 3,
            "componentType" : 5126,
            "count" : 330,
            "max" : [
                0.4806074798107147,
                1.0040699243545532,
                0.6591256856918335
            ],
            "min" : [
                -1.0185267925262451,
                -0.8402888774871826,
                -0.19499541819095612
            ],
            "type" : "VEC3"
        },
        {
            "bufferView" : 4,
            "componentType" : 5126,
            "count" : 330,
            "type" : "VEC3"
        },
        {
            "bufferView" : 5,
            "componentType" : 5123,
            "count" : 864,
            "type" : "SCALAR"
        },
        {
            "bufferView" : 6,
            "componentType" : 5126,
            "count" : 145,
            "max" : [
                0.65285325050354,
                0.9602415561676025,
                0.6528529524803162
            ],
            "min" : [
                -0.65285325050354,
                -0.032740332186222076,
                -0.6528536677360535
            ],
            "type" : "VEC3"
        },
        {
            "bufferView" : 7,
            "componentType" : 5126,
            "count" : 145,
            "type" : "VEC3"
        },
        {
            "bufferView" : 8,
            "componentType" : 5123,
            "count" : 492,
            "type" : "SCALAR"
        }
    ],
    "bufferViews" : [
        {
            "buffer" : 0,
            "byteLength" : 2892,
            "byteOffset" : 0
        },
        {
            "buffer" : 0,
            "byteLength" : 2892,
            "byteOffset" : 2892
        },
        {
            "buffer" : 0,
            "byteLength" : 2208,
            "byteOffset" : 5784
        },
        {
            "buffer" : 0,
            "byteLength" : 3960,
            "byteOffset" : 7992
        },
        {
            "buffer" : 0,
            "byteLength" : 3960,
            "byteOffset" : 11952
        },
        {
            "buffer" : 0,
            "byteLength" : 1728,
            "byteOffset" : 15912
        },
        {
            "buffer" : 0,
            "byteLength" : 1740,
            "byteOffset" : 17640
        },
        {
            "buffer" : 0,
            "byteLength" : 1740,
            "byteOffset" : 19380
        },
        {
            "buffer" : 0,
            "byteLength" : 984,
            "byteOffset" : 21120
        }
    ],
    "buffers" : [
        {
            "byteLength" : 22104,
            "uri" : "data:application/octet-stream;base64,"
        }
    ]
}
