{
    "asset" : {
        "generator" : "Khronos glTF Blender I/O v1.7.33",
        "version" : "2.0"
    },
    "scene" : 0,
    "scenes" : [
        {
            "name" : "Scene",
            "nodes" : [
                0
            ]
        }
    ],
    "nodes" : [
        {
            "mesh" : 0,
            "name" : "Knife_1",
            "scale" : [
                0.1833181083202362,
                0.1833181083202362,
                0.1833181083202362
            ]
        }
    ],
    "materials" : [
        {
            "doubleSided" : true,
            "name" : "Grey",
            "pbrMetallicRoughness" : {
                "baseColorFactor" : [
                    0.2746773064136505,
                    0.28744083642959595,
                    0.35153263807296753,
                    1
                ],
                "metallicFactor" : 0,
                "roughnessFactor" : 0.5
            }
        },
        {
            "doubleSided" : true,
            "name" : "LightGrey",
            "pbrMetallicRoughness" : {
                "baseColorFactor" : [
                    0.37574493885040283,
                    0.37574493885040283,
                    0.37574493885040283,
                    1
                ],
                "metallicFactor" : 0,
                "roughnessFactor" : 0.5
            }
        },
        {
            "doubleSided" : true,
            "name" : "DarkWood",
            "pbrMetallicRoughness" : {
                "baseColorFactor" : [
                    0.14238348603248596,
                    0.08724373579025269,
                    0.044256653636693954,
                    1
                ],
                "metallicFactor" : 0,
                "roughnessFactor" : 0.5
            }
        },
        {
            "doubleSided" : true,
            "name" : "Wood",
            "pbrMetallicRoughness" : {
                "baseColorFactor" : [
                    0.3757452964782715,
                    0.20292167365550995,
                    0.0587104856967926,
                    1
                ],
                "metallicFactor" : 0,
                "roughnessFactor" : 0.5
            }
        }
    ],
    "meshes" : [
        {
            "name" : "Cube.300",
            "primitives" : [
                {
                    "attributes" : {
                        "POSITION" : 0,
                        "NORMAL" : 1
                    },
                    "indices" : 2,
                    "material" : 0
                },
                {
                    "attributes" : {
                        "POSITION" : 3,
                        "NORMAL" : 4
                    },
                    "indices" : 5,
                    "material" : 1
                },
                {
                    "attributes" : {
                        "POSITION" : 6,
                        "NORMAL" : 7
                    },
                    "indices" : 8,
                    "material" : 2
                },
                {
                    "attributes" : {
                        "POSITION" : 9,
                        "NORMAL" : 10
                    },
                    "indices" : 11,
                    "material" : 3
                }
            ]
        }
    ],
    "accessors" : [
        {
            "bufferView" : 0,
            "componentType" : 5126,
            "count" : 236,
            "max" : [
                0.8315589427947998,
                5.800602436065674,
                0.3573695421218872
            ],
            "min" : [
                -0.5845789313316345,
                1.3001292943954468,
                -0.357369989156723
            ],
            "type" : "VEC3"
        },
        {
            "bufferView" : 1,
            "componentType" : 5126,
            "count" : 236,
            "type" : "VEC3"
        },
        {
            "bufferView" : 2,
            "componentType" : 5123,
            "count" : 528,
            "type" : "SCALAR"
        },
        {
            "bufferView" : 3,
            "componentType" : 5126,
            "count" : 100,
            "max" : [
                0.29866790771484375,
                6.397902965545654,
                0.09981708228588104
            ],
            "min" : [
                -0.354603111743927,
                1.810470461845398,
                -0.10049235075712204
            ],
            "type" : "VEC3"
        },
        {
            "bufferView" : 4,
            "componentType" : 5126,
            "count" : 100,
            "type" : "VEC3"
        },
        {
            "bufferView" : 5,
            "componentType" : 5123,
            "count" : 246,
            "type" : "SCALAR"
        },
        {
            "bufferView" : 6,
            "componentType" : 5126,
            "count" : 342,
            "max" : [
                0.4942249357700348,
                1.3277413845062256,
                0.28736191987991333
            ],
            "min" : [
                -0.46002644300460815,
                -1.284301519393921,
                -0.2896365821361542
            ],
            "type" : "VEC3"
        },
        {
            "bufferView" : 7,
            "componentType" : 5126,
            "count" : 342,
            "type" : "VEC3"
        },
        {
            "bufferView" : 8,
            "componentType" : 5123,
            "count" : 1203,
            "type" : "SCALAR"
        },
        {
            "bufferView" : 9,
            "componentType" : 5126,
            "count" : 48,
            "max" : [
                0.6755056381225586,
                1.4005746841430664,
                0.33614030480384827
            ],
            "min" : [
                -0.4268394708633423,
                1.1201395988464355,
                -0.3361407518386841
            ],
            "type" : "VEC3"
        },
        {
            "bufferView" : 10,
            "componentType" : 5126,
            "count" : 48,
            "type" : "VEC3"
        },
        {
            "bufferView" : 11,
            "componentType" : 5123,
            "count" : 84,
            "type" : "SCALAR"
        }
    ],
    "bufferViews" : [
        {
            "buffer" : 0,
            "byteLength" : 2832,
            "byteOffset" : 0
        },
        {
            "buffer" : 0,
            "byteLength" : 2832,
            "byteOffset" : 2832
        },
        {
            "buffer" : 0,
            "byteLength" : 1056,
            "byteOffset" : 5664
        },
        {
            "buffer" : 0,
            "byteLength" : 1200,
            "byteOffset" : 6720
        },
        {
            "buffer" : 0,
            "byteLength" : 1200,
            "byteOffset" : 7920
        },
        {
            "buffer" : 0,
            "byteLength" : 492,
            "byteOffset" : 9120
        },
        {
            "buffer" : 0,
            "byteLength" : 4104,
            "byteOffset" : 9612
        },
        {
            "buffer" : 0,
            "byteLength" : 4104,
            "byteOffset" : 13716
        },
        {
            "buffer" : 0,
            "byteLength" : 2406,
            "byteOffset" : 17820
        },
        {
            "buffer" : 0,
            "byteLength" : 576,
            "byteOffset" : 20228
        },
        {
            "buffer" : 0,
            "byteLength" : 576,
            "byteOffset" : 20804
        },
        {
            "buffer" : 0,
            "byteLength" : 168,
            "byteOffset" : 21380
        }
    ],
    "buffers" : [
        {
            "byteLength" : 21548,
            "uri" : "data:application/octet-stream;base64,"
        }
    ]
}
