{
    "asset" : {
        "generator" : "Khronos glTF Blender I/O v1.7.33",
        "version" : "2.0"
    },
    "scene" : 0,
    "scenes" : [
        {
            "name" : "Scene",
            "nodes" : [
                0
            ]
        }
    ],
    "nodes" : [
        {
            "mesh" : 0,
            "name" : "Knife_2",
            "scale" : [
                0.1751766949892044,
                0.1751766949892044,
                0.1751766800880432
            ]
        }
    ],
    "materials" : [
        {
            "doubleSided" : true,
            "name" : "DarkGrey",
            "pbrMetallicRoughness" : {
                "baseColorFactor" : [
                    0.0666259378194809,
                    0.0666259378194809,
                    0.0666259378194809,
                    1
                ],
                "metallicFactor" : 0,
                "roughnessFactor" : 0.5
            }
        },
        {
            "doubleSided" : true,
            "name" : "Black",
            "pbrMetallicRoughness" : {
                "baseColorFactor" : [
                    0.02364896982908249,
                    0.02364896982908249,
                    0.02364896982908249,
                    1
                ],
                "metallicFactor" : 0,
                "roughnessFactor" : 0.5
            }
        },
        {
            "doubleSided" : true,
            "name" : "LightGrey",
            "pbrMetallicRoughness" : {
                "baseColorFactor" : [
                    0.37574493885040283,
                    0.37574493885040283,
                    0.37574493885040283,
                    1
                ],
                "metallicFactor" : 0,
                "roughnessFactor" : 0.5
            }
        }
    ],
    "meshes" : [
        {
            "name" : "Cylinder.027",
            "primitives" : [
                {
                    "attributes" : {
                        "POSITION" : 0,
                        "NORMAL" : 1
                    },
                    "indices" : 2,
                    "material" : 0
                },
                {
                    "attributes" : {
                        "POSITION" : 3,
                        "NORMAL" : 4
                    },
                    "indices" : 5,
                    "material" : 1
                },
                {
                    "attributes" : {
                        "POSITION" : 6,
                        "NORMAL" : 7
                    },
                    "indices" : 8,
                    "material" : 2
                }
            ]
        }
    ],
    "accessors" : [
        {
            "bufferView" : 0,
            "componentType" : 5126,
            "count" : 616,
            "max" : [
                0.712793231010437,
                6.08292818069458,
                0.3704850375652313
            ],
            "min" : [
                -0.7033447623252869,
                -1.0498195886611938,
                -0.3704850375652313
            ],
            "type" : "VEC3"
        },
        {
            "bufferView" : 1,
            "componentType" : 5126,
            "count" : 616,
            "type" : "VEC3"
        },
        {
            "bufferView" : 2,
            "componentType" : 5123,
            "count" : 1824,
            "type" : "SCALAR"
        },
        {
            "bufferView" : 3,
            "componentType" : 5126,
            "count" : 72,
            "max" : [
                0.5601208209991455,
                1.49642014503479,
                0.29530829191207886
            ],
            "min" : [
                -0.550603985786438,
                1.1537889242172241,
                -0.2953170835971832
            ],
            "type" : "VEC3"
        },
        {
            "bufferView" : 4,
            "componentType" : 5126,
            "count" : 72,
            "type" : "VEC3"
        },
        {
            "bufferView" : 5,
            "componentType" : 5123,
            "count" : 156,
            "type" : "SCALAR"
        },
        {
            "bufferView" : 6,
            "componentType" : 5126,
            "count" : 130,
            "max" : [
                0.5492851138114929,
                6.672321796417236,
                0.10013505071401596
            ],
            "min" : [
                -0.5870508551597595,
                1.8811546564102173,
                -0.10082226991653442
            ],
            "type" : "VEC3"
        },
        {
            "bufferView" : 7,
            "componentType" : 5126,
            "count" : 130,
            "type" : "VEC3"
        },
        {
            "bufferView" : 8,
            "componentType" : 5123,
            "count" : 312,
            "type" : "SCALAR"
        }
    ],
    "bufferViews" : [
        {
            "buffer" : 0,
            "byteLength" : 7392,
            "byteOffset" : 0
        },
        {
            "buffer" : 0,
            "byteLength" : 7392,
            "byteOffset" : 7392
        },
        {
            "buffer" : 0,
            "byteLength" : 3648,
            "byteOffset" : 14784
        },
        {
            "buffer" : 0,
            "byteLength" : 864,
            "byteOffset" : 18432
        },
        {
            "buffer" : 0,
            "byteLength" : 864,
            "byteOffset" : 19296
        },
        {
            "buffer" : 0,
            "byteLength" : 312,
            "byteOffset" : 20160
        },
        {
            "buffer" : 0,
            "byteLength" : 1560,
            "byteOffset" : 20472
        },
        {
            "buffer" : 0,
            "byteLength" : 1560,
            "byteOffset" : 22032
        },
        {
            "buffer" : 0,
            "byteLength" : 624,
            "byteOffset" : 23592
        }
    ],
    "buffers" : [
        {
            "byteLength" : 24216,
            "uri" : "data:application/octet-stream;base64,"
        }
    ]
}
