{
    "asset" : {
        "generator" : "Khronos glTF Blender I/O v1.7.33",
        "version" : "2.0"
    },
    "scene" : 0,
    "scenes" : [
        {
            "name" : "Scene",
            "nodes" : [
                0
            ]
        }
    ],
    "nodes" : [
        {
            "mesh" : 0,
            "name" : "Revolver"
        }
    ],
    "materials" : [
        {
            "doubleSided" : true,
            "name" : "Grey2",
            "pbrMetallicRoughness" : {
                "baseColorFactor" : [
                    0.14239658415317535,
                    0.14239658415317535,
                    0.14239658415317535,
                    1
                ],
                "metallicFactor" : 0,
                "roughnessFactor" : 0.5
            }
        },
        {
            "doubleSided" : true,
            "name" : "Grey",
            "pbrMetallicRoughness" : {
                "baseColorFactor" : [
                    0.2746773064136505,
                    0.28744083642959595,
                    0.35153263807296753,
                    1
                ],
                "metallicFactor" : 0,
                "roughnessFactor" : 0.5
            }
        },
        {
            "doubleSided" : true,
            "name" : "DarkGrey",
            "pbrMetallicRoughness" : {
                "baseColorFactor" : [
                    0.0666259378194809,
                    0.0666259378194809,
                    0.0666259378194809,
                    1
                ],
                "metallicFactor" : 0,
                "roughnessFactor" : 0.5
            }
        },
        {
            "doubleSided" : true,
            "name" : "Wood",
            "pbrMetallicRoughness" : {
                "baseColorFactor" : [
                    0.3757452964782715,
                    0.20292167365550995,
                    0.0587104856967926,
                    1
                ],
                "metallicFactor" : 0,
                "roughnessFactor" : 0.5
            }
        }
    ],
    "meshes" : [
        {
            "name" : "Cube.016",
            "primitives" : [
                {
                    "attributes" : {
                        "POSITION" : 0,
                        "NORMAL" : 1,
                        "COLOR_0" : 2
                    },
                    "indices" : 3,
                    "material" : 0
                },
                {
                    "attributes" : {
                        "POSITION" : 4,
                        "NORMAL" : 5,
                        "COLOR_0" : 6
                    },
                    "indices" : 7,
                    "material" : 1
                },
                {
                    "attributes" : {
                        "POSITION" : 8,
                        "NORMAL" : 9,
                        "COLOR_0" : 10
                    },
                    "indices" : 11,
                    "material" : 2
                },
                {
                    "attributes" : {
                        "POSITION" : 12,
                        "NORMAL" : 13,
                        "COLOR_0" : 14
                    },
                    "indices" : 15,
                    "material" : 3
                }
            ]
        }
    ],
    "accessors" : [
        {
            "bufferView" : 0,
            "componentType" : 5126,
            "count" : 887,
            "max" : [
                -0.08540556579828262,
                0.27791550755500793,
                0.08180855214595795
            ],
            "min" : [
                -0.7924817800521851,
                0.1076703667640686,
                -0.09332236647605896
            ],
            "type" : "VEC3"
        },
        {
            "bufferView" : 1,
            "componentType" : 5126,
            "count" : 887,
            "type" : "VEC3"
        },
        {
            "bufferView" : 2,
            "componentType" : 5123,
            "count" : 887,
            "normalized" : true,
            "type" : "VEC4"
        },
        {
            "bufferView" : 3,
            "componentType" : 5123,
            "count" : 2268,
            "type" : "SCALAR"
        },
        {
            "bufferView" : 4,
            "componentType" : 5126,
            "count" : 466,
            "max" : [
                0.08471305668354034,
                0.3495621085166931,
                0.055749788880348206
            ],
            "min" : [
                -0.8349223732948303,
                -0.04633351415395737,
                -0.0649314597249031
            ],
            "type" : "VEC3"
        },
        {
            "bufferView" : 5,
            "componentType" : 5126,
            "count" : 466,
            "type" : "VEC3"
        },
        {
            "bufferView" : 6,
            "componentType" : 5123,
            "count" : 466,
            "normalized" : true,
            "type" : "VEC4"
        },
        {
            "bufferView" : 7,
            "componentType" : 5123,
            "count" : 1320,
            "type" : "SCALAR"
        },
        {
            "bufferView" : 8,
            "componentType" : 5126,
            "count" : 76,
            "max" : [
                0.1538819521665573,
                0.06196209415793419,
                0.0563909076154232
            ],
            "min" : [
                -0.1994362324476242,
                -0.1793433129787445,
                -0.04298435151576996
            ],
            "type" : "VEC3"
        },
        {
            "bufferView" : 9,
            "componentType" : 5126,
            "count" : 76,
            "type" : "VEC3"
        },
        {
            "bufferView" : 10,
            "componentType" : 5123,
            "count" : 76,
            "normalized" : true,
            "type" : "VEC4"
        },
        {
            "bufferView" : 11,
            "componentType" : 5123,
            "count" : 162,
            "type" : "SCALAR"
        },
        {
            "bufferView" : 12,
            "componentType" : 5126,
            "count" : 91,
            "max" : [
                0.15134871006011963,
                0.14781254529953003,
                0.04840385541319847
            ],
            "min" : [
                -0.09466475248336792,
                -0.1547127366065979,
                -0.04669254645705223
            ],
            "type" : "VEC3"
        },
        {
            "bufferView" : 13,
            "componentType" : 5126,
            "count" : 91,
            "type" : "VEC3"
        },
        {
            "bufferView" : 14,
            "componentType" : 5123,
            "count" : 91,
            "normalized" : true,
            "type" : "VEC4"
        },
        {
            "bufferView" : 15,
            "componentType" : 5123,
            "count" : 312,
            "type" : "SCALAR"
        }
    ],
    "bufferViews" : [
        {
            "buffer" : 0,
            "byteLength" : 10644,
            "byteOffset" : 0
        },
        {
            "buffer" : 0,
            "byteLength" : 10644,
            "byteOffset" : 10644
        },
        {
            "buffer" : 0,
            "byteLength" : 7096,
            "byteOffset" : 21288
        },
        {
            "buffer" : 0,
            "byteLength" : 4536,
            "byteOffset" : 28384
        },
        {
            "buffer" : 0,
            "byteLength" : 5592,
            "byteOffset" : 32920
        },
        {
            "buffer" : 0,
            "byteLength" : 5592,
            "byteOffset" : 38512
        },
        {
            "buffer" : 0,
            "byteLength" : 3728,
            "byteOffset" : 44104
        },
        {
            "buffer" : 0,
            "byteLength" : 2640,
            "byteOffset" : 47832
        },
        {
            "buffer" : 0,
            "byteLength" : 912,
            "byteOffset" : 50472
        },
        {
            "buffer" : 0,
            "byteLength" : 912,
            "byteOffset" : 51384
        },
        {
            "buffer" : 0,
            "byteLength" : 608,
            "byteOffset" : 52296
        },
        {
            "buffer" : 0,
            "byteLength" : 324,
            "byteOffset" : 52904
        },
        {
            "buffer" : 0,
            "byteLength" : 1092,
            "byteOffset" : 53228
        },
        {
            "buffer" : 0,
            "byteLength" : 1092,
            "byteOffset" : 54320
        },
        {
            "buffer" : 0,
            "byteLength" : 728,
            "byteOffset" : 55412
        },
        {
            "buffer" : 0,
            "byteLength" : 624,
            "byteOffset" : 56140
        }
    ],
    "buffers" : [
        {
            "byteLength" : 56764,
            "uri" : "data:application/octet-stream;base64,"
        }
    ]
}
