{
    "asset" : {
        "generator" : "Khronos glTF Blender I/O v1.7.33",
        "version" : "2.0"
    },
    "scene" : 0,
    "scenes" : [
        {
            "name" : "Scene",
            "nodes" : [
                0
            ]
        }
    ],
    "nodes" : [
        {
            "mesh" : 0,
            "name" : "Revolver_Small"
        }
    ],
    "materials" : [
        {
            "doubleSided" : true,
            "name" : "Grey2",
            "pbrMetallicRoughness" : {
                "baseColorFactor" : [
                    0.14239658415317535,
                    0.14239658415317535,
                    0.14239658415317535,
                    1
                ],
                "metallicFactor" : 0,
                "roughnessFactor" : 0.5
            }
        },
        {
            "doubleSided" : true,
            "name" : "Grey",
            "pbrMetallicRoughness" : {
                "baseColorFactor" : [
                    0.2746773064136505,
                    0.28744083642959595,
                    0.35153263807296753,
                    1
                ],
                "metallicFactor" : 0,
                "roughnessFactor" : 0.5
            }
        },
        {
            "doubleSided" : true,
            "name" : "DarkGrey",
            "pbrMetallicRoughness" : {
                "baseColorFactor" : [
                    0.0666259378194809,
                    0.0666259378194809,
                    0.0666259378194809,
                    1
                ],
                "metallicFactor" : 0,
                "roughnessFactor" : 0.5
            }
        },
        {
            "doubleSided" : true,
            "name" : "Wood",
            "pbrMetallicRoughness" : {
                "baseColorFactor" : [
                    0.3757452964782715,
                    0.20292167365550995,
                    0.0587104856967926,
                    1
                ],
                "metallicFactor" : 0,
                "roughnessFactor" : 0.5
            }
        }
    ],
    "meshes" : [
        {
            "name" : "Cube.290",
            "primitives" : [
                {
                    "attributes" : {
                        "POSITION" : 0,
                        "NORMAL" : 1,
                        "COLOR_0" : 2
                    },
                    "indices" : 3,
                    "material" : 0
                },
                {
                    "attributes" : {
                        "POSITION" : 4,
                        "NORMAL" : 5,
                        "COLOR_0" : 6
                    },
                    "indices" : 7,
                    "material" : 1
                },
                {
                    "attributes" : {
                        "POSITION" : 8,
                        "NORMAL" : 9,
                        "COLOR_0" : 10
                    },
                    "indices" : 11,
                    "material" : 2
                },
                {
                    "attributes" : {
                        "POSITION" : 12,
                        "NORMAL" : 13,
                        "COLOR_0" : 14
                    },
                    "indices" : 15,
                    "material" : 3
                }
            ]
        }
    ],
    "accessors" : [
        {
            "bufferView" : 0,
            "componentType" : 5126,
            "count" : 757,
            "max" : [
                -0.07273758947849274,
                0.2848803997039795,
                0.0788196548819542
            ],
            "min" : [
                -0.5092542767524719,
                0.08469104021787643,
                -0.0788213312625885
            ],
            "type" : "VEC3"
        },
        {
            "bufferView" : 1,
            "componentType" : 5126,
            "count" : 757,
            "type" : "VEC3"
        },
        {
            "bufferView" : 2,
            "componentType" : 5123,
            "count" : 757,
            "normalized" : true,
            "type" : "VEC4"
        },
        {
            "bufferView" : 3,
            "componentType" : 5123,
            "count" : 2256,
            "type" : "SCALAR"
        },
        {
            "bufferView" : 4,
            "componentType" : 5126,
            "count" : 438,
            "max" : [
                0.09907799959182739,
                0.36574700474739075,
                0.04662919044494629
            ],
            "min" : [
                -0.5400809645652771,
                -0.020900268107652664,
                -0.04663076624274254
            ],
            "type" : "VEC3"
        },
        {
            "bufferView" : 5,
            "componentType" : 5126,
            "count" : 438,
            "type" : "VEC3"
        },
        {
            "bufferView" : 6,
            "componentType" : 5123,
            "count" : 438,
            "normalized" : true,
            "type" : "VEC4"
        },
        {
            "bufferView" : 7,
            "componentType" : 5123,
            "count" : 1320,
            "type" : "SCALAR"
        },
        {
            "bufferView" : 8,
            "componentType" : 5126,
            "count" : 71,
            "max" : [
                0.12307664752006531,
                0.08319959044456482,
                0.04327224940061569
            ],
            "min" : [
                -0.19250856339931488,
                -0.14390112459659576,
                -0.0432739295065403
            ],
            "type" : "VEC3"
        },
        {
            "bufferView" : 9,
            "componentType" : 5126,
            "count" : 71,
            "type" : "VEC3"
        },
        {
            "bufferView" : 10,
            "componentType" : 5123,
            "count" : 71,
            "normalized" : true,
            "type" : "VEC4"
        },
        {
            "bufferView" : 11,
            "componentType" : 5123,
            "count" : 162,
            "type" : "SCALAR"
        },
        {
            "bufferView" : 12,
            "componentType" : 5126,
            "count" : 79,
            "max" : [
                0.12078633904457092,
                0.1526198834180832,
                0.03723783418536186
            ],
            "min" : [
                -0.09582293033599854,
                -0.12208536267280579,
                -0.03723781555891037
            ],
            "type" : "VEC3"
        },
        {
            "bufferView" : 13,
            "componentType" : 5126,
            "count" : 79,
            "type" : "VEC3"
        },
        {
            "bufferView" : 14,
            "componentType" : 5123,
            "count" : 79,
            "normalized" : true,
            "type" : "VEC4"
        },
        {
            "bufferView" : 15,
            "componentType" : 5123,
            "count" : 312,
            "type" : "SCALAR"
        }
    ],
    "bufferViews" : [
        {
            "buffer" : 0,
            "byteLength" : 9084,
            "byteOffset" : 0
        },
        {
            "buffer" : 0,
            "byteLength" : 9084,
            "byteOffset" : 9084
        },
        {
            "buffer" : 0,
            "byteLength" : 6056,
            "byteOffset" : 18168
        },
        {
            "buffer" : 0,
            "byteLength" : 4512,
            "byteOffset" : 24224
        },
        {
            "buffer" : 0,
            "byteLength" : 5256,
            "byteOffset" : 28736
        },
        {
            "buffer" : 0,
            "byteLength" : 5256,
            "byteOffset" : 33992
        },
        {
            "buffer" : 0,
            "byteLength" : 3504,
            "byteOffset" : 39248
        },
        {
            "buffer" : 0,
            "byteLength" : 2640,
            "byteOffset" : 42752
        },
        {
            "buffer" : 0,
            "byteLength" : 852,
            "byteOffset" : 45392
        },
        {
            "buffer" : 0,
            "byteLength" : 852,
            "byteOffset" : 46244
        },
        {
            "buffer" : 0,
            "byteLength" : 568,
            "byteOffset" : 47096
        },
        {
            "buffer" : 0,
            "byteLength" : 324,
            "byteOffset" : 47664
        },
        {
            "buffer" : 0,
            "byteLength" : 948,
            "byteOffset" : 47988
        },
        {
            "buffer" : 0,
            "byteLength" : 948,
            "byteOffset" : 48936
        },
        {
            "buffer" : 0,
            "byteLength" : 632,
            "byteOffset" : 49884
        },
        {
            "buffer" : 0,
            "byteLength" : 624,
            "byteOffset" : 50516
        }
    ],
    "buffers" : [
        {
            "byteLength" : 51140,
            "uri" : "data:application/octet-stream;base64,"
        }
    ]
}
