{
    "asset" : {
        "generator" : "Khronos glTF Blender I/O v1.7.33",
        "version" : "2.0"
    },
    "scene" : 0,
    "scenes" : [
        {
            "name" : "Scene",
            "nodes" : [
                0
            ]
        }
    ],
    "nodes" : [
        {
            "mesh" : 0,
            "name" : "RocketLauncher",
            "rotation" : [
                0,
                -1,
                0,
                1.6292068494294654e-07
            ],
            "scale" : [
                0.20668628811836243,
                0.20668630301952362,
                0.20668630301952362
            ]
        }
    ],
    "materials" : [
        {
            "doubleSided" : true,
            "name" : "Black",
            "pbrMetallicRoughness" : {
                "baseColorFactor" : [
                    0.02364896982908249,
                    0.02364896982908249,
                    0.02364896982908249,
                    1
                ],
                "metallicFactor" : 0,
                "roughnessFactor" : 0.5
            }
        },
        {
            "doubleSided" : true,
            "name" : "Grey",
            "pbrMetallicRoughness" : {
                "baseColorFactor" : [
                    0.2746773064136505,
                    0.28744083642959595,
                    0.35153263807296753,
                    1
                ],
                "metallicFactor" : 0,
                "roughnessFactor" : 0.5
            }
        },
        {
            "doubleSided" : true,
            "name" : "DarkGrey",
            "pbrMetallicRoughness" : {
                "baseColorFactor" : [
                    0.0666259378194809,
                    0.0666259378194809,
                    0.0666259378194809,
                    1
                ],
                "metallicFactor" : 0,
                "roughnessFactor" : 0.5
            }
        },
        {
            "doubleSided" : true,
            "name" : "Red",
            "pbrMetallicRoughness" : {
                "baseColorFactor" : [
                    0.3263714909553528,
                    0.047813333570957184,
                    0.044884875416755676,
                    1
                ],
                "metallicFactor" : 0,
                "roughnessFactor" : 0.5
            }
        }
    ],
    "meshes" : [
        {
            "name" : "Cube.298",
            "primitives" : [
                {
                    "attributes" : {
                        "POSITION" : 0,
                        "NORMAL" : 1,
                        "COLOR_0" : 2
                    },
                    "indices" : 3,
                    "material" : 0
                },
                {
                    "attributes" : {
                        "POSITION" : 4,
                        "NORMAL" : 5,
                        "COLOR_0" : 6
                    },
                    "indices" : 7,
                    "material" : 1
                },
                {
                    "attributes" : {
                        "POSITION" : 8,
                        "NORMAL" : 9,
                        "COLOR_0" : 10
                    },
                    "indices" : 11,
                    "material" : 2
                },
                {
                    "attributes" : {
                        "POSITION" : 12,
                        "NORMAL" : 13,
                        "COLOR_0" : 14
                    },
                    "indices" : 15,
                    "material" : 3
                }
            ]
        }
    ],
    "accessors" : [
        {
            "bufferView" : 0,
            "componentType" : 5126,
            "count" : 405,
            "max" : [
                3.1293623447418213,
                2.593344211578369,
                0.9367755651473999
            ],
            "min" : [
                -2.2783806324005127,
                -0.23005259037017822,
                -0.936767578125
            ],
            "type" : "VEC3"
        },
        {
            "bufferView" : 1,
            "componentType" : 5126,
            "count" : 405,
            "type" : "VEC3"
        },
        {
            "bufferView" : 2,
            "componentType" : 5123,
            "count" : 405,
            "normalized" : true,
            "type" : "VEC4"
        },
        {
            "bufferView" : 3,
            "componentType" : 5123,
            "count" : 1140,
            "type" : "SCALAR"
        },
        {
            "bufferView" : 4,
            "componentType" : 5126,
            "count" : 305,
            "max" : [
                3.777188539505005,
                3.081183433532715,
                1.0696419477462769
            ],
            "min" : [
                -2.520267963409424,
                0.015065178275108337,
                -1.0696340799331665
            ],
            "type" : "VEC3"
        },
        {
            "bufferView" : 5,
            "componentType" : 5126,
            "count" : 305,
            "type" : "VEC3"
        },
        {
            "bufferView" : 6,
            "componentType" : 5123,
            "count" : 305,
            "normalized" : true,
            "type" : "VEC4"
        },
        {
            "bufferView" : 7,
            "componentType" : 5123,
            "count" : 906,
            "type" : "SCALAR"
        },
        {
            "bufferView" : 8,
            "componentType" : 5126,
            "count" : 218,
            "max" : [
                3.0160975456237793,
                2.7855892181396484,
                1.132360577583313
            ],
            "min" : [
                -2.2783806324005127,
                -0.5304669141769409,
                -1.1363223791122437
            ],
            "type" : "VEC3"
        },
        {
            "bufferView" : 9,
            "componentType" : 5126,
            "count" : 218,
            "type" : "VEC3"
        },
        {
            "bufferView" : 10,
            "componentType" : 5123,
            "count" : 218,
            "normalized" : true,
            "type" : "VEC4"
        },
        {
            "bufferView" : 11,
            "componentType" : 5123,
            "count" : 534,
            "type" : "SCALAR"
        },
        {
            "bufferView" : 12,
            "componentType" : 5126,
            "count" : 332,
            "max" : [
                3.394310712814331,
                2.756739616394043,
                1.0000038146972656
            ],
            "min" : [
                -1.0195286273956299,
                -0.46220266819000244,
                -0.9999964237213135
            ],
            "type" : "VEC3"
        },
        {
            "bufferView" : 13,
            "componentType" : 5126,
            "count" : 332,
            "type" : "VEC3"
        },
        {
            "bufferView" : 14,
            "componentType" : 5123,
            "count" : 332,
            "normalized" : true,
            "type" : "VEC4"
        },
        {
            "bufferView" : 15,
            "componentType" : 5123,
            "count" : 1104,
            "type" : "SCALAR"
        }
    ],
    "bufferViews" : [
        {
            "buffer" : 0,
            "byteLength" : 4860,
            "byteOffset" : 0
        },
        {
            "buffer" : 0,
            "byteLength" : 4860,
            "byteOffset" : 4860
        },
        {
            "buffer" : 0,
            "byteLength" : 3240,
            "byteOffset" : 9720
        },
        {
            "buffer" : 0,
            "byteLength" : 2280,
            "byteOffset" : 12960
        },
        {
            "buffer" : 0,
            "byteLength" : 3660,
            "byteOffset" : 15240
        },
        {
            "buffer" : 0,
            "byteLength" : 3660,
            "byteOffset" : 18900
        },
        {
            "buffer" : 0,
            "byteLength" : 2440,
            "byteOffset" : 22560
        },
        {
            "buffer" : 0,
            "byteLength" : 1812,
            "byteOffset" : 25000
        },
        {
            "buffer" : 0,
            "byteLength" : 2616,
            "byteOffset" : 26812
        },
        {
            "buffer" : 0,
            "byteLength" : 2616,
            "byteOffset" : 29428
        },
        {
            "buffer" : 0,
            "byteLength" : 1744,
            "byteOffset" : 32044
        },
        {
            "buffer" : 0,
            "byteLength" : 1068,
            "byteOffset" : 33788
        },
        {
            "buffer" : 0,
            "byteLength" : 3984,
            "byteOffset" : 34856
        },
        {
            "buffer" : 0,
            "byteLength" : 3984,
            "byteOffset" : 38840
        },
        {
            "buffer" : 0,
            "byteLength" : 2656,
            "byteOffset" : 42824
        },
        {
            "buffer" : 0,
            "byteLength" : 2208,
            "byteOffset" : 45480
        }
    ],
    "buffers" : [
        {
            "byteLength" : 47688,
            "uri" : "data:application/octet-stream;base64,"
        }
    ]
}
