{
    "asset" : {
        "generator" : "Khronos glTF Blender I/O v1.7.33",
        "version" : "2.0"
    },
    "scene" : 0,
    "scenes" : [
        {
            "name" : "Scene",
            "nodes" : [
                0
            ]
        }
    ],
    "nodes" : [
        {
            "mesh" : 0,
            "name" : "ShortCannon"
        }
    ],
    "materials" : [
        {
            "doubleSided" : true,
            "name" : "Grey",
            "pbrMetallicRoughness" : {
                "baseColorFactor" : [
                    0.2746773064136505,
                    0.28744083642959595,
                    0.35153263807296753,
                    1
                ],
                "metallicFactor" : 0,
                "roughnessFactor" : 0.5
            }
        },
        {
            "doubleSided" : true,
            "name" : "DarkGrey",
            "pbrMetallicRoughness" : {
                "baseColorFactor" : [
                    0.0666259378194809,
                    0.0666259378194809,
                    0.0666259378194809,
                    1
                ],
                "metallicFactor" : 0,
                "roughnessFactor" : 0.5
            }
        },
        {
            "doubleSided" : true,
            "name" : "Wood",
            "pbrMetallicRoughness" : {
                "baseColorFactor" : [
                    0.3757452964782715,
                    0.20292167365550995,
                    0.0587104856967926,
                    1
                ],
                "metallicFactor" : 0,
                "roughnessFactor" : 0.5
            }
        }
    ],
    "meshes" : [
        {
            "name" : "Cube.000",
            "primitives" : [
                {
                    "attributes" : {
                        "POSITION" : 0,
                        "NORMAL" : 1,
                        "COLOR_0" : 2
                    },
                    "indices" : 3,
                    "material" : 0
                },
                {
                    "attributes" : {
                        "POSITION" : 4,
                        "NORMAL" : 5,
                        "COLOR_0" : 6
                    },
                    "indices" : 7,
                    "material" : 1
                },
                {
                    "attributes" : {
                        "POSITION" : 8,
                        "NORMAL" : 9,
                        "COLOR_0" : 10
                    },
                    "indices" : 11,
                    "material" : 2
                }
            ]
        }
    ],
    "accessors" : [
        {
            "bufferView" : 0,
            "componentType" : 5126,
            "count" : 153,
            "max" : [
                -0.12832704186439514,
                0.13499869406223297,
                0.06064474955201149
            ],
            "min" : [
                -0.6553969979286194,
                -0.06064147874712944,
                -0.07110743969678879
            ],
            "type" : "VEC3"
        },
        {
            "bufferView" : 1,
            "componentType" : 5126,
            "count" : 153,
            "type" : "VEC3"
        },
        {
            "bufferView" : 2,
            "componentType" : 5123,
            "count" : 153,
            "normalized" : true,
            "type" : "VEC4"
        },
        {
            "bufferView" : 3,
            "componentType" : 5123,
            "count" : 402,
            "type" : "SCALAR"
        },
        {
            "bufferView" : 4,
            "componentType" : 5126,
            "count" : 292,
            "max" : [
                0.30006784200668335,
                0.15363745391368866,
                0.05910550802946091
            ],
            "min" : [
                -0.906170129776001,
                -0.16043929755687714,
                -0.06270654499530792
            ],
            "type" : "VEC3"
        },
        {
            "bufferView" : 5,
            "componentType" : 5126,
            "count" : 292,
            "type" : "VEC3"
        },
        {
            "bufferView" : 6,
            "componentType" : 5123,
            "count" : 292,
            "normalized" : true,
            "type" : "VEC4"
        },
        {
            "bufferView" : 7,
            "componentType" : 5123,
            "count" : 684,
            "type" : "SCALAR"
        },
        {
            "bufferView" : 8,
            "componentType" : 5126,
            "count" : 107,
            "max" : [
                0.2845941483974457,
                0.10546674579381943,
                0.05116472765803337
            ],
            "min" : [
                -0.31117910146713257,
                -0.1456390619277954,
                -0.05037115886807442
            ],
            "type" : "VEC3"
        },
        {
            "bufferView" : 9,
            "componentType" : 5126,
            "count" : 107,
            "type" : "VEC3"
        },
        {
            "bufferView" : 10,
            "componentType" : 5123,
            "count" : 107,
            "normalized" : true,
            "type" : "VEC4"
        },
        {
            "bufferView" : 11,
            "componentType" : 5123,
            "count" : 300,
            "type" : "SCALAR"
        }
    ],
    "bufferViews" : [
        {
            "buffer" : 0,
            "byteLength" : 1836,
            "byteOffset" : 0
        },
        {
            "buffer" : 0,
            "byteLength" : 1836,
            "byteOffset" : 1836
        },
        {
            "buffer" : 0,
            "byteLength" : 1224,
            "byteOffset" : 3672
        },
        {
            "buffer" : 0,
            "byteLength" : 804,
            "byteOffset" : 4896
        },
        {
            "buffer" : 0,
            "byteLength" : 3504,
            "byteOffset" : 5700
        },
        {
            "buffer" : 0,
            "byteLength" : 3504,
            "byteOffset" : 9204
        },
        {
            "buffer" : 0,
            "byteLength" : 2336,
            "byteOffset" : 12708
        },
        {
            "buffer" : 0,
            "byteLength" : 1368,
            "byteOffset" : 15044
        },
        {
            "buffer" : 0,
            "byteLength" : 1284,
            "byteOffset" : 16412
        },
        {
            "buffer" : 0,
            "byteLength" : 1284,
            "byteOffset" : 17696
        },
        {
            "buffer" : 0,
            "byteLength" : 856,
            "byteOffset" : 18980
        },
        {
            "buffer" : 0,
            "byteLength" : 600,
            "byteOffset" : 19836
        }
    ],
    "buffers" : [
        {
            "byteLength" : 20436,
            "uri" : "data:application/octet-stream;base64,"
        }
    ]
}
