{
    "asset" : {
        "generator" : "Khronos glTF Blender I/O v1.7.33",
        "version" : "2.0"
    },
    "scene" : 0,
    "scenes" : [
        {
            "name" : "Scene",
            "nodes" : [
                0
            ]
        }
    ],
    "nodes" : [
        {
            "mesh" : 0,
            "name" : "Shotgun"
        }
    ],
    "materials" : [
        {
            "doubleSided" : true,
            "name" : "Grey2",
            "pbrMetallicRoughness" : {
                "baseColorFactor" : [
                    0.14239658415317535,
                    0.14239658415317535,
                    0.14239658415317535,
                    1
                ],
                "metallicFactor" : 0,
                "roughnessFactor" : 0.5
            }
        },
        {
            "doubleSided" : true,
            "name" : "Grey",
            "pbrMetallicRoughness" : {
                "baseColorFactor" : [
                    0.2746773064136505,
                    0.28744083642959595,
                    0.35153263807296753,
                    1
                ],
                "metallicFactor" : 0,
                "roughnessFactor" : 0.5
            }
        },
        {
            "doubleSided" : true,
            "name" : "DarkGrey",
            "pbrMetallicRoughness" : {
                "baseColorFactor" : [
                    0.0666259378194809,
                    0.0666259378194809,
                    0.0666259378194809,
                    1
                ],
                "metallicFactor" : 0,
                "roughnessFactor" : 0.5
            }
        },
        {
            "doubleSided" : true,
            "name" : "Wood",
            "pbrMetallicRoughness" : {
                "baseColorFactor" : [
                    0.3757452964782715,
                    0.20292167365550995,
                    0.0587104856967926,
                    1
                ],
                "metallicFactor" : 0,
                "roughnessFactor" : 0.5
            }
        }
    ],
    "meshes" : [
        {
            "name" : "Cube.283",
            "primitives" : [
                {
                    "attributes" : {
                        "POSITION" : 0,
                        "NORMAL" : 1,
                        "COLOR_0" : 2
                    },
                    "indices" : 3,
                    "material" : 0
                },
                {
                    "attributes" : {
                        "POSITION" : 4,
                        "NORMAL" : 5,
                        "COLOR_0" : 6
                    },
                    "indices" : 7,
                    "material" : 1
                },
                {
                    "attributes" : {
                        "POSITION" : 8,
                        "NORMAL" : 9,
                        "COLOR_0" : 10
                    },
                    "indices" : 11,
                    "material" : 2
                },
                {
                    "attributes" : {
                        "POSITION" : 12,
                        "NORMAL" : 13,
                        "COLOR_0" : 14
                    },
                    "indices" : 15,
                    "material" : 3
                }
            ]
        }
    ],
    "accessors" : [
        {
            "bufferView" : 0,
            "componentType" : 5126,
            "count" : 537,
            "max" : [
                -0.907376229763031,
                0.04009151831269264,
                0.052535902708768845
            ],
            "min" : [
                -1.1672614812850952,
                -0.08069143444299698,
                -0.05253523215651512
            ],
            "type" : "VEC3"
        },
        {
            "bufferView" : 1,
            "componentType" : 5126,
            "count" : 537,
            "type" : "VEC3"
        },
        {
            "bufferView" : 2,
            "componentType" : 5123,
            "count" : 537,
            "normalized" : true,
            "type" : "VEC4"
        },
        {
            "bufferView" : 3,
            "componentType" : 5123,
            "count" : 2172,
            "type" : "SCALAR"
        },
        {
            "bufferView" : 4,
            "componentType" : 5126,
            "count" : 150,
            "max" : [
                -0.1291535347700119,
                0.13655366003513336,
                0.061191800981760025
            ],
            "min" : [
                -0.6901914477348328,
                -0.05492521449923515,
                -0.06119158864021301
            ],
            "type" : "VEC3"
        },
        {
            "bufferView" : 5,
            "componentType" : 5126,
            "count" : 150,
            "type" : "VEC3"
        },
        {
            "bufferView" : 6,
            "componentType" : 5123,
            "count" : 150,
            "normalized" : true,
            "type" : "VEC4"
        },
        {
            "bufferView" : 7,
            "componentType" : 5123,
            "count" : 402,
            "type" : "SCALAR"
        },
        {
            "bufferView" : 8,
            "componentType" : 5126,
            "count" : 372,
            "max" : [
                0.30053430795669556,
                0.1703670769929886,
                0.05298677831888199
            ],
            "min" : [
                -1.2499083280563354,
                -0.1604127436876297,
                -0.05291907489299774
            ],
            "type" : "VEC3"
        },
        {
            "bufferView" : 9,
            "componentType" : 5126,
            "count" : 372,
            "type" : "VEC3"
        },
        {
            "bufferView" : 10,
            "componentType" : 5123,
            "count" : 372,
            "normalized" : true,
            "type" : "VEC4"
        },
        {
            "bufferView" : 11,
            "componentType" : 5123,
            "count" : 918,
            "type" : "SCALAR"
        },
        {
            "bufferView" : 12,
            "componentType" : 5126,
            "count" : 107,
            "max" : [
                0.28518518805503845,
                0.10675426572561264,
                0.04560147598385811
            ],
            "min" : [
                -0.31075984239578247,
                -0.14568081498146057,
                -0.046053919941186905
            ],
            "type" : "VEC3"
        },
        {
            "bufferView" : 13,
            "componentType" : 5126,
            "count" : 107,
            "type" : "VEC3"
        },
        {
            "bufferView" : 14,
            "componentType" : 5123,
            "count" : 107,
            "normalized" : true,
            "type" : "VEC4"
        },
        {
            "bufferView" : 15,
            "componentType" : 5123,
            "count" : 300,
            "type" : "SCALAR"
        }
    ],
    "bufferViews" : [
        {
            "buffer" : 0,
            "byteLength" : 6444,
            "byteOffset" : 0
        },
        {
            "buffer" : 0,
            "byteLength" : 6444,
            "byteOffset" : 6444
        },
        {
            "buffer" : 0,
            "byteLength" : 4296,
            "byteOffset" : 12888
        },
        {
            "buffer" : 0,
            "byteLength" : 4344,
            "byteOffset" : 17184
        },
        {
            "buffer" : 0,
            "byteLength" : 1800,
            "byteOffset" : 21528
        },
        {
            "buffer" : 0,
            "byteLength" : 1800,
            "byteOffset" : 23328
        },
        {
            "buffer" : 0,
            "byteLength" : 1200,
            "byteOffset" : 25128
        },
        {
            "buffer" : 0,
            "byteLength" : 804,
            "byteOffset" : 26328
        },
        {
            "buffer" : 0,
            "byteLength" : 4464,
            "byteOffset" : 27132
        },
        {
            "buffer" : 0,
            "byteLength" : 4464,
            "byteOffset" : 31596
        },
        {
            "buffer" : 0,
            "byteLength" : 2976,
            "byteOffset" : 36060
        },
        {
            "buffer" : 0,
            "byteLength" : 1836,
            "byteOffset" : 39036
        },
        {
            "buffer" : 0,
            "byteLength" : 1284,
            "byteOffset" : 40872
        },
        {
            "buffer" : 0,
            "byteLength" : 1284,
            "byteOffset" : 42156
        },
        {
            "buffer" : 0,
            "byteLength" : 856,
            "byteOffset" : 43440
        },
        {
            "buffer" : 0,
            "byteLength" : 600,
            "byteOffset" : 44296
        }
    ],
    "buffers" : [
        {
            "byteLength" : 44896,
            "uri" : "data:application/octet-stream;base64,"
        }
    ]
}
