{
    "asset" : {
        "generator" : "Khronos glTF Blender I/O v1.7.33",
        "version" : "2.0"
    },
    "scene" : 0,
    "scenes" : [
        {
            "name" : "Scene",
            "nodes" : [
                0
            ]
        }
    ],
    "nodes" : [
        {
            "mesh" : 0,
            "name" : "Shovel",
            "rotation" : [
                0.00017655508418101817,
                0.008261524140834808,
                0.9999648928642273,
                0.001404944690875709
            ],
            "scale" : [
                0.7433924674987793,
                0.803274929523468,
                0.8032749891281128
            ]
        }
    ],
    "materials" : [
        {
            "doubleSided" : true,
            "name" : "DarkWood",
            "pbrMetallicRoughness" : {
                "baseColorFactor" : [
                    0.14238348603248596,
                    0.08724373579025269,
                    0.044256653636693954,
                    1
                ],
                "metallicFactor" : 0,
                "roughnessFactor" : 0.5
            }
        },
        {
            "doubleSided" : true,
            "name" : "Grey",
            "pbrMetallicRoughness" : {
                "baseColorFactor" : [
                    0.2746773064136505,
                    0.28744083642959595,
                    0.35153263807296753,
                    1
                ],
                "metallicFactor" : 0,
                "roughnessFactor" : 0.5
            }
        },
        {
            "doubleSided" : true,
            "name" : "Red",
            "pbrMetallicRoughness" : {
                "baseColorFactor" : [
                    0.3263714909553528,
                    0.047813333570957184,
                    0.044884875416755676,
                    1
                ],
                "metallicFactor" : 0,
                "roughnessFactor" : 0.5
            }
        }
    ],
    "meshes" : [
        {
            "name" : "Cylinder.025",
            "primitives" : [
                {
                    "attributes" : {
                        "POSITION" : 0,
                        "NORMAL" : 1,
                        "COLOR_0" : 2
                    },
                    "indices" : 3,
                    "material" : 0
                },
                {
                    "attributes" : {
                        "POSITION" : 4,
                        "NORMAL" : 5,
                        "COLOR_0" : 6
                    },
                    "indices" : 7,
                    "material" : 1
                },
                {
                    "attributes" : {
                        "POSITION" : 8,
                        "NORMAL" : 9,
                        "COLOR_0" : 10
                    },
                    "indices" : 11,
                    "material" : 2
                }
            ]
        }
    ],
    "accessors" : [
        {
            "bufferView" : 0,
            "componentType" : 5126,
            "count" : 48,
            "max" : [
                0.045241501182317734,
                0.10726121068000793,
                0.039598509669303894
            ],
            "min" : [
                -0.04485953971743584,
                -0.16958680748939514,
                -0.0312435831874609
            ],
            "type" : "VEC3"
        },
        {
            "bufferView" : 1,
            "componentType" : 5126,
            "count" : 48,
            "type" : "VEC3"
        },
        {
            "bufferView" : 2,
            "componentType" : 5123,
            "count" : 48,
            "normalized" : true,
            "type" : "VEC4"
        },
        {
            "bufferView" : 3,
            "componentType" : 5123,
            "count" : 144,
            "type" : "SCALAR"
        },
        {
            "bufferView" : 4,
            "componentType" : 5126,
            "count" : 150,
            "max" : [
                0.23680070042610168,
                -0.1510864496231079,
                0.046742700040340424
            ],
            "min" : [
                -0.23635108768939972,
                -0.8326311707496643,
                -0.04067109525203705
            ],
            "type" : "VEC3"
        },
        {
            "bufferView" : 5,
            "componentType" : 5126,
            "count" : 150,
            "type" : "VEC3"
        },
        {
            "bufferView" : 6,
            "componentType" : 5123,
            "count" : 150,
            "normalized" : true,
            "type" : "VEC4"
        },
        {
            "bufferView" : 7,
            "componentType" : 5123,
            "count" : 426,
            "type" : "SCALAR"
        },
        {
            "bufferView" : 8,
            "componentType" : 5126,
            "count" : 359,
            "max" : [
                0.16526253521442413,
                0.5460231900215149,
                0.050469718873500824
            ],
            "min" : [
                -0.16488061845302582,
                0.10708142817020416,
                -0.042115285992622375
            ],
            "type" : "VEC3"
        },
        {
            "bufferView" : 9,
            "componentType" : 5126,
            "count" : 359,
            "type" : "VEC3"
        },
        {
            "bufferView" : 10,
            "componentType" : 5123,
            "count" : 359,
            "normalized" : true,
            "type" : "VEC4"
        },
        {
            "bufferView" : 11,
            "componentType" : 5123,
            "count" : 1416,
            "type" : "SCALAR"
        }
    ],
    "bufferViews" : [
        {
            "buffer" : 0,
            "byteLength" : 576,
            "byteOffset" : 0
        },
        {
            "buffer" : 0,
            "byteLength" : 576,
            "byteOffset" : 576
        },
        {
            "buffer" : 0,
            "byteLength" : 384,
            "byteOffset" : 1152
        },
        {
            "buffer" : 0,
            "byteLength" : 288,
            "byteOffset" : 1536
        },
        {
            "buffer" : 0,
            "byteLength" : 1800,
            "byteOffset" : 1824
        },
        {
            "buffer" : 0,
            "byteLength" : 1800,
            "byteOffset" : 3624
        },
        {
            "buffer" : 0,
            "byteLength" : 1200,
            "byteOffset" : 5424
        },
        {
            "buffer" : 0,
            "byteLength" : 852,
            "byteOffset" : 6624
        },
        {
            "buffer" : 0,
            "byteLength" : 4308,
            "byteOffset" : 7476
        },
        {
            "buffer" : 0,
            "byteLength" : 4308,
            "byteOffset" : 11784
        },
        {
            "buffer" : 0,
            "byteLength" : 2872,
            "byteOffset" : 16092
        },
        {
            "buffer" : 0,
            "byteLength" : 2832,
            "byteOffset" : 18964
        }
    ],
    "buffers" : [
        {
            "byteLength" : 21796,
            "uri" : "data:application/octet-stream;base64,"
        }
    ]
}
