{
    "asset" : {
        "generator" : "Khronos glTF Blender I/O v1.7.33",
        "version" : "2.0"
    },
    "scene" : 0,
    "scenes" : [
        {
            "name" : "Scene",
            "nodes" : [
                0
            ]
        }
    ],
    "nodes" : [
        {
            "mesh" : 0,
            "name" : "Sniper"
        }
    ],
    "materials" : [
        {
            "doubleSided" : true,
            "name" : "DarkGrey",
            "pbrMetallicRoughness" : {
                "baseColorFactor" : [
                    0.0666259378194809,
                    0.0666259378194809,
                    0.0666259378194809,
                    1
                ],
                "metallicFactor" : 0,
                "roughnessFactor" : 0.5
            }
        },
        {
            "doubleSided" : true,
            "name" : "Grey",
            "pbrMetallicRoughness" : {
                "baseColorFactor" : [
                    0.2746773064136505,
                    0.28744083642959595,
                    0.35153263807296753,
                    1
                ],
                "metallicFactor" : 0,
                "roughnessFactor" : 0.5
            }
        },
        {
            "doubleSided" : true,
            "name" : "Black",
            "pbrMetallicRoughness" : {
                "baseColorFactor" : [
                    0.02364896982908249,
                    0.02364896982908249,
                    0.02364896982908249,
                    1
                ],
                "metallicFactor" : 0,
                "roughnessFactor" : 0.5
            }
        }
    ],
    "meshes" : [
        {
            "name" : "Cube.312",
            "primitives" : [
                {
                    "attributes" : {
                        "POSITION" : 0,
                        "NORMAL" : 1,
                        "COLOR_0" : 2
                    },
                    "indices" : 3,
                    "material" : 0
                },
                {
                    "attributes" : {
                        "POSITION" : 4,
                        "NORMAL" : 5,
                        "COLOR_0" : 6
                    },
                    "indices" : 7,
                    "material" : 1
                },
                {
                    "attributes" : {
                        "POSITION" : 8,
                        "NORMAL" : 9,
                        "COLOR_0" : 10
                    },
                    "indices" : 11,
                    "material" : 2
                }
            ]
        }
    ],
    "accessors" : [
        {
            "bufferView" : 0,
            "componentType" : 5126,
            "count" : 1138,
            "max" : [
                0.4644028842449188,
                0.30277860164642334,
                0.055506929755210876
            ],
            "min" : [
                -1.5879894495010376,
                -0.2837458550930023,
                -0.06318669766187668
            ],
            "type" : "VEC3"
        },
        {
            "bufferView" : 1,
            "componentType" : 5126,
            "count" : 1138,
            "type" : "VEC3"
        },
        {
            "bufferView" : 2,
            "componentType" : 5123,
            "count" : 1138,
            "normalized" : true,
            "type" : "VEC4"
        },
        {
            "bufferView" : 3,
            "componentType" : 5123,
            "count" : 2010,
            "type" : "SCALAR"
        },
        {
            "bufferView" : 4,
            "componentType" : 5126,
            "count" : 779,
            "max" : [
                0.12323329597711563,
                0.28852608799934387,
                0.06589914858341217
            ],
            "min" : [
                -0.8446338176727295,
                -0.3044968545436859,
                -0.056222718209028244
            ],
            "type" : "VEC3"
        },
        {
            "bufferView" : 5,
            "componentType" : 5126,
            "count" : 779,
            "type" : "VEC3"
        },
        {
            "bufferView" : 6,
            "componentType" : 5123,
            "count" : 779,
            "normalized" : true,
            "type" : "VEC4"
        },
        {
            "bufferView" : 7,
            "componentType" : 5123,
            "count" : 1233,
            "type" : "SCALAR"
        },
        {
            "bufferView" : 8,
            "componentType" : 5126,
            "count" : 388,
            "max" : [
                -0.008711175993084908,
                0.45853620767593384,
                0.08613545447587967
            ],
            "min" : [
                -0.6419286131858826,
                0.26442578434944153,
                -0.1045088842511177
            ],
            "type" : "VEC3"
        },
        {
            "bufferView" : 9,
            "componentType" : 5126,
            "count" : 388,
            "type" : "VEC3"
        },
        {
            "bufferView" : 10,
            "componentType" : 5123,
            "count" : 388,
            "normalized" : true,
            "type" : "VEC4"
        },
        {
            "bufferView" : 11,
            "componentType" : 5123,
            "count" : 1080,
            "type" : "SCALAR"
        }
    ],
    "bufferViews" : [
        {
            "buffer" : 0,
            "byteLength" : 13656,
            "byteOffset" : 0
        },
        {
            "buffer" : 0,
            "byteLength" : 13656,
            "byteOffset" : 13656
        },
        {
            "buffer" : 0,
            "byteLength" : 9104,
            "byteOffset" : 27312
        },
        {
            "buffer" : 0,
            "byteLength" : 4020,
            "byteOffset" : 36416
        },
        {
            "buffer" : 0,
            "byteLength" : 9348,
            "byteOffset" : 40436
        },
        {
            "buffer" : 0,
            "byteLength" : 9348,
            "byteOffset" : 49784
        },
        {
            "buffer" : 0,
            "byteLength" : 6232,
            "byteOffset" : 59132
        },
        {
            "buffer" : 0,
            "byteLength" : 2466,
            "byteOffset" : 65364
        },
        {
            "buffer" : 0,
            "byteLength" : 4656,
            "byteOffset" : 67832
        },
        {
            "buffer" : 0,
            "byteLength" : 4656,
            "byteOffset" : 72488
        },
        {
            "buffer" : 0,
            "byteLength" : 3104,
            "byteOffset" : 77144
        },
        {
            "buffer" : 0,
            "byteLength" : 2160,
            "byteOffset" : 80248
        }
    ],
    "buffers" : [
        {
            "byteLength" : 82408,
            "uri" : "data:application/octet-stream;base64,"
        }
    ]
}
