{
    "asset" : {
        "generator" : "Khronos glTF Blender I/O v1.7.33",
        "version" : "2.0"
    },
    "scene" : 0,
    "scenes" : [
        {
            "name" : "Scene",
            "nodes" : [
                0
            ]
        }
    ],
    "nodes" : [
        {
            "mesh" : 0,
            "name" : "Sniper_2"
        }
    ],
    "materials" : [
        {
            "doubleSided" : true,
            "name" : "Grey",
            "pbrMetallicRoughness" : {
                "baseColorFactor" : [
                    0.2746773064136505,
                    0.28744083642959595,
                    0.35153263807296753,
                    1
                ],
                "metallicFactor" : 0,
                "roughnessFactor" : 0.5
            }
        },
        {
            "doubleSided" : true,
            "name" : "DarkGrey",
            "pbrMetallicRoughness" : {
                "baseColorFactor" : [
                    0.0666259378194809,
                    0.0666259378194809,
                    0.0666259378194809,
                    1
                ],
                "metallicFactor" : 0,
                "roughnessFactor" : 0.5
            }
        },
        {
            "doubleSided" : true,
            "name" : "Wood",
            "pbrMetallicRoughness" : {
                "baseColorFactor" : [
                    0.3757452964782715,
                    0.20292167365550995,
                    0.0587104856967926,
                    1
                ],
                "metallicFactor" : 0,
                "roughnessFactor" : 0.5
            }
        }
    ],
    "meshes" : [
        {
            "name" : "Cube.282",
            "primitives" : [
                {
                    "attributes" : {
                        "POSITION" : 0,
                        "NORMAL" : 1,
                        "COLOR_0" : 2
                    },
                    "indices" : 3,
                    "material" : 0
                },
                {
                    "attributes" : {
                        "POSITION" : 4,
                        "NORMAL" : 5,
                        "COLOR_0" : 6
                    },
                    "indices" : 7,
                    "material" : 1
                },
                {
                    "attributes" : {
                        "POSITION" : 8,
                        "NORMAL" : 9,
                        "COLOR_0" : 10
                    },
                    "indices" : 11,
                    "material" : 2
                }
            ]
        }
    ],
    "accessors" : [
        {
            "bufferView" : 0,
            "componentType" : 5126,
            "count" : 417,
            "max" : [
                0.08438066393136978,
                0.29278841614723206,
                0.0694708302617073
            ],
            "min" : [
                -0.617965579032898,
                -0.31686076521873474,
                -0.05122043564915657
            ],
            "type" : "VEC3"
        },
        {
            "bufferView" : 1,
            "componentType" : 5126,
            "count" : 417,
            "type" : "VEC3"
        },
        {
            "bufferView" : 2,
            "componentType" : 5123,
            "count" : 417,
            "normalized" : true,
            "type" : "VEC4"
        },
        {
            "bufferView" : 3,
            "componentType" : 5123,
            "count" : 876,
            "type" : "SCALAR"
        },
        {
            "bufferView" : 4,
            "componentType" : 5126,
            "count" : 1010,
            "max" : [
                0.4700961709022522,
                0.4683731198310852,
                0.09926576167345047
            ],
            "min" : [
                -1.2650525569915771,
                -0.2894143760204315,
                -0.09477246552705765
            ],
            "type" : "VEC3"
        },
        {
            "bufferView" : 5,
            "componentType" : 5126,
            "count" : 1010,
            "type" : "VEC3"
        },
        {
            "bufferView" : 6,
            "componentType" : 5123,
            "count" : 1010,
            "normalized" : true,
            "type" : "VEC4"
        },
        {
            "bufferView" : 7,
            "componentType" : 5123,
            "count" : 2694,
            "type" : "SCALAR"
        },
        {
            "bufferView" : 8,
            "componentType" : 5126,
            "count" : 94,
            "max" : [
                0.13210134208202362,
                0.1345849335193634,
                0.034322354942560196
            ],
            "min" : [
                -0.09286288917064667,
                -0.11461258679628372,
                -0.034228503704071045
            ],
            "type" : "VEC3"
        },
        {
            "bufferView" : 9,
            "componentType" : 5126,
            "count" : 94,
            "type" : "VEC3"
        },
        {
            "bufferView" : 10,
            "componentType" : 5123,
            "count" : 94,
            "normalized" : true,
            "type" : "VEC4"
        },
        {
            "bufferView" : 11,
            "componentType" : 5123,
            "count" : 324,
            "type" : "SCALAR"
        }
    ],
    "bufferViews" : [
        {
            "buffer" : 0,
            "byteLength" : 5004,
            "byteOffset" : 0
        },
        {
            "buffer" : 0,
            "byteLength" : 5004,
            "byteOffset" : 5004
        },
        {
            "buffer" : 0,
            "byteLength" : 3336,
            "byteOffset" : 10008
        },
        {
            "buffer" : 0,
            "byteLength" : 1752,
            "byteOffset" : 13344
        },
        {
            "buffer" : 0,
            "byteLength" : 12120,
            "byteOffset" : 15096
        },
        {
            "buffer" : 0,
            "byteLength" : 12120,
            "byteOffset" : 27216
        },
        {
            "buffer" : 0,
            "byteLength" : 8080,
            "byteOffset" : 39336
        },
        {
            "buffer" : 0,
            "byteLength" : 5388,
            "byteOffset" : 47416
        },
        {
            "buffer" : 0,
            "byteLength" : 1128,
            "byteOffset" : 52804
        },
        {
            "buffer" : 0,
            "byteLength" : 1128,
            "byteOffset" : 53932
        },
        {
            "buffer" : 0,
            "byteLength" : 752,
            "byteOffset" : 55060
        },
        {
            "buffer" : 0,
            "byteLength" : 648,
            "byteOffset" : 55812
        }
    ],
    "buffers" : [
        {
            "byteLength" : 56460,
            "uri" : "data:application/octet-stream;base64,"
        }
    ]
}
